  0
SECTION
  2
HEADER
  9
$ACADVER
  1
AC1009
  0
ENDSEC
  0
SECTION
  2
ENTITIES
  0
POLYLINE
  5
90
  8
Layer_0
  62
0
  70
1
  66
1
  10
0
  20
0
  30
0
  0
VERTEX
  5
90
  8
Layer_0
  10
10.438808
  20
142.5752
  0
VERTEX
  5
91
  8
Layer_0
  10
10.438808
  20
182.5752
  0
VERTEX
  5
92
  8
Layer_0
  10
10.45182
  20
183.08981
  0
VERTEX
  5
93
  8
Layer_0
  10
10.490438
  20
183.59764
  0
VERTEX
  5
94
  8
Layer_0
  10
10.554031
  20
184.09808
  0
VERTEX
  5
95
  8
Layer_0
  10
10.641973
  20
184.59055
  0
VERTEX
  5
96
  8
Layer_0
  10
10.88839
  20
185.54889
  0
VERTEX
  5
97
  8
Layer_0
  10
11.224659
  20
186.46764
  0
VERTEX
  5
98
  8
Layer_0
  10
11.645755
  20
187.34177
  0
VERTEX
  5
99
  8
Layer_0
  10
12.146652
  20
188.16629
  0
VERTEX
  5
9a
  8
Layer_0
  10
12.722322
  20
188.93613
  0
VERTEX
  5
9b
  8
Layer_0
  10
13.367741
  20
189.64626
  0
VERTEX
  5
9c
  8
Layer_0
  10
14.07788
  20
190.29169
  0
VERTEX
  5
9d
  8
Layer_0
  10
14.847713
  20
190.86736
  0
VERTEX
  5
9e
  8
Layer_0
  10
15.672215
  20
191.36826
  0
VERTEX
  5
9f
  8
Layer_0
  10
16.546356
  20
191.78935
  0
VERTEX
  5
a0
  8
Layer_0
  10
17.465115
  20
192.12563
  0
VERTEX
  5
a1
  8
Layer_0
  10
18.42346
  20
192.37204
  0
VERTEX
  5
a2
  8
Layer_0
  10
18.915909
  20
192.45999
  0
VERTEX
  5
a3
  8
Layer_0
  10
19.416367
  20
192.52357
  0
VERTEX
  5
a4
  8
Layer_0
  10
19.92421
  20
192.56219
  0
VERTEX
  5
a5
  8
Layer_0
  10
20.438808
  20
192.5752
  0
VERTEX
  5
a6
  8
Layer_0
  10
100.43881
  20
192.5752
  0
VERTEX
  5
a7
  8
Layer_0
  10
100.9534
  20
192.56219
  0
VERTEX
  5
a8
  8
Layer_0
  10
101.46124
  20
192.52357
  0
VERTEX
  5
a9
  8
Layer_0
  10
101.96171
  20
192.45999
  0
VERTEX
  5
aa
  8
Layer_0
  10
102.45415
  20
192.37204
  0
VERTEX
  5
ab
  8
Layer_0
  10
103.41251
  20
192.12563
  0
VERTEX
  5
ac
  8
Layer_0
  10
104.33126
  20
191.78935
  0
VERTEX
  5
ad
  8
Layer_0
  10
105.20541
  20
191.36826
  0
VERTEX
  5
ae
  8
Layer_0
  10
106.02991
  20
190.86736
  0
VERTEX
  5
af
  8
Layer_0
  10
106.79974
  20
190.29169
  0
VERTEX
  5
b0
  8
Layer_0
  10
107.50987
  20
189.64626
  0
VERTEX
  5
b1
  8
Layer_0
  10
108.15529
  20
188.93613
  0
VERTEX
  5
b2
  8
Layer_0
  10
108.73096
  20
188.16629
  0
VERTEX
  5
b3
  8
Layer_0
  10
109.23186
  20
187.34177
  0
VERTEX
  5
b4
  8
Layer_0
  10
109.65295
  20
186.46764
  0
VERTEX
  5
b5
  8
Layer_0
  10
109.98923
  20
185.54889
  0
VERTEX
  5
b6
  8
Layer_0
  10
110.23565
  20
184.59055
  0
VERTEX
  5
b7
  8
Layer_0
  10
110.32359
  20
184.09808
  0
VERTEX
  5
b8
  8
Layer_0
  10
110.38718
  20
183.59764
  0
VERTEX
  5
b9
  8
Layer_0
  10
110.4258
  20
183.08981
  0
VERTEX
  5
ba
  8
Layer_0
  10
110.43881
  20
182.5752
  0
VERTEX
  5
bb
  8
Layer_0
  10
110.43881
  20
142.5752
  0
VERTEX
  5
bc
  8
Layer_0
  10
110.4258
  20
142.06058
  0
VERTEX
  5
bd
  8
Layer_0
  10
110.38718
  20
141.55275
  0
VERTEX
  5
be
  8
Layer_0
  10
110.32359
  20
141.05231
  0
VERTEX
  5
bf
  8
Layer_0
  10
110.23565
  20
140.55984
  0
VERTEX
  5
c0
  8
Layer_0
  10
109.98923
  20
139.6015
  0
VERTEX
  5
c1
  8
Layer_0
  10
109.65295
  20
138.68275
  0
VERTEX
  5
c2
  8
Layer_0
  10
109.23186
  20
137.80862
  0
VERTEX
  5
c3
  8
Layer_0
  10
108.73096
  20
136.9841
  0
VERTEX
  5
c4
  8
Layer_0
  10
108.15529
  20
136.21426
  0
VERTEX
  5
c5
  8
Layer_0
  10
107.50987
  20
135.50414
  0
VERTEX
  5
c6
  8
Layer_0
  10
106.79974
  20
134.8587
  0
VERTEX
  5
c7
  8
Layer_0
  10
106.02991
  20
134.28304
  0
VERTEX
  5
c8
  8
Layer_0
  10
105.20541
  20
133.78214
  0
VERTEX
  5
c9
  8
Layer_0
  10
104.33126
  20
133.36104
  0
VERTEX
  5
ca
  8
Layer_0
  10
103.41251
  20
133.02477
  0
VERTEX
  5
cb
  8
Layer_0
  10
102.45415
  20
132.77835
  0
VERTEX
  5
cc
  8
Layer_0
  10
101.96171
  20
132.6904
  0
VERTEX
  5
cd
  8
Layer_0
  10
101.46124
  20
132.62682
  0
VERTEX
  5
ce
  8
Layer_0
  10
100.9534
  20
132.5882
  0
VERTEX
  5
cf
  8
Layer_0
  10
100.43881
  20
132.5752
  0
VERTEX
  5
d0
  8
Layer_0
  10
20.438808
  20
132.5752
  0
VERTEX
  5
d1
  8
Layer_0
  10
19.92421
  20
132.5882
  0
VERTEX
  5
d2
  8
Layer_0
  10
19.416367
  20
132.62682
  0
VERTEX
  5
d3
  8
Layer_0
  10
18.915909
  20
132.6904
  0
VERTEX
  5
d4
  8
Layer_0
  10
18.42346
  20
132.77835
  0
VERTEX
  5
d5
  8
Layer_0
  10
17.465115
  20
133.02477
  0
VERTEX
  5
d6
  8
Layer_0
  10
16.546356
  20
133.36104
  0
VERTEX
  5
d7
  8
Layer_0
  10
15.672215
  20
133.78214
  0
VERTEX
  5
d8
  8
Layer_0
  10
14.847713
  20
134.28304
  0
VERTEX
  5
d9
  8
Layer_0
  10
14.07788
  20
134.8587
  0
VERTEX
  5
da
  8
Layer_0
  10
13.367741
  20
135.50414
  0
VERTEX
  5
db
  8
Layer_0
  10
12.722322
  20
136.21426
  0
VERTEX
  5
dc
  8
Layer_0
  10
12.146652
  20
136.9841
  0
VERTEX
  5
dd
  8
Layer_0
  10
11.645755
  20
137.80862
  0
VERTEX
  5
de
  8
Layer_0
  10
11.224659
  20
138.68275
  0
VERTEX
  5
df
  8
Layer_0
  10
10.88839
  20
139.6015
  0
VERTEX
  5
e0
  8
Layer_0
  10
10.641973
  20
140.55984
  0
VERTEX
  5
e1
  8
Layer_0
  10
10.554031
  20
141.05231
  0
VERTEX
  5
e2
  8
Layer_0
  10
10.490438
  20
141.55275
  0
VERTEX
  5
e3
  8
Layer_0
  10
10.45182
  20
142.06058
  0
VERTEX
  5
e4
  8
Layer_0
  10
10.438808
  20
142.5752
  0
SEQEND
  0
POLYLINE
  5
e6
  8
Layer_0
  62
0
  70
1
  66
1
  10
0
  20
0
  30
0
  0
VERTEX
  5
e6
  8
Layer_0
  10
10
  20
78
  0
VERTEX
  5
e7
  8
Layer_0
  10
10
  20
118
  0
VERTEX
  5
e8
  8
Layer_0
  10
10.013012
  20
118.5146
  0
VERTEX
  5
e9
  8
Layer_0
  10
10.051629
  20
119.02244
  0
VERTEX
  5
ea
  8
Layer_0
  10
10.115223
  20
119.5229
  0
VERTEX
  5
eb
  8
Layer_0
  10
10.203165
  20
120.01535
  0
VERTEX
  5
ec
  8
Layer_0
  10
10.449581
  20
120.9737
  0
VERTEX
  5
ed
  8
Layer_0
  10
10.785851
  20
121.89246
  0
VERTEX
  5
ee
  8
Layer_0
  10
11.206946
  20
122.7666
  0
VERTEX
  5
ef
  8
Layer_0
  10
11.707844
  20
123.5911
  0
VERTEX
  5
f0
  8
Layer_0
  10
12.283514
  20
124.36094
  0
VERTEX
  5
f1
  8
Layer_0
  10
12.928932
  20
125.07108
  0
VERTEX
  5
f2
  8
Layer_0
  10
13.639071
  20
125.71649
  0
VERTEX
  5
f3
  8
Layer_0
  10
14.408905
  20
126.29216
  0
VERTEX
  5
f4
  8
Layer_0
  10
15.233406
  20
126.79305
  0
VERTEX
  5
f5
  8
Layer_0
  10
16.107548
  20
127.21415
  0
VERTEX
  5
f6
  8
Layer_0
  10
17.026306
  20
127.55042
  0
VERTEX
  5
f7
  8
Layer_0
  10
17.984652
  20
127.79684
  0
VERTEX
  5
f8
  8
Layer_0
  10
18.4771
  20
127.88478
  0
VERTEX
  5
f9
  8
Layer_0
  10
18.977558
  20
127.94837
  0
VERTEX
  5
fa
  8
Layer_0
  10
19.485401
  20
127.98698
  0
VERTEX
  5
fb
  8
Layer_0
  10
20
  20
128
  0
VERTEX
  5
fc
  8
Layer_0
  10
100
  20
128
  0
VERTEX
  5
fd
  8
Layer_0
  10
100.51459
  20
127.98698
  0
VERTEX
  5
fe
  8
Layer_0
  10
101.02243
  20
127.94837
  0
VERTEX
  5
ff
  8
Layer_0
  10
101.5229
  20
127.88478
  0
VERTEX
  5
100
  8
Layer_0
  10
102.01534
  20
127.79684
  0
VERTEX
  5
101
  8
Layer_0
  10
102.97369
  20
127.55042
  0
VERTEX
  5
102
  8
Layer_0
  10
103.89245
  20
127.21414
  0
VERTEX
  5
103
  8
Layer_0
  10
104.7666
  20
126.79305
  0
VERTEX
  5
104
  8
Layer_0
  10
105.59109
  20
126.29214
  0
VERTEX
  5
105
  8
Layer_0
  10
106.36092
  20
125.71648
  0
VERTEX
  5
106
  8
Layer_0
  10
107.07106
  20
125.07106
  0
VERTEX
  5
107
  8
Layer_0
  10
107.71648
  20
124.36092
  0
VERTEX
  5
108
  8
Layer_0
  10
108.29214
  20
123.59109
  0
VERTEX
  5
109
  8
Layer_0
  10
108.79305
  20
122.7666
  0
VERTEX
  5
10a
  8
Layer_0
  10
109.21414
  20
121.89245
  0
VERTEX
  5
10b
  8
Layer_0
  10
109.55042
  20
120.97369
  0
VERTEX
  5
10c
  8
Layer_0
  10
109.79684
  20
120.01534
  0
VERTEX
  5
10d
  8
Layer_0
  10
109.88478
  20
119.5229
  0
VERTEX
  5
10e
  8
Layer_0
  10
109.94837
  20
119.02243
  0
VERTEX
  5
10f
  8
Layer_0
  10
109.98698
  20
118.51459
  0
VERTEX
  5
110
  8
Layer_0
  10
110
  20
118
  0
VERTEX
  5
111
  8
Layer_0
  10
110
  20
78
  0
VERTEX
  5
112
  8
Layer_0
  10
109.98698
  20
77.485405
  0
VERTEX
  5
113
  8
Layer_0
  10
109.94837
  20
76.977562
  0
VERTEX
  5
114
  8
Layer_0
  10
109.88478
  20
76.477097
  0
VERTEX
  5
115
  8
Layer_0
  10
109.79684
  20
75.98465
  0
VERTEX
  5
116
  8
Layer_0
  10
109.55042
  20
75.026299
  0
VERTEX
  5
117
  8
Layer_0
  10
109.21414
  20
74.107544
  0
VERTEX
  5
118
  8
Layer_0
  10
108.79305
  20
73.233398
  0
VERTEX
  5
119
  8
Layer_0
  10
108.29214
  20
72.408897
  0
VERTEX
  5
11a
  8
Layer_0
  10
107.71648
  20
71.639061
  0
VERTEX
  5
11b
  8
Layer_0
  10
107.07106
  20
70.928925
  0
VERTEX
  5
11c
  8
Layer_0
  10
106.36092
  20
70.283508
  0
VERTEX
  5
11d
  8
Layer_0
  10
105.59109
  20
69.70784
  0
VERTEX
  5
11e
  8
Layer_0
  10
104.7666
  20
69.206947
  0
VERTEX
  5
11f
  8
Layer_0
  10
103.89245
  20
68.785851
  0
VERTEX
  5
120
  8
Layer_0
  10
102.97369
  20
68.449585
  0
VERTEX
  5
121
  8
Layer_0
  10
102.01534
  20
68.203163
  0
VERTEX
  5
122
  8
Layer_0
  10
101.5229
  20
68.115219
  0
VERTEX
  5
123
  8
Layer_0
  10
101.02243
  20
68.051628
  0
VERTEX
  5
124
  8
Layer_0
  10
100.51459
  20
68.013016
  0
VERTEX
  5
125
  8
Layer_0
  10
100
  20
68
  0
VERTEX
  5
126
  8
Layer_0
  10
20
  20
68
  0
VERTEX
  5
127
  8
Layer_0
  10
19.485401
  20
68.013016
  0
VERTEX
  5
128
  8
Layer_0
  10
18.977558
  20
68.051628
  0
VERTEX
  5
129
  8
Layer_0
  10
18.4771
  20
68.115219
  0
VERTEX
  5
12a
  8
Layer_0
  10
17.984652
  20
68.203163
  0
VERTEX
  5
12b
  8
Layer_0
  10
17.026306
  20
68.449585
  0
VERTEX
  5
12c
  8
Layer_0
  10
16.107548
  20
68.785858
  0
VERTEX
  5
12d
  8
Layer_0
  10
15.233406
  20
69.206955
  0
VERTEX
  5
12e
  8
Layer_0
  10
14.408905
  20
69.707855
  0
VERTEX
  5
12f
  8
Layer_0
  10
13.639071
  20
70.283524
  0
VERTEX
  5
130
  8
Layer_0
  10
12.928932
  20
70.92894
  0
VERTEX
  5
131
  8
Layer_0
  10
12.283514
  20
71.639076
  0
VERTEX
  5
132
  8
Layer_0
  10
11.707844
  20
72.408905
  0
VERTEX
  5
133
  8
Layer_0
  10
11.206946
  20
73.233398
  0
VERTEX
  5
134
  8
Layer_0
  10
10.785851
  20
74.107552
  0
VERTEX
  5
135
  8
Layer_0
  10
10.449581
  20
75.026306
  0
VERTEX
  5
136
  8
Layer_0
  10
10.203165
  20
75.984657
  0
VERTEX
  5
137
  8
Layer_0
  10
10.115223
  20
76.477104
  0
VERTEX
  5
138
  8
Layer_0
  10
10.051629
  20
76.97757
  0
VERTEX
  5
139
  8
Layer_0
  10
10.013012
  20
77.485413
  0
VERTEX
  5
13a
  8
Layer_0
  10
10
  20
78
  0
SEQEND
  0
POLYLINE
  5
13c
  8
Layer_1
  62
221
  70
1
  66
1
  10
0
  20
0
  30
0
  0
VERTEX
  5
13c
  8
Layer_1
  10
20.664309
  20
150.58003
  0
VERTEX
  5
13d
  8
Layer_1
  10
20.604572
  20
150.79295
  0
VERTEX
  5
13e
  8
Layer_1
  10
20.568207
  20
151.01108
  0
VERTEX
  5
13f
  8
Layer_1
  10
20.568207
  20
162.79004
  0
VERTEX
  5
140
  8
Layer_1
  10
20.568207
  20
174.57037
  0
VERTEX
  5
141
  8
Layer_1
  10
100.30941
  20
174.57037
  0
VERTEX
  5
142
  8
Layer_1
  10
100.30941
  20
150.58003
  0
VERTEX
  5
143
  8
Layer_1
  10
21.239511
  20
150.58003
  0
VERTEX
  5
144
  8
Layer_1
  10
21.444115
  20
150.63376
  0
VERTEX
  5
145
  8
Layer_1
  10
21.652189
  20
150.67191
  0
VERTEX
  5
146
  8
Layer_1
  10
22.600674
  20
150.79681
  0
VERTEX
  5
147
  8
Layer_1
  10
23.52306
  20
150.99869
  0
VERTEX
  5
148
  8
Layer_1
  10
24.415863
  20
151.27426
  0
VERTEX
  5
149
  8
Layer_1
  10
25.275583
  20
151.6203
  0
VERTEX
  5
14a
  8
Layer_1
  10
26.098736
  20
152.03352
  0
VERTEX
  5
14b
  8
Layer_1
  10
26.881828
  20
152.5107
  0
VERTEX
  5
14c
  8
Layer_1
  10
27.621372
  20
153.04855
  0
VERTEX
  5
14d
  8
Layer_1
  10
28.313873
  20
153.64383
  0
VERTEX
  5
14e
  8
Layer_1
  10
28.955845
  20
154.2933
  0
VERTEX
  5
14f
  8
Layer_1
  10
29.543793
  20
154.99368
  0
VERTEX
  5
150
  8
Layer_1
  10
30.07423
  20
155.74173
  0
VERTEX
  5
151
  8
Layer_1
  10
30.543663
  20
156.53418
  0
VERTEX
  5
152
  8
Layer_1
  10
30.948605
  20
157.36777
  0
VERTEX
  5
153
  8
Layer_1
  10
31.285559
  20
158.23926
  0
VERTEX
  5
154
  8
Layer_1
  10
31.551041
  20
159.14539
  0
VERTEX
  5
155
  8
Layer_1
  10
31.741556
  20
160.08289
  0
VERTEX
  5
156
  8
Layer_1
  10
31.83289
  20
160.94057
  0
VERTEX
  5
157
  8
Layer_1
  10
31.891363
  20
161.80568
  0
VERTEX
  5
158
  8
Layer_1
  10
30.492222
  20
161.80568
  0
VERTEX
  5
159
  8
Layer_1
  10
30.425484
  20
160.81415
  0
VERTEX
  5
15a
  8
Layer_1
  10
30.276564
  20
159.85904
  0
VERTEX
  5
15b
  8
Layer_1
  10
30.044504
  20
158.94073
  0
VERTEX
  5
15c
  8
Layer_1
  10
29.728346
  20
158.0596
  0
VERTEX
  5
15d
  8
Layer_1
  10
29.327126
  20
157.21603
  0
VERTEX
  5
15e
  8
Layer_1
  10
28.839882
  20
156.41043
  0
VERTEX
  5
15f
  8
Layer_1
  10
28.265656
  20
155.64313
  0
VERTEX
  5
160
  8
Layer_1
  10
27.603487
  20
154.91455
  0
VERTEX
  5
161
  8
Layer_1
  10
26.875193
  20
154.24998
  0
VERTEX
  5
162
  8
Layer_1
  10
26.104401
  20
153.67365
  0
VERTEX
  5
163
  8
Layer_1
  10
25.292866
  20
153.18414
  0
VERTEX
  5
164
  8
Layer_1
  10
24.442345
  20
152.78015
  0
VERTEX
  5
165
  8
Layer_1
  10
23.554592
  20
152.46027
  0
VERTEX
  5
166
  8
Layer_1
  10
22.631367
  20
152.22319
  0
VERTEX
  5
167
  8
Layer_1
  10
21.674417
  20
152.0675
  0
VERTEX
  5
168
  8
Layer_1
  10
20.685507
  20
151.9919
  0
VERTEX
  5
169
  8
Layer_1
  10
20.657097
  20
151.85931
  0
VERTEX
  5
16a
  8
Layer_1
  10
20.640282
  20
151.72479
  0
VERTEX
  5
16b
  8
Layer_1
  10
20.650707
  20
151.1524
  0
VERTEX
  5
16c
  8
Layer_1
  10
20.664309
  20
150.58003
  0
SEQEND
  0
POLYLINE
  5
16e
  8
Layer_1
  62
221
  70
1
  66
1
  10
0
  20
0
  30
0
  0
VERTEX
  5
16e
  8
Layer_1
  10
52.734341
  20
166.41719
  0
VERTEX
  5
16f
  8
Layer_1
  10
52.683464
  20
166.24495
  0
VERTEX
  5
170
  8
Layer_1
  10
52.641064
  20
166.10344
  0
VERTEX
  5
171
  8
Layer_1
  10
52.544422
  20
165.84036
  0
VERTEX
  5
172
  8
Layer_1
  10
52.441109
  20
165.63281
  0
VERTEX
  5
173
  8
Layer_1
  10
52.324841
  20
165.4772
  0
VERTEX
  5
174
  8
Layer_1
  10
52.189346
  20
165.36995
  0
VERTEX
  5
175
  8
Layer_1
  10
52.028343
  20
165.3075
  0
VERTEX
  5
176
  8
Layer_1
  10
51.835564
  20
165.28622
  0
VERTEX
  5
177
  8
Layer_1
  10
51.604721
  20
165.30258
  0
VERTEX
  5
178
  8
Layer_1
  10
51.329544
  20
165.353
  0
VERTEX
  5
179
  8
Layer_1
  10
51.057777
  20
165.39885
  0
VERTEX
  5
17a
  8
Layer_1
  10
50.791302
  20
165.4192
  0
VERTEX
  5
17b
  8
Layer_1
  10
50.531387
  20
165.41478
  0
VERTEX
  5
17c
  8
Layer_1
  10
50.279282
  20
165.38628
  0
VERTEX
  5
17d
  8
Layer_1
  10
49.803528
  20
165.25992
  0
VERTEX
  5
17e
  8
Layer_1
  10
49.3741
  20
165.04579
  0
VERTEX
  5
17f
  8
Layer_1
  10
49.179897
  20
164.90759
  0
VERTEX
  5
180
  8
Layer_1
  10
49.001053
  20
164.7496
  0
VERTEX
  5
181
  8
Layer_1
  10
48.83881
  20
164.57249
  0
VERTEX
  5
182
  8
Layer_1
  10
48.694427
  20
164.37698
  0
VERTEX
  5
183
  8
Layer_1
  10
48.569168
  20
164.1638
  0
VERTEX
  5
184
  8
Layer_1
  10
48.464287
  20
163.93365
  0
VERTEX
  5
185
  8
Layer_1
  10
48.381039
  20
163.68724
  0
VERTEX
  5
186
  8
Layer_1
  10
48.320683
  20
163.42529
  0
VERTEX
  5
187
  8
Layer_1
  10
48.275269
  20
163.08629
  0
VERTEX
  5
188
  8
Layer_1
  10
48.262077
  20
162.75362
  0
VERTEX
  5
189
  8
Layer_1
  10
48.282871
  20
162.42833
  0
VERTEX
  5
18a
  8
Layer_1
  10
48.339409
  20
162.11148
  0
VERTEX
  5
18b
  8
Layer_1
  10
48.433441
  20
161.80409
  0
VERTEX
  5
18c
  8
Layer_1
  10
48.566723
  20
161.50723
  0
VERTEX
  5
18d
  8
Layer_1
  10
48.741013
  20
161.22192
  0
VERTEX
  5
18e
  8
Layer_1
  10
48.958069
  20
160.94923
  0
VERTEX
  5
18f
  8
Layer_1
  10
48.613853
  20
160.63164
  0
VERTEX
  5
190
  8
Layer_1
  10
48.357407
  20
160.34641
  0
VERTEX
  5
191
  8
Layer_1
  10
48.185982
  20
160.07887
  0
VERTEX
  5
192
  8
Layer_1
  10
48.096855
  20
159.81436
  0
VERTEX
  5
193
  8
Layer_1
  10
48.087292
  20
159.53819
  0
VERTEX
  5
194
  8
Layer_1
  10
48.154556
  20
159.23569
  0
VERTEX
  5
195
  8
Layer_1
  10
48.295914
  20
158.89217
  0
VERTEX
  5
196
  8
Layer_1
  10
48.508644
  20
158.49297
  0
VERTEX
  5
197
  8
Layer_1
  10
48.351524
  20
158.35648
  0
VERTEX
  5
198
  8
Layer_1
  10
48.203377
  20
158.21031
  0
VERTEX
  5
199
  8
Layer_1
  10
48.034988
  20
157.99594
  0
VERTEX
  5
19a
  8
Layer_1
  10
47.900505
  20
157.76349
  0
VERTEX
  5
19b
  8
Layer_1
  10
47.800617
  20
157.51685
  0
VERTEX
  5
19c
  8
Layer_1
  10
47.736015
  20
157.25987
  0
VERTEX
  5
19d
  8
Layer_1
  10
47.707401
  20
156.99644
  0
VERTEX
  5
19e
  8
Layer_1
  10
47.715466
  20
156.73045
  0
VERTEX
  5
19f
  8
Layer_1
  10
47.760902
  20
156.46576
  0
VERTEX
  5
1a0
  8
Layer_1
  10
47.84441
  20
156.20628
  0
VERTEX
  5
1a1
  8
Layer_1
  10
47.94059
  20
155.9772
  0
VERTEX
  5
1a2
  8
Layer_1
  10
48.059231
  20
155.76945
  0
VERTEX
  5
1a3
  8
Layer_1
  10
48.19986
  20
155.58537
  0
VERTEX
  5
1a4
  8
Layer_1
  10
48.362022
  20
155.42722
  0
VERTEX
  5
1a5
  8
Layer_1
  10
48.54525
  20
155.29729
  0
VERTEX
  5
1a6
  8
Layer_1
  10
48.749084
  20
155.19786
  0
VERTEX
  5
1a7
  8
Layer_1
  10
48.973053
  20
155.13124
  0
VERTEX
  5
1a8
  8
Layer_1
  10
49.216702
  20
155.09969
  0
VERTEX
  5
1a9
  8
Layer_1
  10
49.993671
  20
155.06067
  0
VERTEX
  5
1aa
  8
Layer_1
  10
50.771301
  20
155.04765
  0
VERTEX
  5
1ab
  8
Layer_1
  10
51.548931
  20
155.06067
  0
VERTEX
  5
1ac
  8
Layer_1
  10
52.325905
  20
155.09969
  0
VERTEX
  5
1ad
  8
Layer_1
  10
52.717594
  20
155.17508
  0
VERTEX
  5
1ae
  8
Layer_1
  10
53.070808
  20
155.3282
  0
VERTEX
  5
1af
  8
Layer_1
  10
53.380203
  20
155.54955
  0
VERTEX
  5
1b0
  8
Layer_1
  10
53.640427
  20
155.82965
  0
VERTEX
  5
1b1
  8
Layer_1
  10
53.84613
  20
156.15904
  0
VERTEX
  5
1b2
  8
Layer_1
  10
53.991959
  20
156.52826
  0
VERTEX
  5
1b3
  8
Layer_1
  10
54.072563
  20
156.9278
  0
VERTEX
  5
1b4
  8
Layer_1
  10
54.082607
  20
157.34821
  0
VERTEX
  5
1b5
  8
Layer_1
  10
54.025909
  20
157.73059
  0
VERTEX
  5
1b6
  8
Layer_1
  10
53.90778
  20
158.0713
  0
VERTEX
  5
1b7
  8
Layer_1
  10
53.731453
  20
158.36754
  0
VERTEX
  5
1b8
  8
Layer_1
  10
53.50016
  20
158.61646
  0
VERTEX
  5
1b9
  8
Layer_1
  10
53.217125
  20
158.81522
  0
VERTEX
  5
1ba
  8
Layer_1
  10
52.885582
  20
158.961
  0
VERTEX
  5
1bb
  8
Layer_1
  10
52.508759
  20
159.05096
  0
VERTEX
  5
1bc
  8
Layer_1
  10
52.089886
  20
159.08229
  0
VERTEX
  5
1bd
  8
Layer_1
  10
51.155712
  20
159.08229
  0
VERTEX
  5
1be
  8
Layer_1
  10
50.221539
  20
159.08229
  0
VERTEX
  5
1bf
  8
Layer_1
  10
49.953629
  20
159.11372
  0
VERTEX
  5
1c0
  8
Layer_1
  10
49.738197
  20
159.2139
  0
VERTEX
  5
1c1
  8
Layer_1
  10
49.656616
  20
159.29254
  0
VERTEX
  5
1c2
  8
Layer_1
  10
49.595898
  20
159.39172
  0
VERTEX
  5
1c3
  8
Layer_1
  10
49.558632
  20
159.51253
  0
VERTEX
  5
1c4
  8
Layer_1
  10
49.547405
  20
159.65608
  0
VERTEX
  5
1c5
  8
Layer_1
  10
49.56028
  20
159.78976
  0
VERTEX
  5
1c6
  8
Layer_1
  10
49.597424
  20
159.90213
  0
VERTEX
  5
1c7
  8
Layer_1
  10
49.656593
  20
159.99429
  0
VERTEX
  5
1c8
  8
Layer_1
  10
49.73555
  20
160.06735
  0
VERTEX
  5
1c9
  8
Layer_1
  10
49.943893
  20
160.16049
  0
VERTEX
  5
1ca
  8
Layer_1
  10
50.204578
  20
160.19031
  0
VERTEX
  5
1cb
  8
Layer_1
  10
50.706818
  20
160.1949
  0
VERTEX
  5
1cc
  8
Layer_1
  10
51.208004
  20
160.22705
  0
VERTEX
  5
1cd
  8
Layer_1
  10
51.597809
  20
160.28925
  0
VERTEX
  5
1ce
  8
Layer_1
  10
51.954807
  20
160.4024
  0
VERTEX
  5
1cf
  8
Layer_1
  10
52.276657
  20
160.56448
  0
VERTEX
  5
1d0
  8
Layer_1
  10
52.561035
  20
160.77345
  0
VERTEX
  5
1d1
  8
Layer_1
  10
52.805595
  20
161.02728
  0
VERTEX
  5
1d2
  8
Layer_1
  10
53.008007
  20
161.32391
  0
VERTEX
  5
1d3
  8
Layer_1
  10
53.165932
  20
161.6613
  0
VERTEX
  5
1d4
  8
Layer_1
  10
53.277039
  20
162.03745
  0
VERTEX
  5
1d5
  8
Layer_1
  10
53.338646
  20
162.3486
  0
VERTEX
  5
1d6
  8
Layer_1
  10
53.366589
  20
162.66187
  0
VERTEX
  5
1d7
  8
Layer_1
  10
53.361332
  20
162.97464
  0
VERTEX
  5
1d8
  8
Layer_1
  10
53.32333
  20
163.28432
  0
VERTEX
  5
1d9
  8
Layer_1
  10
53.25304
  20
163.5883
  0
VERTEX
  5
1da
  8
Layer_1
  10
53.150925
  20
163.88397
  0
VERTEX
  5
1db
  8
Layer_1
  10
53.017445
  20
164.16875
  0
VERTEX
  5
1dc
  8
Layer_1
  10
52.853054
  20
164.44002
  0
VERTEX
  5
1dd
  8
Layer_1
  10
53.160336
  20
164.69051
  0
VERTEX
  5
1de
  8
Layer_1
  10
53.410789
  20
164.93008
  0
VERTEX
  5
1df
  8
Layer_1
  10
53.606956
  20
165.16354
  0
VERTEX
  5
1e0
  8
Layer_1
  10
53.751366
  20
165.39575
  0
VERTEX
  5
1e1
  8
Layer_1
  10
53.846558
  20
165.63153
  0
VERTEX
  5
1e2
  8
Layer_1
  10
53.895058
  20
165.87573
  0
VERTEX
  5
1e3
  8
Layer_1
  10
53.899406
  20
166.13318
  0
VERTEX
  5
1e4
  8
Layer_1
  10
53.862133
  20
166.40871
  0
VERTEX
  5
1e5
  8
Layer_1
  10
52.734341
  20
166.41719
  0
SEQEND
  0
POLYLINE
  5
1e7
  8
Layer_1
  62
221
  70
1
  66
1
  10
0
  20
0
  30
0
  0
VERTEX
  5
1e7
  8
Layer_1
  10
76.095764
  20
160.2963
  0
VERTEX
  5
1e8
  8
Layer_1
  10
76.005318
  20
160.28781
  0
VERTEX
  5
1e9
  8
Layer_1
  10
75.638039
  20
162.32983
  0
VERTEX
  5
1ea
  8
Layer_1
  10
75.267593
  20
164.37077
  0
VERTEX
  5
1eb
  8
Layer_1
  10
75.212875
  20
164.66049
  0
VERTEX
  5
1ec
  8
Layer_1
  10
75.160271
  20
164.87672
  0
VERTEX
  5
1ed
  8
Layer_1
  10
75.097466
  20
165.0307
  0
VERTEX
  5
1ee
  8
Layer_1
  10
75.012138
  20
165.13358
  0
VERTEX
  5
1ef
  8
Layer_1
  10
74.891968
  20
165.19659
  0
VERTEX
  5
1f0
  8
Layer_1
  10
74.724625
  20
165.23093
  0
VERTEX
  5
1f1
  8
Layer_1
  10
74.497795
  20
165.24777
  0
VERTEX
  5
1f2
  8
Layer_1
  10
74.19915
  20
165.2583
  0
VERTEX
  5
1f3
  8
Layer_1
  10
74.035934
  20
165.25771
  0
VERTEX
  5
1f4
  8
Layer_1
  10
73.892166
  20
165.24295
  0
VERTEX
  5
1f5
  8
Layer_1
  10
73.768326
  20
165.21048
  0
VERTEX
  5
1f6
  8
Layer_1
  10
73.66494
  20
165.15672
  0
VERTEX
  5
1f7
  8
Layer_1
  10
73.582489
  20
165.07813
  0
VERTEX
  5
1f8
  8
Layer_1
  10
73.521454
  20
164.97113
  0
VERTEX
  5
1f9
  8
Layer_1
  10
73.482346
  20
164.83215
  0
VERTEX
  5
1fa
  8
Layer_1
  10
73.465668
  20
164.65767
  0
VERTEX
  5
1fb
  8
Layer_1
  10
73.399506
  20
164.15982
  0
VERTEX
  5
1fc
  8
Layer_1
  10
73.296066
  20
163.66837
  0
VERTEX
  5
1fd
  8
Layer_1
  10
72.993622
  20
162
  0
VERTEX
  5
1fe
  8
Layer_1
  10
72.691185
  20
160.33022
  0
VERTEX
  5
1ff
  8
Layer_1
  10
72.582077
  20
160.49846
  0
VERTEX
  5
200
  8
Layer_1
  10
72.520187
  20
160.68919
  0
VERTEX
  5
201
  8
Layer_1
  10
72.049561
  20
162.75946
  0
VERTEX
  5
202
  8
Layer_1
  10
71.570465
  20
164.82867
  0
VERTEX
  5
203
  8
Layer_1
  10
71.530533
  20
164.94742
  0
VERTEX
  5
204
  8
Layer_1
  10
71.468353
  20
165.07159
  0
VERTEX
  5
205
  8
Layer_1
  10
71.393982
  20
165.17111
  0
VERTEX
  5
206
  8
Layer_1
  10
71.31749
  20
165.21591
  0
VERTEX
  5
207
  8
Layer_1
  10
70.667618
  20
165.24174
  0
VERTEX
  5
208
  8
Layer_1
  10
70.017273
  20
165.23428
  0
VERTEX
  5
209
  8
Layer_1
  10
70.068146
  20
164.97388
  0
VERTEX
  5
20a
  8
Layer_1
  10
70.11055
  20
164.77921
  0
VERTEX
  5
20b
  8
Layer_1
  10
70.862061
  20
161.76822
  0
VERTEX
  5
20c
  8
Layer_1
  10
71.615685
  20
158.75865
  0
VERTEX
  5
20d
  8
Layer_1
  10
71.669983
  20
158.54298
  0
VERTEX
  5
20e
  8
Layer_1
  10
71.719391
  20
158.35432
  0
VERTEX
  5
20f
  8
Layer_1
  10
71.766235
  20
158.19095
  0
VERTEX
  5
210
  8
Layer_1
  10
71.812836
  20
158.05118
  0
VERTEX
  5
211
  8
Layer_1
  10
71.914497
  20
157.83554
  0
VERTEX
  5
212
  8
Layer_1
  10
72.042847
  20
157.69374
  0
VERTEX
  5
213
  8
Layer_1
  10
72.216377
  20
157.61209
  0
VERTEX
  5
214
  8
Layer_1
  10
72.453583
  20
157.57693
  0
VERTEX
  5
215
  8
Layer_1
  10
72.60183
  20
157.57251
  0
VERTEX
  5
216
  8
Layer_1
  10
72.772919
  20
157.57455
  0
VERTEX
  5
217
  8
Layer_1
  10
72.969177
  20
157.58139
  0
VERTEX
  5
218
  8
Layer_1
  10
73.192902
  20
157.59129
  0
VERTEX
  5
219
  8
Layer_1
  10
73.282486
  20
157.61234
  0
VERTEX
  5
21a
  8
Layer_1
  10
73.369553
  20
157.64217
  0
VERTEX
  5
21b
  8
Layer_1
  10
74.261337
  20
162.48828
  0
VERTEX
  5
21c
  8
Layer_1
  10
74.32634
  20
162.48828
  0
VERTEX
  5
21d
  8
Layer_1
  10
74.773643
  20
160.04758
  0
VERTEX
  5
21e
  8
Layer_1
  10
75.225189
  20
157.58563
  0
VERTEX
  5
21f
  8
Layer_1
  10
75.759232
  20
157.5957
  0
VERTEX
  5
220
  8
Layer_1
  10
76.262527
  20
157.58563
  0
VERTEX
  5
221
  8
Layer_1
  10
76.485115
  20
157.59424
  0
VERTEX
  5
222
  8
Layer_1
  10
76.638809
  20
157.67043
  0
VERTEX
  5
223
  8
Layer_1
  10
76.741096
  20
157.81021
  0
VERTEX
  5
224
  8
Layer_1
  10
76.809464
  20
158.00961
  0
VERTEX
  5
225
  8
Layer_1
  10
77.65477
  20
161.41472
  0
VERTEX
  5
226
  8
Layer_1
  10
78.505386
  20
164.81877
  0
VERTEX
  5
227
  8
Layer_1
  10
78.533569
  20
164.9968
  0
VERTEX
  5
228
  8
Layer_1
  10
78.549202
  20
165.17633
  0
VERTEX
  5
229
  8
Layer_1
  10
78.145844
  20
165.25464
  0
VERTEX
  5
22a
  8
Layer_1
  10
77.828674
  20
165.29341
  0
VERTEX
  5
22b
  8
Layer_1
  10
77.583939
  20
165.2847
  0
VERTEX
  5
22c
  8
Layer_1
  10
77.397919
  20
165.22049
  0
VERTEX
  5
22d
  8
Layer_1
  10
77.256866
  20
165.09283
  0
VERTEX
  5
22e
  8
Layer_1
  10
77.147079
  20
164.89371
  0
VERTEX
  5
22f
  8
Layer_1
  10
77.05481
  20
164.61517
  0
VERTEX
  5
230
  8
Layer_1
  10
76.966339
  20
164.24922
  0
VERTEX
  5
231
  8
Layer_1
  10
76.953094
  20
164.17856
  0
VERTEX
  5
232
  8
Layer_1
  10
76.940903
  20
164.10789
  0
VERTEX
  5
233
  8
Layer_1
  10
76.519043
  20
162.20245
  0
VERTEX
  5
234
  8
Layer_1
  10
76.095764
  20
160.2963
  0
SEQEND
  0
POLYLINE
  5
236
  8
Layer_1
  62
221
  70
1
  66
1
  10
0
  20
0
  30
0
  0
VERTEX
  5
236
  8
Layer_1
  10
39.007202
  20
160.84041
  0
VERTEX
  5
237
  8
Layer_1
  10
38.405678
  20
160.84465
  0
VERTEX
  5
238
  8
Layer_1
  10
37.811573
  20
160.8277
  0
VERTEX
  5
239
  8
Layer_1
  10
37.72411
  20
160.79224
  0
VERTEX
  5
23a
  8
Layer_1
  10
37.649445
  20
160.73688
  0
VERTEX
  5
23b
  8
Layer_1
  10
37.590836
  20
160.66473
  0
VERTEX
  5
23c
  8
Layer_1
  10
37.551529
  20
160.57895
  0
VERTEX
  5
23d
  8
Layer_1
  10
37.521996
  20
160.15933
  0
VERTEX
  5
23e
  8
Layer_1
  10
37.558811
  20
159.74826
  0
VERTEX
  5
23f
  8
Layer_1
  10
37.658432
  20
159.35255
  0
VERTEX
  5
240
  8
Layer_1
  10
37.817322
  20
158.97903
  0
VERTEX
  5
241
  8
Layer_1
  10
38.031933
  20
158.63449
  0
VERTEX
  5
242
  8
Layer_1
  10
38.298725
  20
158.32574
  0
VERTEX
  5
243
  8
Layer_1
  10
38.614159
  20
158.0596
  0
VERTEX
  5
244
  8
Layer_1
  10
38.974693
  20
157.84285
  0
VERTEX
  5
245
  8
Layer_1
  10
39.330338
  20
157.68642
  0
VERTEX
  5
246
  8
Layer_1
  10
39.690895
  20
157.56841
  0
VERTEX
  5
247
  8
Layer_1
  10
40.055725
  20
157.4863
  0
VERTEX
  5
248
  8
Layer_1
  10
40.424187
  20
157.43761
  0
VERTEX
  5
249
  8
Layer_1
  10
40.795624
  20
157.41977
  0
VERTEX
  5
24a
  8
Layer_1
  10
41.169403
  20
157.43027
  0
VERTEX
  5
24b
  8
Layer_1
  10
41.544868
  20
157.46661
  0
VERTEX
  5
24c
  8
Layer_1
  10
41.921371
  20
157.52628
  0
VERTEX
  5
24d
  8
Layer_1
  10
42.444592
  20
157.65833
  0
VERTEX
  5
24e
  8
Layer_1
  10
42.900223
  20
157.84305
  0
VERTEX
  5
24f
  8
Layer_1
  10
43.289833
  20
158.08134
  0
VERTEX
  5
250
  8
Layer_1
  10
43.615009
  20
158.37407
  0
VERTEX
  5
251
  8
Layer_1
  10
43.877312
  20
158.72211
  0
VERTEX
  5
252
  8
Layer_1
  10
44.07832
  20
159.12634
  0
VERTEX
  5
253
  8
Layer_1
  10
44.219604
  20
159.58766
  0
VERTEX
  5
254
  8
Layer_1
  10
44.302742
  20
160.10692
  0
VERTEX
  5
255
  8
Layer_1
  10
44.322342
  20
160.60931
  0
VERTEX
  5
256
  8
Layer_1
  10
44.274033
  20
161.06738
  0
VERTEX
  5
257
  8
Layer_1
  10
44.156166
  20
161.48303
  0
VERTEX
  5
258
  8
Layer_1
  10
43.967091
  20
161.85814
  0
VERTEX
  5
259
  8
Layer_1
  10
43.705139
  20
162.19463
  0
VERTEX
  5
25a
  8
Layer_1
  10
43.36866
  20
162.4944
  0
VERTEX
  5
25b
  8
Layer_1
  10
42.955994
  20
162.75937
  0
VERTEX
  5
25c
  8
Layer_1
  10
42.465485
  20
162.99141
  0
VERTEX
  5
25d
  8
Layer_1
  10
41.545265
  20
163.32794
  0
VERTEX
  5
25e
  8
Layer_1
  10
40.628227
  20
163.66978
  0
VERTEX
  5
25f
  8
Layer_1
  10
40.36525
  20
163.78246
  0
VERTEX
  5
260
  8
Layer_1
  10
40.111992
  20
163.91466
  0
VERTEX
  5
261
  8
Layer_1
  10
39.869526
  20
164.06573
  0
VERTEX
  5
262
  8
Layer_1
  10
39.638939
  20
164.23509
  0
VERTEX
  5
263
  8
Layer_1
  10
39.482037
  20
164.40829
  0
VERTEX
  5
264
  8
Layer_1
  10
39.366047
  20
164.60831
  0
VERTEX
  5
265
  8
Layer_1
  10
39.294136
  20
164.82803
  0
VERTEX
  5
266
  8
Layer_1
  10
39.269463
  20
165.06046
  0
VERTEX
  5
267
  8
Layer_1
  10
39.294136
  20
165.29285
  0
VERTEX
  5
268
  8
Layer_1
  10
39.366047
  20
165.51259
  0
VERTEX
  5
269
  8
Layer_1
  10
39.482037
  20
165.71259
  0
VERTEX
  5
26a
  8
Layer_1
  10
39.638939
  20
165.8858
  0
VERTEX
  5
26b
  8
Layer_1
  10
39.894386
  20
166.05963
  0
VERTEX
  5
26c
  8
Layer_1
  10
40.200714
  20
166.18513
  0
VERTEX
  5
26d
  8
Layer_1
  10
40.540428
  20
166.26144
  0
VERTEX
  5
26e
  8
Layer_1
  10
40.896042
  20
166.2877
  0
VERTEX
  5
26f
  8
Layer_1
  10
41.250069
  20
166.26302
  0
VERTEX
  5
270
  8
Layer_1
  10
41.585014
  20
166.18649
  0
VERTEX
  5
271
  8
Layer_1
  10
41.883392
  20
166.05728
  0
VERTEX
  5
272
  8
Layer_1
  10
42.127712
  20
165.8745
  0
VERTEX
  5
273
  8
Layer_1
  10
42.265903
  20
165.69868
  0
VERTEX
  5
274
  8
Layer_1
  10
42.374683
  20
165.49292
  0
VERTEX
  5
275
  8
Layer_1
  10
42.465973
  20
165.27231
  0
VERTEX
  5
276
  8
Layer_1
  10
42.551697
  20
165.05197
  0
VERTEX
  5
277
  8
Layer_1
  10
42.588184
  20
164.81381
  0
VERTEX
  5
278
  8
Layer_1
  10
42.589855
  20
164.57288
  0
VERTEX
  5
279
  8
Layer_1
  10
44.020088
  20
164.57288
  0
VERTEX
  5
27a
  8
Layer_1
  10
44.055496
  20
165.07126
  0
VERTEX
  5
27b
  8
Layer_1
  10
44.015053
  20
165.53847
  0
VERTEX
  5
27c
  8
Layer_1
  10
43.901337
  20
165.97015
  0
VERTEX
  5
27d
  8
Layer_1
  10
43.716942
  20
166.36189
  0
VERTEX
  5
27e
  8
Layer_1
  10
43.464439
  20
166.70932
  0
VERTEX
  5
27f
  8
Layer_1
  10
43.14642
  20
167.00804
  0
VERTEX
  5
280
  8
Layer_1
  10
42.765465
  20
167.25366
  0
VERTEX
  5
281
  8
Layer_1
  10
42.324158
  20
167.44182
  0
VERTEX
  5
282
  8
Layer_1
  10
41.976921
  20
167.54498
  0
VERTEX
  5
283
  8
Layer_1
  10
41.624115
  20
167.61801
  0
VERTEX
  5
284
  8
Layer_1
  10
41.267647
  20
167.66098
  0
VERTEX
  5
285
  8
Layer_1
  10
40.909439
  20
167.67386
  0
VERTEX
  5
286
  8
Layer_1
  10
40.551414
  20
167.65668
  0
VERTEX
  5
287
  8
Layer_1
  10
40.195488
  20
167.60944
  0
VERTEX
  5
288
  8
Layer_1
  10
39.843582
  20
167.53217
  0
VERTEX
  5
289
  8
Layer_1
  10
39.497608
  20
167.42487
  0
VERTEX
  5
28a
  8
Layer_1
  10
39.112267
  20
167.26472
  0
VERTEX
  5
28b
  8
Layer_1
  10
38.773834
  20
167.067
  0
VERTEX
  5
28c
  8
Layer_1
  10
38.482834
  20
166.83282
  0
VERTEX
  5
28d
  8
Layer_1
  10
38.239792
  20
166.56329
  0
VERTEX
  5
28e
  8
Layer_1
  10
38.045246
  20
166.25949
  0
VERTEX
  5
28f
  8
Layer_1
  10
37.899723
  20
165.92258
  0
VERTEX
  5
290
  8
Layer_1
  10
37.803753
  20
165.55362
  0
VERTEX
  5
291
  8
Layer_1
  10
37.757866
  20
165.15373
  0
VERTEX
  5
292
  8
Layer_1
  10
37.760719
  20
164.7084
  0
VERTEX
  5
293
  8
Layer_1
  10
37.815147
  20
164.29697
  0
VERTEX
  5
294
  8
Layer_1
  10
37.921581
  20
163.91978
  0
VERTEX
  5
295
  8
Layer_1
  10
38.080452
  20
163.57722
  0
VERTEX
  5
296
  8
Layer_1
  10
38.292183
  20
163.26964
  0
VERTEX
  5
297
  8
Layer_1
  10
38.557209
  20
162.99738
  0
VERTEX
  5
298
  8
Layer_1
  10
38.875961
  20
162.76083
  0
VERTEX
  5
299
  8
Layer_1
  10
39.248871
  20
162.56036
  0
VERTEX
  5
29a
  8
Layer_1
  10
40.023525
  20
162.25032
  0
VERTEX
  5
29b
  8
Layer_1
  10
40.803474
  20
161.95831
  0
VERTEX
  5
29c
  8
Layer_1
  10
41.150833
  20
161.82701
  0
VERTEX
  5
29d
  8
Layer_1
  10
41.499512
  20
161.6965
  0
VERTEX
  5
29e
  8
Layer_1
  10
41.839714
  20
161.5517
  0
VERTEX
  5
29f
  8
Layer_1
  10
42.161633
  20
161.37746
  0
VERTEX
  5
2a0
  8
Layer_1
  10
42.431061
  20
161.15762
  0
VERTEX
  5
2a1
  8
Layer_1
  10
42.632374
  20
160.88086
  0
VERTEX
  5
2a2
  8
Layer_1
  10
42.757317
  20
160.56223
  0
VERTEX
  5
2a3
  8
Layer_1
  10
42.797615
  20
160.21684
  0
VERTEX
  5
2a4
  8
Layer_1
  10
42.748009
  20
159.87268
  0
VERTEX
  5
2a5
  8
Layer_1
  10
42.614517
  20
159.55754
  0
VERTEX
  5
2a6
  8
Layer_1
  10
42.405804
  20
159.28632
  0
VERTEX
  5
2a7
  8
Layer_1
  10
42.130539
  20
159.07382
  0
VERTEX
  5
2a8
  8
Layer_1
  10
41.857346
  20
158.93166
  0
VERTEX
  5
2a9
  8
Layer_1
  10
41.584595
  20
158.82715
  0
VERTEX
  5
2aa
  8
Layer_1
  10
41.314526
  20
158.75912
  0
VERTEX
  5
2ab
  8
Layer_1
  10
41.049366
  20
158.72644
  0
VERTEX
  5
2ac
  8
Layer_1
  10
40.791351
  20
158.72791
  0
VERTEX
  5
2ad
  8
Layer_1
  10
40.542717
  20
158.76236
  0
VERTEX
  5
2ae
  8
Layer_1
  10
40.305702
  20
158.82866
  0
VERTEX
  5
2af
  8
Layer_1
  10
40.082531
  20
158.9256
  0
VERTEX
  5
2b0
  8
Layer_1
  10
39.875443
  20
159.05203
  0
VERTEX
  5
2b1
  8
Layer_1
  10
39.686668
  20
159.20682
  0
VERTEX
  5
2b2
  8
Layer_1
  10
39.518444
  20
159.38876
  0
VERTEX
  5
2b3
  8
Layer_1
  10
39.373001
  20
159.59671
  0
VERTEX
  5
2b4
  8
Layer_1
  10
39.252575
  20
159.82948
  0
VERTEX
  5
2b5
  8
Layer_1
  10
39.159401
  20
160.08594
  0
VERTEX
  5
2b6
  8
Layer_1
  10
39.095711
  20
160.36488
  0
VERTEX
  5
2b7
  8
Layer_1
  10
39.063736
  20
160.66516
  0
VERTEX
  5
2b8
  8
Layer_1
  10
39.038643
  20
160.75381
  0
VERTEX
  5
2b9
  8
Layer_1
  10
39.007202
  20
160.84041
  0
SEQEND
  0
POLYLINE
  5
2bb
  8
Layer_1
  62
221
  70
1
  66
1
  10
0
  20
0
  30
0
  0
VERTEX
  5
2bb
  8
Layer_1
  10
20.709534
  20
153.45322
  0
VERTEX
  5
2bc
  8
Layer_1
  10
20.951027
  20
153.45322
  0
VERTEX
  5
2bd
  8
Layer_1
  10
21.187222
  20
153.45322
  0
VERTEX
  5
2be
  8
Layer_1
  10
21.798767
  20
153.50345
  0
VERTEX
  5
2bf
  8
Layer_1
  10
22.402676
  20
153.60355
  0
VERTEX
  5
2c0
  8
Layer_1
  10
22.996372
  20
153.75146
  0
VERTEX
  5
2c1
  8
Layer_1
  10
23.57729
  20
153.94519
  0
VERTEX
  5
2c2
  8
Layer_1
  10
24.142853
  20
154.18268
  0
VERTEX
  5
2c3
  8
Layer_1
  10
24.690491
  20
154.46194
  0
VERTEX
  5
2c4
  8
Layer_1
  10
25.217636
  20
154.78094
  0
VERTEX
  5
2c5
  8
Layer_1
  10
25.721714
  20
155.13766
  0
VERTEX
  5
2c6
  8
Layer_1
  10
26.200153
  20
155.53006
  0
VERTEX
  5
2c7
  8
Layer_1
  10
26.650383
  20
155.95613
  0
VERTEX
  5
2c8
  8
Layer_1
  10
27.069836
  20
156.41385
  0
VERTEX
  5
2c9
  8
Layer_1
  10
27.455935
  20
156.90118
  0
VERTEX
  5
2ca
  8
Layer_1
  10
27.80611
  20
157.41614
  0
VERTEX
  5
2cb
  8
Layer_1
  10
28.117794
  20
157.95665
  0
VERTEX
  5
2cc
  8
Layer_1
  10
28.388412
  20
158.52072
  0
VERTEX
  5
2cd
  8
Layer_1
  10
28.615395
  20
159.10632
  0
VERTEX
  5
2ce
  8
Layer_1
  10
28.767349
  20
159.61771
  0
VERTEX
  5
2cf
  8
Layer_1
  10
28.88133
  20
160.13199
  0
VERTEX
  5
2d0
  8
Layer_1
  10
28.962818
  20
160.64894
  0
VERTEX
  5
2d1
  8
Layer_1
  10
29.017292
  20
161.16827
  0
VERTEX
  5
2d2
  8
Layer_1
  10
29.067131
  20
162.21304
  0
VERTEX
  5
2d3
  8
Layer_1
  10
29.074707
  20
163.26418
  0
VERTEX
  5
2d4
  8
Layer_1
  10
29.090244
  20
163.63382
  0
VERTEX
  5
2d5
  8
Layer_1
  10
29.13739
  20
163.99556
  0
VERTEX
  5
2d6
  8
Layer_1
  10
29.214897
  20
164.34784
  0
VERTEX
  5
2d7
  8
Layer_1
  10
29.321522
  20
164.68913
  0
VERTEX
  5
2d8
  8
Layer_1
  10
29.456015
  20
165.01791
  0
VERTEX
  5
2d9
  8
Layer_1
  10
29.61713
  20
165.33267
  0
VERTEX
  5
2da
  8
Layer_1
  10
29.803627
  20
165.63184
  0
VERTEX
  5
2db
  8
Layer_1
  10
30.014254
  20
165.91391
  0
VERTEX
  5
2dc
  8
Layer_1
  10
30.247765
  20
166.17734
  0
VERTEX
  5
2dd
  8
Layer_1
  10
30.502918
  20
166.42062
  0
VERTEX
  5
2de
  8
Layer_1
  10
30.778467
  20
166.64221
  0
VERTEX
  5
2df
  8
Layer_1
  10
31.073166
  20
166.84058
  0
VERTEX
  5
2e0
  8
Layer_1
  10
31.385765
  20
167.01418
  0
VERTEX
  5
2e1
  8
Layer_1
  10
31.715019
  20
167.16148
  0
VERTEX
  5
2e2
  8
Layer_1
  10
32.059685
  20
167.28101
  0
VERTEX
  5
2e3
  8
Layer_1
  10
32.418514
  20
167.37115
  0
VERTEX
  5
2e4
  8
Layer_1
  10
32.841087
  20
167.44022
  0
VERTEX
  5
2e5
  8
Layer_1
  10
33.255173
  20
167.49551
  0
VERTEX
  5
2e6
  8
Layer_1
  10
33.255173
  20
168.81976
  0
VERTEX
  5
2e7
  8
Layer_1
  10
33.062084
  20
168.8286
  0
VERTEX
  5
2e8
  8
Layer_1
  10
32.893375
  20
168.83531
  0
VERTEX
  5
2e9
  8
Layer_1
  10
32.467545
  20
168.80225
  0
VERTEX
  5
2ea
  8
Layer_1
  10
32.045929
  20
168.73172
  0
VERTEX
  5
2eb
  8
Layer_1
  10
31.630856
  20
168.62537
  0
VERTEX
  5
2ec
  8
Layer_1
  10
31.224651
  20
168.4848
  0
VERTEX
  5
2ed
  8
Layer_1
  10
30.829643
  20
168.31165
  0
VERTEX
  5
2ee
  8
Layer_1
  10
30.448156
  20
168.10751
  0
VERTEX
  5
2ef
  8
Layer_1
  10
30.08252
  20
167.87402
  0
VERTEX
  5
2f0
  8
Layer_1
  10
29.73506
  20
167.61282
  0
VERTEX
  5
2f1
  8
Layer_1
  10
29.408102
  20
167.3255
  0
VERTEX
  5
2f2
  8
Layer_1
  10
29.103977
  20
167.01373
  0
VERTEX
  5
2f3
  8
Layer_1
  10
28.825008
  20
166.67908
  0
VERTEX
  5
2f4
  8
Layer_1
  10
28.573524
  20
166.3232
  0
VERTEX
  5
2f5
  8
Layer_1
  10
28.351852
  20
165.94771
  0
VERTEX
  5
2f6
  8
Layer_1
  10
28.162315
  20
165.55424
  0
VERTEX
  5
2f7
  8
Layer_1
  10
28.007246
  20
165.14441
  0
VERTEX
  5
2f8
  8
Layer_1
  10
27.888969
  20
164.71985
  0
VERTEX
  5
2f9
  8
Layer_1
  10
27.768223
  20
164.00021
  0
VERTEX
  5
2fa
  8
Layer_1
  10
27.711603
  20
163.26523
  0
VERTEX
  5
2fb
  8
Layer_1
  10
27.691021
  20
162.52335
  0
VERTEX
  5
2fc
  8
Layer_1
  10
27.678391
  20
161.78307
  0
VERTEX
  5
2fd
  8
Layer_1
  10
27.639244
  20
161.14175
  0
VERTEX
  5
2fe
  8
Layer_1
  10
27.54418
  20
160.51593
  0
VERTEX
  5
2ff
  8
Layer_1
  10
27.395561
  20
159.90823
  0
VERTEX
  5
300
  8
Layer_1
  10
27.195745
  20
159.32144
  0
VERTEX
  5
301
  8
Layer_1
  10
26.947094
  20
158.75822
  0
VERTEX
  5
302
  8
Layer_1
  10
26.651966
  20
158.22125
  0
VERTEX
  5
303
  8
Layer_1
  10
26.312719
  20
157.71329
  0
VERTEX
  5
304
  8
Layer_1
  10
25.931715
  20
157.23703
  0
VERTEX
  5
305
  8
Layer_1
  10
25.511312
  20
156.79515
  0
VERTEX
  5
306
  8
Layer_1
  10
25.053867
  20
156.39035
  0
VERTEX
  5
307
  8
Layer_1
  10
24.561745
  20
156.02536
  0
VERTEX
  5
308
  8
Layer_1
  10
24.037298
  20
155.70288
  0
VERTEX
  5
309
  8
Layer_1
  10
23.482891
  20
155.4256
  0
VERTEX
  5
30a
  8
Layer_1
  10
22.900881
  20
155.1962
  0
VERTEX
  5
30b
  8
Layer_1
  10
22.293629
  20
155.01741
  0
VERTEX
  5
30c
  8
Layer_1
  10
21.663494
  20
154.89194
  0
VERTEX
  5
30d
  8
Layer_1
  10
21.290554
  20
154.82997
  0
VERTEX
  5
30e
  8
Layer_1
  10
21.011864
  20
154.76938
  0
VERTEX
  5
30f
  8
Layer_1
  10
20.815685
  20
154.69452
  0
VERTEX
  5
310
  8
Layer_1
  10
20.690277
  20
154.58984
  0
VERTEX
  5
311
  8
Layer_1
  10
20.623896
  20
154.43971
  0
VERTEX
  5
312
  8
Layer_1
  10
20.604797
  20
154.22853
  0
VERTEX
  5
313
  8
Layer_1
  10
20.621243
  20
153.9407
  0
VERTEX
  5
314
  8
Layer_1
  10
20.661484
  20
153.56064
  0
VERTEX
  5
315
  8
Layer_1
  10
20.683399
  20
153.50598
  0
VERTEX
  5
316
  8
Layer_1
  10
20.709534
  20
153.45322
  0
SEQEND
  0
POLYLINE
  5
318
  8
Layer_1
  62
221
  70
1
  66
1
  10
0
  20
0
  30
0
  0
VERTEX
  5
318
  8
Layer_1
  10
33.255173
  20
171.63924
  0
VERTEX
  5
319
  8
Layer_1
  10
33.088234
  20
171.64931
  0
VERTEX
  5
31a
  8
Layer_1
  10
32.945667
  20
171.6562
  0
VERTEX
  5
31b
  8
Layer_1
  10
32.276566
  20
171.60213
  0
VERTEX
  5
31c
  8
Layer_1
  10
31.621235
  20
171.4968
  0
VERTEX
  5
31d
  8
Layer_1
  10
30.981995
  20
171.34201
  0
VERTEX
  5
31e
  8
Layer_1
  10
30.361156
  20
171.13956
  0
VERTEX
  5
31f
  8
Layer_1
  10
29.761038
  20
170.89122
  0
VERTEX
  5
320
  8
Layer_1
  10
29.183952
  20
170.59882
  0
VERTEX
  5
321
  8
Layer_1
  10
28.632221
  20
170.26416
  0
VERTEX
  5
322
  8
Layer_1
  10
28.108158
  20
169.88898
  0
VERTEX
  5
323
  8
Layer_1
  10
27.614079
  20
169.47511
  0
VERTEX
  5
324
  8
Layer_1
  10
27.152298
  20
169.02435
  0
VERTEX
  5
325
  8
Layer_1
  10
26.725132
  20
168.53851
  0
VERTEX
  5
326
  8
Layer_1
  10
26.3349
  20
168.01935
  0
VERTEX
  5
327
  8
Layer_1
  10
25.983917
  20
167.46867
  0
VERTEX
  5
328
  8
Layer_1
  10
25.674498
  20
166.88828
  0
VERTEX
  5
329
  8
Layer_1
  10
25.408958
  20
166.27997
  0
VERTEX
  5
32a
  8
Layer_1
  10
25.189615
  20
165.64554
  0
VERTEX
  5
32b
  8
Layer_1
  10
25.072851
  20
165.19557
  0
VERTEX
  5
32c
  8
Layer_1
  10
24.987408
  20
164.74358
  0
VERTEX
  5
32d
  8
Layer_1
  10
24.928295
  20
164.28978
  0
VERTEX
  5
32e
  8
Layer_1
  10
24.890532
  20
163.83444
  0
VERTEX
  5
32f
  8
Layer_1
  10
24.859108
  20
162.92
  0
VERTEX
  5
330
  8
Layer_1
  10
24.853256
  20
162.00212
  0
VERTEX
  5
331
  8
Layer_1
  10
24.833908
  20
161.58812
  0
VERTEX
  5
332
  8
Layer_1
  10
24.782875
  20
161.18796
  0
VERTEX
  5
333
  8
Layer_1
  10
24.701134
  20
160.80276
  0
VERTEX
  5
334
  8
Layer_1
  10
24.589657
  20
160.43372
  0
VERTEX
  5
335
  8
Layer_1
  10
24.449421
  20
160.08194
  0
VERTEX
  5
336
  8
Layer_1
  10
24.281403
  20
159.7486
  0
VERTEX
  5
337
  8
Layer_1
  10
24.086571
  20
159.43484
  0
VERTEX
  5
338
  8
Layer_1
  10
23.865906
  20
159.14182
  0
VERTEX
  5
339
  8
Layer_1
  10
23.620382
  20
158.87067
  0
VERTEX
  5
33a
  8
Layer_1
  10
23.350975
  20
158.62254
  0
VERTEX
  5
33b
  8
Layer_1
  10
23.058657
  20
158.39859
  0
VERTEX
  5
33c
  8
Layer_1
  10
22.744406
  20
158.19998
  0
VERTEX
  5
33d
  8
Layer_1
  10
22.409195
  20
158.02783
  0
VERTEX
  5
33e
  8
Layer_1
  10
22.054001
  20
157.88332
  0
VERTEX
  5
33f
  8
Layer_1
  10
21.679798
  20
157.76756
  0
VERTEX
  5
340
  8
Layer_1
  10
21.287563
  20
157.68173
  0
VERTEX
  5
341
  8
Layer_1
  10
20.984945
  20
157.63828
  0
VERTEX
  5
342
  8
Layer_1
  10
20.677029
  20
157.60118
  0
VERTEX
  5
343
  8
Layer_1
  10
20.677029
  20
156.25009
  0
VERTEX
  5
344
  8
Layer_1
  10
20.926647
  20
156.24585
  0
VERTEX
  5
345
  8
Layer_1
  10
21.14341
  20
156.25009
  0
VERTEX
  5
346
  8
Layer_1
  10
21.571936
  20
156.3064
  0
VERTEX
  5
347
  8
Layer_1
  10
21.991497
  20
156.39406
  0
VERTEX
  5
348
  8
Layer_1
  10
22.40044
  20
156.51196
  0
VERTEX
  5
349
  8
Layer_1
  10
22.797119
  20
156.65907
  0
VERTEX
  5
34a
  8
Layer_1
  10
23.179886
  20
156.83427
  0
VERTEX
  5
34b
  8
Layer_1
  10
23.547094
  20
157.03648
  0
VERTEX
  5
34c
  8
Layer_1
  10
23.897093
  20
157.26463
  0
VERTEX
  5
34d
  8
Layer_1
  10
24.228235
  20
157.51761
  0
VERTEX
  5
34e
  8
Layer_1
  10
24.538874
  20
157.79437
  0
VERTEX
  5
34f
  8
Layer_1
  10
24.827364
  20
158.09381
  0
VERTEX
  5
350
  8
Layer_1
  10
25.092052
  20
158.41486
  0
VERTEX
  5
351
  8
Layer_1
  10
25.331295
  20
158.75642
  0
VERTEX
  5
352
  8
Layer_1
  10
25.543442
  20
159.1174
  0
VERTEX
  5
353
  8
Layer_1
  10
25.726849
  20
159.49677
  0
VERTEX
  5
354
  8
Layer_1
  10
25.87986
  20
159.89339
  0
VERTEX
  5
355
  8
Layer_1
  10
26.000835
  20
160.30618
  0
VERTEX
  5
356
  8
Layer_1
  10
26.126705
  20
161.00125
  0
VERTEX
  5
357
  8
Layer_1
  10
26.189507
  20
161.71275
  0
VERTEX
  5
358
  8
Layer_1
  10
26.213091
  20
162.43114
  0
VERTEX
  5
359
  8
Layer_1
  10
26.221306
  20
163.14688
  0
VERTEX
  5
35a
  8
Layer_1
  10
26.256195
  20
163.78986
  0
VERTEX
  5
35b
  8
Layer_1
  10
26.341751
  20
164.41527
  0
VERTEX
  5
35c
  8
Layer_1
  10
26.476345
  20
165.02097
  0
VERTEX
  5
35d
  8
Layer_1
  10
26.658339
  20
165.60483
  0
VERTEX
  5
35e
  8
Layer_1
  10
26.886101
  20
166.16473
  0
VERTEX
  5
35f
  8
Layer_1
  10
27.158001
  20
166.69858
  0
VERTEX
  5
360
  8
Layer_1
  10
27.472401
  20
167.20424
  0
VERTEX
  5
361
  8
Layer_1
  10
27.827669
  20
167.6796
  0
VERTEX
  5
362
  8
Layer_1
  10
28.222172
  20
168.12253
  0
VERTEX
  5
363
  8
Layer_1
  10
28.654278
  20
168.53088
  0
VERTEX
  5
364
  8
Layer_1
  10
29.122353
  20
168.90259
  0
VERTEX
  5
365
  8
Layer_1
  10
29.62476
  20
169.23552
  0
VERTEX
  5
366
  8
Layer_1
  10
30.159868
  20
169.52753
  0
VERTEX
  5
367
  8
Layer_1
  10
30.726044
  20
169.77652
  0
VERTEX
  5
368
  8
Layer_1
  10
31.321655
  20
169.98038
  0
VERTEX
  5
369
  8
Layer_1
  10
31.945068
  20
170.13693
  0
VERTEX
  5
36a
  8
Layer_1
  10
32.594643
  20
170.23993
  0
VERTEX
  5
36b
  8
Layer_1
  10
33.253761
  20
170.32065
  0
VERTEX
  5
36c
  8
Layer_1
  10
33.255173
  20
171.63924
  0
SEQEND
  0
POLYLINE
  5
36e
  8
Layer_1
  62
221
  70
1
  66
1
  10
0
  20
0
  30
0
  0
VERTEX
  5
36e
  8
Layer_1
  10
64.785332
  20
162.25792
  0
VERTEX
  5
36f
  8
Layer_1
  10
64.13134
  20
162.19539
  0
VERTEX
  5
370
  8
Layer_1
  10
63.530342
  20
162.13074
  0
VERTEX
  5
371
  8
Layer_1
  10
62.998215
  20
162.04037
  0
VERTEX
  5
372
  8
Layer_1
  10
62.535332
  20
161.90901
  0
VERTEX
  5
373
  8
Layer_1
  10
62.139126
  20
161.73474
  0
VERTEX
  5
374
  8
Layer_1
  10
61.80703
  20
161.51559
  0
VERTEX
  5
375
  8
Layer_1
  10
61.53648
  20
161.24969
  0
VERTEX
  5
376
  8
Layer_1
  10
61.324905
  20
160.93509
  0
VERTEX
  5
377
  8
Layer_1
  10
61.169739
  20
160.56989
  0
VERTEX
  5
378
  8
Layer_1
  10
61.068417
  20
160.15215
  0
VERTEX
  5
379
  8
Layer_1
  10
61.027935
  20
159.83681
  0
VERTEX
  5
37a
  8
Layer_1
  10
61.015671
  20
159.53603
  0
VERTEX
  5
37b
  8
Layer_1
  10
61.030807
  20
159.25092
  0
VERTEX
  5
37c
  8
Layer_1
  10
61.072544
  20
158.9826
  0
VERTEX
  5
37d
  8
Layer_1
  10
61.140076
  20
158.73224
  0
VERTEX
  5
37e
  8
Layer_1
  10
61.232597
  20
158.50095
  0
VERTEX
  5
37f
  8
Layer_1
  10
61.349308
  20
158.28984
  0
VERTEX
  5
380
  8
Layer_1
  10
61.489395
  20
158.10007
  0
VERTEX
  5
381
  8
Layer_1
  10
61.652054
  20
157.93277
  0
VERTEX
  5
382
  8
Layer_1
  10
61.836487
  20
157.78903
  0
VERTEX
  5
383
  8
Layer_1
  10
62.041878
  20
157.67001
  0
VERTEX
  5
384
  8
Layer_1
  10
62.267426
  20
157.57684
  0
VERTEX
  5
385
  8
Layer_1
  10
62.512329
  20
157.51067
  0
VERTEX
  5
386
  8
Layer_1
  10
62.775776
  20
157.47258
  0
VERTEX
  5
387
  8
Layer_1
  10
63.056969
  20
157.46375
  0
VERTEX
  5
388
  8
Layer_1
  10
63.355095
  20
157.48529
  0
VERTEX
  5
389
  8
Layer_1
  10
63.762894
  20
157.58017
  0
VERTEX
  5
38a
  8
Layer_1
  10
64.167908
  20
157.74182
  0
VERTEX
  5
38b
  8
Layer_1
  10
64.579544
  20
157.93526
  0
VERTEX
  5
38c
  8
Layer_1
  10
65.007217
  20
158.1255
  0
VERTEX
  5
38d
  8
Layer_1
  10
65.108887
  20
157.99471
  0
VERTEX
  5
38e
  8
Layer_1
  10
65.219208
  20
157.87112
  0
VERTEX
  5
38f
  8
Layer_1
  10
65.377869
  20
157.7401
  0
VERTEX
  5
390
  8
Layer_1
  10
65.563736
  20
157.63428
  0
VERTEX
  5
391
  8
Layer_1
  10
65.769272
  20
157.55534
  0
VERTEX
  5
392
  8
Layer_1
  10
65.986961
  20
157.50491
  0
VERTEX
  5
393
  8
Layer_1
  10
66.209297
  20
157.48462
  0
VERTEX
  5
394
  8
Layer_1
  10
66.428749
  20
157.49609
  0
VERTEX
  5
395
  8
Layer_1
  10
66.637794
  20
157.541
  0
VERTEX
  5
396
  8
Layer_1
  10
66.828926
  20
157.62097
  0
VERTEX
  5
397
  8
Layer_1
  10
66.953987
  20
157.71347
  0
VERTEX
  5
398
  8
Layer_1
  10
67.026497
  20
157.8194
  0
VERTEX
  5
399
  8
Layer_1
  10
67.058304
  20
157.93571
  0
VERTEX
  5
39a
  8
Layer_1
  10
67.061234
  20
158.05943
  0
VERTEX
  5
39b
  8
Layer_1
  10
67.027863
  20
158.31697
  0
VERTEX
  5
39c
  8
Layer_1
  10
67.021133
  20
158.56787
  0
VERTEX
  5
39d
  8
Layer_1
  10
67.00576
  20
158.60707
  0
VERTEX
  5
39e
  8
Layer_1
  10
66.978729
  20
158.64842
  0
VERTEX
  5
39f
  8
Layer_1
  10
66.71936
  20
158.69347
  0
VERTEX
  5
3a0
  8
Layer_1
  10
66.524429
  20
158.7377
  0
VERTEX
  5
3a1
  8
Layer_1
  10
66.384712
  20
158.79263
  0
VERTEX
  5
3a2
  8
Layer_1
  10
66.290993
  20
158.86978
  0
VERTEX
  5
3a3
  8
Layer_1
  10
66.234039
  20
158.98065
  0
VERTEX
  5
3a4
  8
Layer_1
  10
66.204628
  20
159.13673
  0
VERTEX
  5
3a5
  8
Layer_1
  10
66.193535
  20
159.34956
  0
VERTEX
  5
3a6
  8
Layer_1
  10
66.191536
  20
159.63065
  0
VERTEX
  5
3a7
  8
Layer_1
  10
66.195778
  20
161.51862
  0
VERTEX
  5
3a8
  8
Layer_1
  10
66.18306
  20
163.4055
  0
VERTEX
  5
3a9
  8
Layer_1
  10
66.146149
  20
163.80113
  0
VERTEX
  5
3aa
  8
Layer_1
  10
66.051804
  20
164.1586
  0
VERTEX
  5
3ab
  8
Layer_1
  10
65.902336
  20
164.47552
  0
VERTEX
  5
3ac
  8
Layer_1
  10
65.700073
  20
164.74953
  0
VERTEX
  5
3ad
  8
Layer_1
  10
65.447327
  20
164.97821
  0
VERTEX
  5
3ae
  8
Layer_1
  10
65.146423
  20
165.15919
  0
VERTEX
  5
3af
  8
Layer_1
  10
64.799675
  20
165.2901
  0
VERTEX
  5
3b0
  8
Layer_1
  10
64.409401
  20
165.36855
  0
VERTEX
  5
3b1
  8
Layer_1
  10
63.836319
  20
165.40352
  0
VERTEX
  5
3b2
  8
Layer_1
  10
63.263237
  20
165.36855
  0
VERTEX
  5
3b3
  8
Layer_1
  10
62.822235
  20
165.2766
  0
VERTEX
  5
3b4
  8
Layer_1
  10
62.429604
  20
165.12192
  0
VERTEX
  5
3b5
  8
Layer_1
  10
62.089745
  20
164.90974
  0
VERTEX
  5
3b6
  8
Layer_1
  10
61.807037
  20
164.64529
  0
VERTEX
  5
3b7
  8
Layer_1
  10
61.585873
  20
164.3338
  0
VERTEX
  5
3b8
  8
Layer_1
  10
61.430641
  20
163.98053
  0
VERTEX
  5
3b9
  8
Layer_1
  10
61.34573
  20
163.59067
  0
VERTEX
  5
3ba
  8
Layer_1
  10
61.335529
  20
163.16948
  0
VERTEX
  5
3bb
  8
Layer_1
  10
61.360527
  20
163.0679
  0
VERTEX
  5
3bc
  8
Layer_1
  10
61.413612
  20
162.96103
  0
VERTEX
  5
3bd
  8
Layer_1
  10
61.48101
  20
162.87535
  0
VERTEX
  5
3be
  8
Layer_1
  10
61.548935
  20
162.83737
  0
VERTEX
  5
3bf
  8
Layer_1
  10
62.111061
  20
162.81511
  0
VERTEX
  5
3c0
  8
Layer_1
  10
62.679554
  20
162.8204
  0
VERTEX
  5
3c1
  8
Layer_1
  10
62.701988
  20
162.97411
  0
VERTEX
  5
3c2
  8
Layer_1
  10
62.714886
  20
163.0748
  0
VERTEX
  5
3c3
  8
Layer_1
  10
62.75351
  20
163.34666
  0
VERTEX
  5
3c4
  8
Layer_1
  10
62.817459
  20
163.57607
  0
VERTEX
  5
3c5
  8
Layer_1
  10
62.908333
  20
163.76453
  0
VERTEX
  5
3c6
  8
Layer_1
  10
63.027748
  20
163.91357
  0
VERTEX
  5
3c7
  8
Layer_1
  10
63.177307
  20
164.02472
  0
VERTEX
  5
3c8
  8
Layer_1
  10
63.358612
  20
164.0995
  0
VERTEX
  5
3c9
  8
Layer_1
  10
63.573273
  20
164.13943
  0
VERTEX
  5
3ca
  8
Layer_1
  10
63.822895
  20
164.14606
  0
VERTEX
  5
3cb
  8
Layer_1
  10
64.069046
  20
164.12315
  0
VERTEX
  5
3cc
  8
Layer_1
  10
64.274017
  20
164.07175
  0
VERTEX
  5
3cd
  8
Layer_1
  10
64.44046
  20
163.98917
  0
VERTEX
  5
3ce
  8
Layer_1
  10
64.571045
  20
163.87277
  0
VERTEX
  5
3cf
  8
Layer_1
  10
64.668442
  20
163.71985
  0
VERTEX
  5
3d0
  8
Layer_1
  10
64.735321
  20
163.52777
  0
VERTEX
  5
3d1
  8
Layer_1
  10
64.774338
  20
163.29385
  0
VERTEX
  5
3d2
  8
Layer_1
  10
64.788155
  20
163.01544
  0
VERTEX
  5
3d3
  8
Layer_1
  10
64.786217
  20
162.65205
  0
VERTEX
  5
3d4
  8
Layer_1
  10
64.785332
  20
162.25792
  0
SEQEND
  0
POLYLINE
  5
3d6
  8
Layer_1
  62
221
  70
1
  66
1
  10
0
  20
0
  30
0
  0
VERTEX
  5
3d6
  8
Layer_1
  10
89.738106
  20
167.9718
  0
VERTEX
  5
3d7
  8
Layer_1
  10
89.738106
  20
157.63086
  0
VERTEX
  5
3d8
  8
Layer_1
  10
91.106155
  20
157.63086
  0
VERTEX
  5
3d9
  8
Layer_1
  10
91.119049
  20
158.6463
  0
VERTEX
  5
3da
  8
Layer_1
  10
91.094856
  20
159.62782
  0
VERTEX
  5
3db
  8
Layer_1
  10
91.093903
  20
159.82852
  0
VERTEX
  5
3dc
  8
Layer_1
  10
91.121422
  20
160.00865
  0
VERTEX
  5
3dd
  8
Layer_1
  10
91.17527
  20
160.17123
  0
VERTEX
  5
3de
  8
Layer_1
  10
91.253311
  20
160.31927
  0
VERTEX
  5
3df
  8
Layer_1
  10
91.473457
  20
160.58377
  0
VERTEX
  5
3e0
  8
Layer_1
  10
91.764748
  20
160.82628
  0
VERTEX
  5
3e1
  8
Layer_1
  10
92.49205
  20
159.37714
  0
VERTEX
  5
3e2
  8
Layer_1
  10
93.216179
  20
157.95026
  0
VERTEX
  5
3e3
  8
Layer_1
  10
93.274651
  20
157.84241
  0
VERTEX
  5
3e4
  8
Layer_1
  10
93.344788
  20
157.73402
  0
VERTEX
  5
3e5
  8
Layer_1
  10
93.42128
  20
157.64899
  0
VERTEX
  5
3e6
  8
Layer_1
  10
93.498833
  20
157.61108
  0
VERTEX
  5
3e7
  8
Layer_1
  10
94.207588
  20
157.58954
  0
VERTEX
  5
3e8
  8
Layer_1
  10
94.971458
  20
157.59554
  0
VERTEX
  5
3e9
  8
Layer_1
  10
93.86187
  20
159.70113
  0
VERTEX
  5
3ea
  8
Layer_1
  10
92.780891
  20
161.7336
  0
VERTEX
  5
3eb
  8
Layer_1
  10
92.707115
  20
161.89209
  0
VERTEX
  5
3ec
  8
Layer_1
  10
92.689972
  20
162.06152
  0
VERTEX
  5
3ed
  8
Layer_1
  10
92.728531
  20
162.2274
  0
VERTEX
  5
3ee
  8
Layer_1
  10
92.821877
  20
162.37523
  0
VERTEX
  5
3ef
  8
Layer_1
  10
93.636978
  20
163.49524
  0
VERTEX
  5
3f0
  8
Layer_1
  10
94.441483
  20
164.62375
  0
VERTEX
  5
3f1
  8
Layer_1
  10
94.631218
  20
164.90109
  0
VERTEX
  5
3f2
  8
Layer_1
  10
94.865463
  20
165.24841
  0
VERTEX
  5
3f3
  8
Layer_1
  10
94.386353
  20
165.23526
  0
VERTEX
  5
3f4
  8
Layer_1
  10
93.907265
  20
165.24841
  0
VERTEX
  5
3f5
  8
Layer_1
  10
93.608459
  20
165.24495
  0
VERTEX
  5
3f6
  8
Layer_1
  10
93.361206
  20
165.15921
  0
VERTEX
  5
3f7
  8
Layer_1
  10
93.153435
  20
164.9958
  0
VERTEX
  5
3f8
  8
Layer_1
  10
92.973091
  20
164.75941
  0
VERTEX
  5
3f9
  8
Layer_1
  10
92.211159
  20
163.63127
  0
VERTEX
  5
3fa
  8
Layer_1
  10
91.426964
  20
162.51796
  0
VERTEX
  5
3fb
  8
Layer_1
  10
91.298004
  20
162.3602
  0
VERTEX
  5
3fc
  8
Layer_1
  10
91.103325
  20
162.14203
  0
VERTEX
  5
3fd
  8
Layer_1
  10
91.103325
  20
167.9718
  0
VERTEX
  5
3fe
  8
Layer_1
  10
89.738106
  20
167.9718
  0
SEQEND
  0
POLYLINE
  5
400
  8
Layer_1
  62
221
  70
1
  66
1
  10
0
  20
0
  30
0
  0
VERTEX
  5
400
  8
Layer_1
  10
84.61499
  20
161.39017
  0
VERTEX
  5
401
  8
Layer_1
  10
84.502319
  20
162.00517
  0
VERTEX
  5
402
  8
Layer_1
  10
84.396286
  20
162.61832
  0
VERTEX
  5
403
  8
Layer_1
  10
84.272751
  20
163.22298
  0
VERTEX
  5
404
  8
Layer_1
  10
84.10762
  20
163.81253
  0
VERTEX
  5
405
  8
Layer_1
  10
83.947693
  20
164.19733
  0
VERTEX
  5
406
  8
Layer_1
  10
83.745331
  20
164.52592
  0
VERTEX
  5
407
  8
Layer_1
  10
83.501709
  20
164.79973
  0
VERTEX
  5
408
  8
Layer_1
  10
83.217964
  20
165.02017
  0
VERTEX
  5
409
  8
Layer_1
  10
82.895264
  20
165.18866
  0
VERTEX
  5
40a
  8
Layer_1
  10
82.534782
  20
165.30667
  0
VERTEX
  5
40b
  8
Layer_1
  10
82.137657
  20
165.37558
  0
VERTEX
  5
40c
  8
Layer_1
  10
81.705063
  20
165.3968
  0
VERTEX
  5
40d
  8
Layer_1
  10
81.286575
  20
165.37234
  0
VERTEX
  5
40e
  8
Layer_1
  10
80.901039
  20
165.29866
  0
VERTEX
  5
40f
  8
Layer_1
  10
80.549622
  20
165.17529
  0
VERTEX
  5
410
  8
Layer_1
  10
80.233482
  20
165.0018
  0
VERTEX
  5
411
  8
Layer_1
  10
79.953781
  20
164.77768
  0
VERTEX
  5
412
  8
Layer_1
  10
79.711678
  20
164.50247
  0
VERTEX
  5
413
  8
Layer_1
  10
79.508331
  20
164.17572
  0
VERTEX
  5
414
  8
Layer_1
  10
79.344894
  20
163.79698
  0
VERTEX
  5
415
  8
Layer_1
  10
79.160347
  20
163.21228
  0
VERTEX
  5
416
  8
Layer_1
  10
79.028526
  20
162.61708
  0
VERTEX
  5
417
  8
Layer_1
  10
78.949432
  20
162.01492
  0
VERTEX
  5
418
  8
Layer_1
  10
78.923065
  20
161.40924
  0
VERTEX
  5
419
  8
Layer_1
  10
78.949432
  20
160.80359
  0
VERTEX
  5
41a
  8
Layer_1
  10
79.028526
  20
160.20142
  0
VERTEX
  5
41b
  8
Layer_1
  10
79.160347
  20
159.60623
  0
VERTEX
  5
41c
  8
Layer_1
  10
79.344894
  20
159.02153
  0
VERTEX
  5
41d
  8
Layer_1
  10
79.511292
  20
158.6422
  0
VERTEX
  5
41e
  8
Layer_1
  10
79.718437
  20
158.31659
  0
VERTEX
  5
41f
  8
Layer_1
  10
79.965454
  20
158.04388
  0
VERTEX
  5
420
  8
Layer_1
  10
80.251503
  20
157.82324
  0
VERTEX
  5
421
  8
Layer_1
  10
80.575706
  20
157.65381
  0
VERTEX
  5
422
  8
Layer_1
  10
80.93721
  20
157.53473
  0
VERTEX
  5
423
  8
Layer_1
  10
81.335136
  20
157.46518
  0
VERTEX
  5
424
  8
Layer_1
  10
81.768646
  20
157.44431
  0
VERTEX
  5
425
  8
Layer_1
  10
82.190826
  20
157.47032
  0
VERTEX
  5
426
  8
Layer_1
  10
82.578918
  20
157.54379
  0
VERTEX
  5
427
  8
Layer_1
  10
82.931656
  20
157.66579
  0
VERTEX
  5
428
  8
Layer_1
  10
83.247818
  20
157.83737
  0
VERTEX
  5
429
  8
Layer_1
  10
83.526154
  20
158.05965
  0
VERTEX
  5
42a
  8
Layer_1
  10
83.765411
  20
158.33368
  0
VERTEX
  5
42b
  8
Layer_1
  10
83.964355
  20
158.66054
  0
VERTEX
  5
42c
  8
Layer_1
  10
84.12175
  20
159.04131
  0
VERTEX
  5
42d
  8
Layer_1
  10
84.278519
  20
159.60844
  0
VERTEX
  5
42e
  8
Layer_1
  10
84.397522
  20
160.19083
  0
VERTEX
  5
42f
  8
Layer_1
  10
84.501953
  20
160.78568
  0
VERTEX
  5
430
  8
Layer_1
  10
84.61499
  20
161.39017
  0
SEQEND
  0
POLYLINE
  5
432
  8
Layer_1
  62
221
  70
1
  66
1
  10
0
  20
0
  30
0
  0
VERTEX
  5
432
  8
Layer_1
  10
56.324059
  20
157.64075
  0
VERTEX
  5
433
  8
Layer_1
  10
56.318935
  20
159.85287
  0
VERTEX
  5
434
  8
Layer_1
  10
56.33395
  20
162.05017
  0
VERTEX
  5
435
  8
Layer_1
  10
56.352203
  20
162.3819
  0
VERTEX
  5
436
  8
Layer_1
  10
56.397354
  20
162.71051
  0
VERTEX
  5
437
  8
Layer_1
  10
56.469093
  20
163.03436
  0
VERTEX
  5
438
  8
Layer_1
  10
56.567142
  20
163.35181
  0
VERTEX
  5
439
  8
Layer_1
  10
56.664692
  20
163.56459
  0
VERTEX
  5
43a
  8
Layer_1
  10
56.786552
  20
163.74469
  0
VERTEX
  5
43b
  8
Layer_1
  10
56.929348
  20
163.89162
  0
VERTEX
  5
43c
  8
Layer_1
  10
57.089699
  20
164.00491
  0
VERTEX
  5
43d
  8
Layer_1
  10
57.264229
  20
164.08409
  0
VERTEX
  5
43e
  8
Layer_1
  10
57.449554
  20
164.12868
  0
VERTEX
  5
43f
  8
Layer_1
  10
57.6423
  20
164.13818
  0
VERTEX
  5
440
  8
Layer_1
  10
57.839088
  20
164.11214
  0
VERTEX
  5
441
  8
Layer_1
  10
58.01318
  20
164.06152
  0
VERTEX
  5
442
  8
Layer_1
  10
58.159149
  20
163.99033
  0
VERTEX
  5
443
  8
Layer_1
  10
58.278557
  20
163.89566
  0
VERTEX
  5
444
  8
Layer_1
  10
58.372952
  20
163.77455
  0
VERTEX
  5
445
  8
Layer_1
  10
58.443901
  20
163.62411
  0
VERTEX
  5
446
  8
Layer_1
  10
58.49295
  20
163.44139
  0
VERTEX
  5
447
  8
Layer_1
  10
58.521667
  20
163.22346
  0
VERTEX
  5
448
  8
Layer_1
  10
58.531593
  20
162.96739
  0
VERTEX
  5
449
  8
Layer_1
  10
58.531593
  20
160.55615
  0
VERTEX
  5
44a
  8
Layer_1
  10
58.531593
  20
158.14388
  0
VERTEX
  5
44b
  8
Layer_1
  10
58.531593
  20
157.58847
  0
VERTEX
  5
44c
  8
Layer_1
  10
59.053795
  20
157.59378
  0
VERTEX
  5
44d
  8
Layer_1
  10
59.533604
  20
157.58847
  0
VERTEX
  5
44e
  8
Layer_1
  10
59.727242
  20
157.60245
  0
VERTEX
  5
44f
  8
Layer_1
  10
59.846825
  20
157.66849
  0
VERTEX
  5
450
  8
Layer_1
  10
59.90625
  20
157.79099
  0
VERTEX
  5
451
  8
Layer_1
  10
59.91943
  20
157.97429
  0
VERTEX
  5
452
  8
Layer_1
  10
59.913601
  20
158.92914
  0
VERTEX
  5
453
  8
Layer_1
  10
59.91943
  20
159.88504
  0
VERTEX
  5
454
  8
Layer_1
  10
59.902645
  20
161.79295
  0
VERTEX
  5
455
  8
Layer_1
  10
59.857243
  20
163.70088
  0
VERTEX
  5
456
  8
Layer_1
  10
59.832672
  20
163.96085
  0
VERTEX
  5
457
  8
Layer_1
  10
59.779404
  20
164.20863
  0
VERTEX
  5
458
  8
Layer_1
  10
59.696289
  20
164.44113
  0
VERTEX
  5
459
  8
Layer_1
  10
59.582184
  20
164.65518
  0
VERTEX
  5
45a
  8
Layer_1
  10
59.435951
  20
164.84766
  0
VERTEX
  5
45b
  8
Layer_1
  10
59.256447
  20
165.01537
  0
VERTEX
  5
45c
  8
Layer_1
  10
59.042526
  20
165.15518
  0
VERTEX
  5
45d
  8
Layer_1
  10
58.793049
  20
165.26396
  0
VERTEX
  5
45e
  8
Layer_1
  10
58.496037
  20
165.35049
  0
VERTEX
  5
45f
  8
Layer_1
  10
58.201393
  20
165.40402
  0
VERTEX
  5
460
  8
Layer_1
  10
57.910164
  20
165.42227
  0
VERTEX
  5
461
  8
Layer_1
  10
57.62339
  20
165.40298
  0
VERTEX
  5
462
  8
Layer_1
  10
57.34211
  20
165.34387
  0
VERTEX
  5
463
  8
Layer_1
  10
57.067375
  20
165.24269
  0
VERTEX
  5
464
  8
Layer_1
  10
56.800224
  20
165.09714
  0
VERTEX
  5
465
  8
Layer_1
  10
56.541702
  20
164.90498
  0
VERTEX
  5
466
  8
Layer_1
  10
56.370167
  20
164.75342
  0
VERTEX
  5
467
  8
Layer_1
  10
56.186974
  20
164.58701
  0
VERTEX
  5
468
  8
Layer_1
  10
56.150604
  20
164.67511
  0
VERTEX
  5
469
  8
Layer_1
  10
56.119137
  20
164.76508
  0
VERTEX
  5
46a
  8
Layer_1
  10
56.074898
  20
164.93384
  0
VERTEX
  5
46b
  8
Layer_1
  10
56.025703
  20
165.06345
  0
VERTEX
  5
46c
  8
Layer_1
  10
55.964886
  20
165.15808
  0
VERTEX
  5
46d
  8
Layer_1
  10
55.885769
  20
165.22192
  0
VERTEX
  5
46e
  8
Layer_1
  10
55.781677
  20
165.25911
  0
VERTEX
  5
46f
  8
Layer_1
  10
55.645927
  20
165.27386
  0
VERTEX
  5
470
  8
Layer_1
  10
55.471863
  20
165.27032
  0
VERTEX
  5
471
  8
Layer_1
  10
55.252796
  20
165.25266
  0
VERTEX
  5
472
  8
Layer_1
  10
55.107075
  20
165.22299
  0
VERTEX
  5
473
  8
Layer_1
  10
55.011284
  20
165.17014
  0
VERTEX
  5
474
  8
Layer_1
  10
54.956001
  20
165.09895
  0
VERTEX
  5
475
  8
Layer_1
  10
54.931808
  20
165.01434
  0
VERTEX
  5
476
  8
Layer_1
  10
54.938984
  20
164.82437
  0
VERTEX
  5
477
  8
Layer_1
  10
54.957424
  20
164.6393
  0
VERTEX
  5
478
  8
Layer_1
  10
54.947884
  20
161.67618
  0
VERTEX
  5
479
  8
Layer_1
  10
54.948944
  20
158.71626
  0
VERTEX
  5
47a
  8
Layer_1
  10
54.950027
  20
158.49416
  0
VERTEX
  5
47b
  8
Layer_1
  10
54.953018
  20
158.30005
  0
VERTEX
  5
47c
  8
Layer_1
  10
54.959946
  20
158.13239
  0
VERTEX
  5
47d
  8
Layer_1
  10
54.972816
  20
157.98956
  0
VERTEX
  5
47e
  8
Layer_1
  10
55.024441
  20
157.77216
  0
VERTEX
  5
47f
  8
Layer_1
  10
55.124012
  20
157.63528
  0
VERTEX
  5
480
  8
Layer_1
  10
55.287643
  20
157.56631
  0
VERTEX
  5
481
  8
Layer_1
  10
55.531452
  20
157.55263
  0
VERTEX
  5
482
  8
Layer_1
  10
55.688461
  20
157.56259
  0
VERTEX
  5
483
  8
Layer_1
  10
55.871552
  20
157.58163
  0
VERTEX
  5
484
  8
Layer_1
  10
56.082748
  20
157.60822
  0
VERTEX
  5
485
  8
Layer_1
  10
56.324059
  20
157.64075
  0
SEQEND
  0
POLYLINE
  5
487
  8
Layer_1
  62
221
  70
1
  66
1
  10
0
  20
0
  30
0
  0
VERTEX
  5
487
  8
Layer_1
  10
100.06491
  20
162.88542
  0
VERTEX
  5
488
  8
Layer_1
  10
100.04152
  20
163.1649
  0
VERTEX
  5
489
  8
Layer_1
  10
100.02304
  20
163.43483
  0
VERTEX
  5
48a
  8
Layer_1
  10
99.994751
  20
163.69469
  0
VERTEX
  5
48b
  8
Layer_1
  10
99.941956
  20
163.94395
  0
VERTEX
  5
48c
  8
Layer_1
  10
99.802727
  20
164.31064
  0
VERTEX
  5
48d
  8
Layer_1
  10
99.610878
  20
164.62489
  0
VERTEX
  5
48e
  8
Layer_1
  10
99.368118
  20
164.88629
  0
VERTEX
  5
48f
  8
Layer_1
  10
99.076149
  20
165.09436
  0
VERTEX
  5
490
  8
Layer_1
  10
98.736679
  20
165.24866
  0
VERTEX
  5
491
  8
Layer_1
  10
98.351425
  20
165.34868
  0
VERTEX
  5
492
  8
Layer_1
  10
97.922073
  20
165.39398
  0
VERTEX
  5
493
  8
Layer_1
  10
97.450356
  20
165.38409
  0
VERTEX
  5
494
  8
Layer_1
  10
97.069183
  20
165.32852
  0
VERTEX
  5
495
  8
Layer_1
  10
96.717018
  20
165.22241
  0
VERTEX
  5
496
  8
Layer_1
  10
96.397934
  20
165.06909
  0
VERTEX
  5
497
  8
Layer_1
  10
96.116043
  20
164.87195
  0
VERTEX
  5
498
  8
Layer_1
  10
95.87542
  20
164.63432
  0
VERTEX
  5
499
  8
Layer_1
  10
95.680153
  20
164.35959
  0
VERTEX
  5
49a
  8
Layer_1
  10
95.534348
  20
164.05109
  0
VERTEX
  5
49b
  8
Layer_1
  10
95.442085
  20
163.71219
  0
VERTEX
  5
49c
  8
Layer_1
  10
95.388626
  20
163.27811
  0
VERTEX
  5
49d
  8
Layer_1
  10
95.393921
  20
162.87971
  0
VERTEX
  5
49e
  8
Layer_1
  10
95.458412
  20
162.51649
  0
VERTEX
  5
49f
  8
Layer_1
  10
95.582535
  20
162.18796
  0
VERTEX
  5
4a0
  8
Layer_1
  10
95.766739
  20
161.8936
  0
VERTEX
  5
4a1
  8
Layer_1
  10
96.011475
  20
161.63293
  0
VERTEX
  5
4a2
  8
Layer_1
  10
96.3172
  20
161.40547
  0
VERTEX
  5
4a3
  8
Layer_1
  10
96.684349
  20
161.21069
  0
VERTEX
  5
4a4
  8
Layer_1
  10
97.392578
  20
160.92061
  0
VERTEX
  5
4a5
  8
Layer_1
  10
98.097626
  20
160.62418
  0
VERTEX
  5
4a6
  8
Layer_1
  10
98.295227
  20
160.51372
  0
VERTEX
  5
4a7
  8
Layer_1
  10
98.458694
  20
160.38577
  0
VERTEX
  5
4a8
  8
Layer_1
  10
98.587936
  20
160.24179
  0
VERTEX
  5
4a9
  8
Layer_1
  10
98.682892
  20
160.08325
  0
VERTEX
  5
4aa
  8
Layer_1
  10
98.743462
  20
159.91158
  0
VERTEX
  5
4ab
  8
Layer_1
  10
98.769569
  20
159.72824
  0
VERTEX
  5
4ac
  8
Layer_1
  10
98.761131
  20
159.5347
  0
VERTEX
  5
4ad
  8
Layer_1
  10
98.718056
  20
159.33244
  0
VERTEX
  5
4ae
  8
Layer_1
  10
98.65535
  20
159.17355
  0
VERTEX
  5
4af
  8
Layer_1
  10
98.568031
  20
159.03468
  0
VERTEX
  5
4b0
  8
Layer_1
  10
98.457863
  20
158.91687
  0
VERTEX
  5
4b1
  8
Layer_1
  10
98.326584
  20
158.8212
  0
VERTEX
  5
4b2
  8
Layer_1
  10
98.175964
  20
158.7487
  0
VERTEX
  5
4b3
  8
Layer_1
  10
98.007751
  20
158.70044
  0
VERTEX
  5
4b4
  8
Layer_1
  10
97.823715
  20
158.67749
  0
VERTEX
  5
4b5
  8
Layer_1
  10
97.625595
  20
158.68092
  0
VERTEX
  5
4b6
  8
Layer_1
  10
97.430405
  20
158.71252
  0
VERTEX
  5
4b7
  8
Layer_1
  10
97.2547
  20
158.77281
  0
VERTEX
  5
4b8
  8
Layer_1
  10
97.099525
  20
158.86096
  0
VERTEX
  5
4b9
  8
Layer_1
  10
96.96595
  20
158.97612
  0
VERTEX
  5
4ba
  8
Layer_1
  10
96.855034
  20
159.11745
  0
VERTEX
  5
4bb
  8
Layer_1
  10
96.76783
  20
159.28412
  0
VERTEX
  5
4bc
  8
Layer_1
  10
96.705399
  20
159.47525
  0
VERTEX
  5
4bd
  8
Layer_1
  10
96.668808
  20
159.69
  0
VERTEX
  5
4be
  8
Layer_1
  10
96.646904
  20
159.89777
  0
VERTEX
  5
4bf
  8
Layer_1
  10
96.624992
  20
160.10551
  0
VERTEX
  5
4c0
  8
Layer_1
  10
95.272491
  20
160.10551
  0
VERTEX
  5
4c1
  8
Layer_1
  10
95.219147
  20
159.70078
  0
VERTEX
  5
4c2
  8
Layer_1
  10
95.238403
  20
159.30289
  0
VERTEX
  5
4c3
  8
Layer_1
  10
95.32576
  20
158.92163
  0
VERTEX
  5
4c4
  8
Layer_1
  10
95.476715
  20
158.5668
  0
VERTEX
  5
4c5
  8
Layer_1
  10
95.686768
  20
158.24814
  0
VERTEX
  5
4c6
  8
Layer_1
  10
95.951401
  20
157.9754
  0
VERTEX
  5
4c7
  8
Layer_1
  10
96.266121
  20
157.75838
  0
VERTEX
  5
4c8
  8
Layer_1
  10
96.626411
  20
157.60684
  0
VERTEX
  5
4c9
  8
Layer_1
  10
96.963593
  20
157.52963
  0
VERTEX
  5
4ca
  8
Layer_1
  10
97.305374
  20
157.48021
  0
VERTEX
  5
4cb
  8
Layer_1
  10
97.65004
  20
157.45879
  0
VERTEX
  5
4cc
  8
Layer_1
  10
97.995872
  20
157.46552
  0
VERTEX
  5
4cd
  8
Layer_1
  10
98.425545
  20
157.51138
  0
VERTEX
  5
4ce
  8
Layer_1
  10
98.811676
  20
157.61256
  0
VERTEX
  5
4cf
  8
Layer_1
  10
99.152985
  20
157.76685
  0
VERTEX
  5
4d0
  8
Layer_1
  10
99.448196
  20
157.972
  0
VERTEX
  5
4d1
  8
Layer_1
  10
99.696045
  20
158.22586
  0
VERTEX
  5
4d2
  8
Layer_1
  10
99.895248
  20
158.52618
  0
VERTEX
  5
4d3
  8
Layer_1
  10
100.04454
  20
158.87082
  0
VERTEX
  5
4d4
  8
Layer_1
  10
100.14264
  20
159.25754
  0
VERTEX
  5
4d5
  8
Layer_1
  10
100.19638
  20
159.72495
  0
VERTEX
  5
4d6
  8
Layer_1
  10
100.18676
  20
160.1543
  0
VERTEX
  5
4d7
  8
Layer_1
  10
100.11347
  20
160.54576
  0
VERTEX
  5
4d8
  8
Layer_1
  10
99.976227
  20
160.8996
  0
VERTEX
  5
4d9
  8
Layer_1
  10
99.774719
  20
161.216
  0
VERTEX
  5
4da
  8
Layer_1
  10
99.508652
  20
161.49518
  0
VERTEX
  5
4db
  8
Layer_1
  10
99.177734
  20
161.73737
  0
VERTEX
  5
4dc
  8
Layer_1
  10
98.781654
  20
161.94276
  0
VERTEX
  5
4dd
  8
Layer_1
  10
98.070778
  20
162.22418
  0
VERTEX
  5
4de
  8
Layer_1
  10
97.368378
  20
162.51514
  0
VERTEX
  5
4df
  8
Layer_1
  10
97.199402
  20
162.60622
  0
VERTEX
  5
4e0
  8
Layer_1
  10
97.062782
  20
162.70715
  0
VERTEX
  5
4e1
  8
Layer_1
  10
96.957451
  20
162.8187
  0
VERTEX
  5
4e2
  8
Layer_1
  10
96.882393
  20
162.94159
  0
VERTEX
  5
4e3
  8
Layer_1
  10
96.836548
  20
163.07654
  0
VERTEX
  5
4e4
  8
Layer_1
  10
96.818863
  20
163.22424
  0
VERTEX
  5
4e5
  8
Layer_1
  10
96.828308
  20
163.38548
  0
VERTEX
  5
4e6
  8
Layer_1
  10
96.863846
  20
163.56096
  0
VERTEX
  5
4e7
  8
Layer_1
  10
96.916176
  20
163.71411
  0
VERTEX
  5
4e8
  8
Layer_1
  10
96.985748
  20
163.84265
  0
VERTEX
  5
4e9
  8
Layer_1
  10
97.071793
  20
163.94772
  0
VERTEX
  5
4ea
  8
Layer_1
  10
97.173523
  20
164.03052
  0
VERTEX
  5
4eb
  8
Layer_1
  10
97.420914
  20
164.13416
  0
VERTEX
  5
4ec
  8
Layer_1
  10
97.721703
  20
164.16302
  0
VERTEX
  5
4ed
  8
Layer_1
  10
97.89505
  20
164.14799
  0
VERTEX
  5
4ee
  8
Layer_1
  10
98.050377
  20
164.10928
  0
VERTEX
  5
4ef
  8
Layer_1
  10
98.187553
  20
164.04697
  0
VERTEX
  5
4f0
  8
Layer_1
  10
98.306442
  20
163.96109
  0
VERTEX
  5
4f1
  8
Layer_1
  10
98.406921
  20
163.85168
  0
VERTEX
  5
4f2
  8
Layer_1
  10
98.488846
  20
163.71883
  0
VERTEX
  5
4f3
  8
Layer_1
  10
98.552086
  20
163.56253
  0
VERTEX
  5
4f4
  8
Layer_1
  10
98.596519
  20
163.38289
  0
VERTEX
  5
4f5
  8
Layer_1
  10
98.628845
  20
163.14725
  0
VERTEX
  5
4f6
  8
Layer_1
  10
98.655869
  20
162.89249
  0
VERTEX
  5
4f7
  8
Layer_1
  10
100.06491
  20
162.88542
  0
SEQEND
  0
POLYLINE
  5
4f9
  8
Layer_1
  62
221
  70
1
  66
1
  10
0
  20
0
  30
0
  0
VERTEX
  5
4f9
  8
Layer_1
  10
33.262241
  20
174.50819
  0
VERTEX
  5
4fa
  8
Layer_1
  10
32.330364
  20
174.42587
  0
VERTEX
  5
4fb
  8
Layer_1
  10
31.450422
  20
174.31598
  0
VERTEX
  5
4fc
  8
Layer_1
  10
30.495338
  20
174.10745
  0
VERTEX
  5
4fd
  8
Layer_1
  10
29.578754
  20
173.83067
  0
VERTEX
  5
4fe
  8
Layer_1
  10
28.702972
  20
173.48814
  0
VERTEX
  5
4ff
  8
Layer_1
  10
27.870289
  20
173.08234
  0
VERTEX
  5
500
  8
Layer_1
  10
27.083
  20
172.6158
  0
VERTEX
  5
501
  8
Layer_1
  10
26.343407
  20
172.091
  0
VERTEX
  5
502
  8
Layer_1
  10
25.653803
  20
171.51044
  0
VERTEX
  5
503
  8
Layer_1
  10
25.016489
  20
170.8766
  0
VERTEX
  5
504
  8
Layer_1
  10
24.433764
  20
170.19202
  0
VERTEX
  5
505
  8
Layer_1
  10
23.907925
  20
169.45917
  0
VERTEX
  5
506
  8
Layer_1
  10
23.441269
  20
168.68056
  0
VERTEX
  5
507
  8
Layer_1
  10
23.036095
  20
167.85867
  0
VERTEX
  5
508
  8
Layer_1
  10
22.694698
  20
166.99603
  0
VERTEX
  5
509
  8
Layer_1
  10
22.419382
  20
166.09511
  0
VERTEX
  5
50a
  8
Layer_1
  10
22.21244
  20
165.15842
  0
VERTEX
  5
50b
  8
Layer_1
  10
22.076172
  20
164.18846
  0
VERTEX
  5
50c
  8
Layer_1
  10
22.055639
  20
163.98383
  0
VERTEX
  5
50d
  8
Layer_1
  10
22.039377
  20
163.81075
  0
VERTEX
  5
50e
  8
Layer_1
  10
22.028603
  20
163.6666
  0
VERTEX
  5
50f
  8
Layer_1
  10
22.024544
  20
163.54874
  0
VERTEX
  5
510
  8
Layer_1
  10
22.041441
  20
163.38153
  0
VERTEX
  5
511
  8
Layer_1
  10
22.099842
  20
163.28821
  0
VERTEX
  5
512
  8
Layer_1
  10
22.209518
  20
163.24789
  0
VERTEX
  5
513
  8
Layer_1
  10
22.380245
  20
163.23969
  0
VERTEX
  5
514
  8
Layer_1
  10
22.621788
  20
163.24265
  0
VERTEX
  5
515
  8
Layer_1
  10
22.943922
  20
163.23592
  0
VERTEX
  5
516
  8
Layer_1
  10
23.069935
  20
163.23528
  0
VERTEX
  5
517
  8
Layer_1
  10
23.174551
  20
163.24832
  0
VERTEX
  5
518
  8
Layer_1
  10
23.259422
  20
163.27679
  0
VERTEX
  5
519
  8
Layer_1
  10
23.326212
  20
163.32246
  0
VERTEX
  5
51a
  8
Layer_1
  10
23.376572
  20
163.38708
  0
VERTEX
  5
51b
  8
Layer_1
  10
23.412157
  20
163.47241
  0
VERTEX
  5
51c
  8
Layer_1
  10
23.434626
  20
163.58018
  0
VERTEX
  5
51d
  8
Layer_1
  10
23.445633
  20
163.71219
  0
VERTEX
  5
51e
  8
Layer_1
  10
23.514147
  20
164.53754
  0
VERTEX
  5
51f
  8
Layer_1
  10
23.653496
  20
165.34601
  0
VERTEX
  5
520
  8
Layer_1
  10
23.86059
  20
166.134
  0
VERTEX
  5
521
  8
Layer_1
  10
24.13233
  20
166.89789
  0
VERTEX
  5
522
  8
Layer_1
  10
24.465622
  20
167.63409
  0
VERTEX
  5
523
  8
Layer_1
  10
24.857372
  20
168.33899
  0
VERTEX
  5
524
  8
Layer_1
  10
25.304482
  20
169.009
  0
VERTEX
  5
525
  8
Layer_1
  10
25.80386
  20
169.64052
  0
VERTEX
  5
526
  8
Layer_1
  10
26.352409
  20
170.22992
  0
VERTEX
  5
527
  8
Layer_1
  10
26.947035
  20
170.77364
  0
VERTEX
  5
528
  8
Layer_1
  10
27.584644
  20
171.26805
  0
VERTEX
  5
529
  8
Layer_1
  10
28.26214
  20
171.70955
  0
VERTEX
  5
52a
  8
Layer_1
  10
28.976427
  20
172.09454
  0
VERTEX
  5
52b
  8
Layer_1
  10
29.724411
  20
172.41943
  0
VERTEX
  5
52c
  8
Layer_1
  10
30.502998
  20
172.6806
  0
VERTEX
  5
52d
  8
Layer_1
  10
31.309093
  20
172.87445
  0
VERTEX
  5
52e
  8
Layer_1
  10
32.274185
  20
173.02002
  0
VERTEX
  5
52f
  8
Layer_1
  10
33.263653
  20
173.14014
  0
VERTEX
  5
530
  8
Layer_1
  10
33.262241
  20
174.50819
  0
SEQEND
  0
POLYLINE
  5
532
  8
Layer_1
  62
221
  70
1
  66
1
  10
0
  20
0
  30
0
  0
VERTEX
  5
532
  8
Layer_1
  10
69.223015
  20
157.61108
  0
VERTEX
  5
533
  8
Layer_1
  10
69.223015
  20
167.96896
  0
VERTEX
  5
534
  8
Layer_1
  10
67.91291
  20
167.96896
  0
VERTEX
  5
535
  8
Layer_1
  10
67.91291
  20
157.61108
  0
VERTEX
  5
536
  8
Layer_1
  10
69.223015
  20
157.61108
  0
SEQEND
  0
POLYLINE
  5
538
  8
Layer_1
  62
221
  70
1
  66
1
  10
0
  20
0
  30
0
  0
VERTEX
  5
538
  8
Layer_1
  10
85.698975
  20
157.62238
  0
VERTEX
  5
539
  8
Layer_1
  10
87.091042
  20
157.62238
  0
VERTEX
  5
53a
  8
Layer_1
  10
87.091042
  20
158.17639
  0
VERTEX
  5
53b
  8
Layer_1
  10
87.0868
  20
160.18323
  0
VERTEX
  5
53c
  8
Layer_1
  10
87.091042
  20
162.19009
  0
VERTEX
  5
53d
  8
Layer_1
  10
87.114059
  20
162.61423
  0
VERTEX
  5
53e
  8
Layer_1
  10
87.176369
  20
162.96466
  0
VERTEX
  5
53f
  8
Layer_1
  10
87.283722
  20
163.24789
  0
VERTEX
  5
540
  8
Layer_1
  10
87.441887
  20
163.47052
  0
VERTEX
  5
541
  8
Layer_1
  10
87.656631
  20
163.6391
  0
VERTEX
  5
542
  8
Layer_1
  10
87.933708
  20
163.76015
  0
VERTEX
  5
543
  8
Layer_1
  10
88.278893
  20
163.84027
  0
VERTEX
  5
544
  8
Layer_1
  10
88.697945
  20
163.88602
  0
VERTEX
  5
545
  8
Layer_1
  10
88.770538
  20
163.91748
  0
VERTEX
  5
546
  8
Layer_1
  10
88.839264
  20
163.95668
  0
VERTEX
  5
547
  8
Layer_1
  10
88.844742
  20
164.49709
  0
VERTEX
  5
548
  8
Layer_1
  10
88.827965
  20
165.05762
  0
VERTEX
  5
549
  8
Layer_1
  10
88.79483
  20
165.14886
  0
VERTEX
  5
54a
  8
Layer_1
  10
88.741699
  20
165.22852
  0
VERTEX
  5
54b
  8
Layer_1
  10
88.67128
  20
165.29337
  0
VERTEX
  5
54c
  8
Layer_1
  10
88.586288
  20
165.34027
  0
VERTEX
  5
54d
  8
Layer_1
  10
88.224358
  20
165.39975
  0
VERTEX
  5
54e
  8
Layer_1
  10
87.880707
  20
165.37312
  0
VERTEX
  5
54f
  8
Layer_1
  10
87.717812
  20
165.32278
  0
VERTEX
  5
550
  8
Layer_1
  10
87.561974
  20
165.24527
  0
VERTEX
  5
551
  8
Layer_1
  10
87.414017
  20
165.13867
  0
VERTEX
  5
552
  8
Layer_1
  10
87.274773
  20
165.00108
  0
VERTEX
  5
553
  8
Layer_1
  10
87.112244
  20
164.80853
  0
VERTEX
  5
554
  8
Layer_1
  10
86.941238
  20
164.60114
  0
VERTEX
  5
555
  8
Layer_1
  10
86.910049
  20
164.6666
  0
VERTEX
  5
556
  8
Layer_1
  10
86.883301
  20
164.73398
  0
VERTEX
  5
557
  8
Layer_1
  10
86.83757
  20
164.91422
  0
VERTEX
  5
558
  8
Layer_1
  10
86.78775
  20
165.05208
  0
VERTEX
  5
559
  8
Layer_1
  10
86.72657
  20
165.15221
  0
VERTEX
  5
55a
  8
Layer_1
  10
86.646759
  20
165.21927
  0
VERTEX
  5
55b
  8
Layer_1
  10
86.541046
  20
165.2579
  0
VERTEX
  5
55c
  8
Layer_1
  10
86.402153
  20
165.27277
  0
VERTEX
  5
55d
  8
Layer_1
  10
86.222824
  20
165.26852
  0
VERTEX
  5
55e
  8
Layer_1
  10
85.995766
  20
165.24983
  0
VERTEX
  5
55f
  8
Layer_1
  10
85.849976
  20
165.2197
  0
VERTEX
  5
560
  8
Layer_1
  10
85.754044
  20
165.1665
  0
VERTEX
  5
561
  8
Layer_1
  10
85.698593
  20
165.09506
  0
VERTEX
  5
562
  8
Layer_1
  10
85.67424
  20
165.01028
  0
VERTEX
  5
563
  8
Layer_1
  10
85.681351
  20
164.82016
  0
VERTEX
  5
564
  8
Layer_1
  10
85.700386
  20
164.63506
  0
VERTEX
  5
565
  8
Layer_1
  10
85.695618
  20
161.40926
  0
VERTEX
  5
566
  8
Layer_1
  10
85.700386
  20
158.18346
  0
VERTEX
  5
567
  8
Layer_1
  10
85.698975
  20
157.62238
  0
SEQEND
  0
POLYLINE
  5
569
  8
Layer_1
  62
221
  70
1
  66
1
  10
0
  20
0
  30
0
  0
VERTEX
  5
569
  8
Layer_1
  10
46.910233
  20
165.24277
  0
VERTEX
  5
56a
  8
Layer_1
  10
46.506042
  20
165.23093
  0
VERTEX
  5
56b
  8
Layer_1
  10
46.101841
  20
165.24277
  0
VERTEX
  5
56c
  8
Layer_1
  10
45.941528
  20
165.25204
  0
VERTEX
  5
56d
  8
Layer_1
  10
45.811722
  20
165.23752
  0
VERTEX
  5
56e
  8
Layer_1
  10
45.709671
  20
165.19926
  0
VERTEX
  5
56f
  8
Layer_1
  10
45.632633
  20
165.1373
  0
VERTEX
  5
570
  8
Layer_1
  10
45.57785
  20
165.0517
  0
VERTEX
  5
571
  8
Layer_1
  10
45.54258
  20
164.94247
  0
VERTEX
  5
572
  8
Layer_1
  10
45.524071
  20
164.80971
  0
VERTEX
  5
573
  8
Layer_1
  10
45.519569
  20
164.65343
  0
VERTEX
  5
574
  8
Layer_1
  10
45.533173
  20
161.3847
  0
VERTEX
  5
575
  8
Layer_1
  10
45.53088
  20
158.11703
  0
VERTEX
  5
576
  8
Layer_1
  10
45.542007
  20
157.86353
  0
VERTEX
  5
577
  8
Layer_1
  10
45.560558
  20
157.60684
  0
VERTEX
  5
578
  8
Layer_1
  10
46.910236
  20
157.60684
  0
VERTEX
  5
579
  8
Layer_1
  10
46.910233
  20
165.24277
  0
SEQEND
  0
POLYLINE
  5
57b
  8
Layer_1
  62
221
  70
1
  66
1
  10
0
  20
0
  30
0
  0
VERTEX
  5
57b
  8
Layer_1
  10
33.267895
  20
166.02147
  0
VERTEX
  5
57c
  8
Layer_1
  10
32.984764
  20
166.01247
  0
VERTEX
  5
57d
  8
Layer_1
  10
32.707939
  20
165.97293
  0
VERTEX
  5
57e
  8
Layer_1
  10
32.439278
  20
165.90468
  0
VERTEX
  5
57f
  8
Layer_1
  10
32.180645
  20
165.80957
  0
VERTEX
  5
580
  8
Layer_1
  10
31.933903
  20
165.68945
  0
VERTEX
  5
581
  8
Layer_1
  10
31.700914
  20
165.54619
  0
VERTEX
  5
582
  8
Layer_1
  10
31.483545
  20
165.38161
  0
VERTEX
  5
583
  8
Layer_1
  10
31.283657
  20
165.19754
  0
VERTEX
  5
584
  8
Layer_1
  10
31.103111
  20
164.99586
  0
VERTEX
  5
585
  8
Layer_1
  10
30.943775
  20
164.77841
  0
VERTEX
  5
586
  8
Layer_1
  10
30.807508
  20
164.54703
  0
VERTEX
  5
587
  8
Layer_1
  10
30.696177
  20
164.30356
  0
VERTEX
  5
588
  8
Layer_1
  10
30.611641
  20
164.04985
  0
VERTEX
  5
589
  8
Layer_1
  10
30.555765
  20
163.78775
  0
VERTEX
  5
58a
  8
Layer_1
  10
30.530415
  20
163.51912
  0
VERTEX
  5
58b
  8
Layer_1
  10
30.537447
  20
163.2458
  0
VERTEX
  5
58c
  8
Layer_1
  10
31.095867
  20
163.24261
  0
VERTEX
  5
58d
  8
Layer_1
  10
31.659588
  20
163.25429
  0
VERTEX
  5
58e
  8
Layer_1
  10
31.789587
  20
163.32153
  0
VERTEX
  5
58f
  8
Layer_1
  10
31.874405
  20
163.44084
  0
VERTEX
  5
590
  8
Layer_1
  10
31.951199
  20
163.70349
  0
VERTEX
  5
591
  8
Layer_1
  10
32.057884
  20
163.93361
  0
VERTEX
  5
592
  8
Layer_1
  10
32.193356
  20
164.13228
  0
VERTEX
  5
593
  8
Layer_1
  10
32.356506
  20
164.30063
  0
VERTEX
  5
594
  8
Layer_1
  10
32.546219
  20
164.43977
  0
VERTEX
  5
595
  8
Layer_1
  10
32.761387
  20
164.55081
  0
VERTEX
  5
596
  8
Layer_1
  10
33.0009
  20
164.63484
  0
VERTEX
  5
597
  8
Layer_1
  10
33.263653
  20
164.69299
  0
VERTEX
  5
598
  8
Layer_1
  10
33.267895
  20
166.02147
  0
SEQEND
  0
POLYLINE
  5
59a
  8
Layer_1
  62
221
  70
1
  66
1
  10
0
  20
0
  30
0
  0
VERTEX
  5
59a
  8
Layer_1
  10
20.65583
  20
159.08795
  0
VERTEX
  5
59b
  8
Layer_1
  10
20.942022
  20
159.08379
  0
VERTEX
  5
59c
  8
Layer_1
  10
21.223465
  20
159.11836
  0
VERTEX
  5
59d
  8
Layer_1
  10
21.497791
  20
159.18839
  0
VERTEX
  5
59e
  8
Layer_1
  10
21.762644
  20
159.29051
  0
VERTEX
  5
59f
  8
Layer_1
  10
22.015656
  20
159.42143
  0
VERTEX
  5
5a0
  8
Layer_1
  10
22.254459
  20
159.57784
  0
VERTEX
  5
5a1
  8
Layer_1
  10
22.476692
  20
159.75638
  0
VERTEX
  5
5a2
  8
Layer_1
  10
22.679993
  20
159.95377
  0
VERTEX
  5
5a3
  8
Layer_1
  10
22.861996
  20
160.16667
  0
VERTEX
  5
5a4
  8
Layer_1
  10
23.020332
  20
160.39177
  0
VERTEX
  5
5a5
  8
Layer_1
  10
23.152643
  20
160.62575
  0
VERTEX
  5
5a6
  8
Layer_1
  10
23.256565
  20
160.8653
  0
VERTEX
  5
5a7
  8
Layer_1
  10
23.329731
  20
161.10709
  0
VERTEX
  5
5a8
  8
Layer_1
  10
23.369778
  20
161.34781
  0
VERTEX
  5
5a9
  8
Layer_1
  10
23.374338
  20
161.58414
  0
VERTEX
  5
5aa
  8
Layer_1
  10
23.341051
  20
161.81274
  0
VERTEX
  5
5ab
  8
Layer_1
  10
22.054972
  20
161.81274
  0
VERTEX
  5
5ac
  8
Layer_1
  10
21.995085
  20
161.51801
  0
VERTEX
  5
5ad
  8
Layer_1
  10
21.899158
  20
161.25941
  0
VERTEX
  5
5ae
  8
Layer_1
  10
21.768784
  20
161.0358
  0
VERTEX
  5
5af
  8
Layer_1
  10
21.605551
  20
160.84589
  0
VERTEX
  5
5b0
  8
Layer_1
  10
21.411049
  20
160.68851
  0
VERTEX
  5
5b1
  8
Layer_1
  10
21.186867
  20
160.56247
  0
VERTEX
  5
5b2
  8
Layer_1
  10
20.934599
  20
160.46652
  0
VERTEX
  5
5b3
  8
Layer_1
  10
20.65583
  20
160.39948
  0
VERTEX
  5
5b4
  8
Layer_1
  10
20.65583
  20
159.08795
  0
SEQEND
  0
POLYLINE
  5
5b6
  8
Layer_1
  62
221
  70
1
  66
1
  10
0
  20
0
  30
0
  0
VERTEX
  5
5b6
  8
Layer_1
  10
45.529465
  20
167.97321
  0
VERTEX
  5
5b7
  8
Layer_1
  10
45.525932
  20
167.28583
  0
VERTEX
  5
5b8
  8
Layer_1
  10
45.53936
  20
166.64191
  0
VERTEX
  5
5b9
  8
Layer_1
  10
45.568092
  20
166.56352
  0
VERTEX
  5
5ba
  8
Layer_1
  10
45.614761
  20
166.49586
  0
VERTEX
  5
5bb
  8
Layer_1
  10
45.676727
  20
166.44186
  0
VERTEX
  5
5bc
  8
Layer_1
  10
45.75135
  20
166.40446
  0
VERTEX
  5
5bd
  8
Layer_1
  10
46.318604
  20
166.38927
  0
VERTEX
  5
5be
  8
Layer_1
  10
46.901756
  20
166.39316
  0
VERTEX
  5
5bf
  8
Layer_1
  10
46.901756
  20
167.97321
  0
VERTEX
  5
5c0
  8
Layer_1
  10
45.529465
  20
167.97321
  0
SEQEND
  0
POLYLINE
  5
5c2
  8
Layer_0
  62
0
  70
1
  66
1
  10
0
  20
0
  30
0
  0
VERTEX
  5
5c2
  8
Layer_0
  10
20.664309
  20
150.58003
  0
VERTEX
  5
5c3
  8
Layer_0
  10
20.650707
  20
151.1524
  0
VERTEX
  5
5c4
  8
Layer_0
  10
20.640284
  20
151.72479
  0
VERTEX
  5
5c5
  8
Layer_0
  10
20.657099
  20
151.85931
  0
VERTEX
  5
5c6
  8
Layer_0
  10
20.685509
  20
151.9919
  0
VERTEX
  5
5c7
  8
Layer_0
  10
21.675884
  20
152.06613
  0
VERTEX
  5
5c8
  8
Layer_0
  10
22.632471
  20
152.22002
  0
VERTEX
  5
5c9
  8
Layer_0
  10
23.554344
  20
152.45532
  0
VERTEX
  5
5ca
  8
Layer_0
  10
24.440578
  20
152.7738
  0
VERTEX
  5
5cb
  8
Layer_0
  10
25.290245
  20
153.1772
  0
VERTEX
  5
5cc
  8
Layer_0
  10
26.102413
  20
153.6673
  0
VERTEX
  5
5cd
  8
Layer_0
  10
26.87616
  20
154.24583
  0
VERTEX
  5
5ce
  8
Layer_0
  10
27.610554
  20
154.91455
  0
VERTEX
  5
5cf
  8
Layer_0
  10
28.2791
  20
155.6472
  0
VERTEX
  5
5d0
  8
Layer_0
  10
28.856888
  20
156.4164
  0
VERTEX
  5
5d1
  8
Layer_0
  10
29.345373
  20
157.22226
  0
VERTEX
  5
5d2
  8
Layer_0
  10
29.746014
  20
158.06491
  0
VERTEX
  5
5d3
  8
Layer_0
  10
30.060268
  20
158.94446
  0
VERTEX
  5
5d4
  8
Layer_0
  10
30.289593
  20
159.86102
  0
VERTEX
  5
5d5
  8
Layer_0
  10
30.435448
  20
160.81473
  0
VERTEX
  5
5d6
  8
Layer_0
  10
30.499289
  20
161.80568
  0
VERTEX
  5
5d7
  8
Layer_0
  10
31.89843
  20
161.80568
  0
VERTEX
  5
5d8
  8
Layer_0
  10
31.839956
  20
160.9411
  0
VERTEX
  5
5d9
  8
Layer_0
  10
31.748623
  20
160.0829
  0
VERTEX
  5
5da
  8
Layer_0
  10
31.557947
  20
159.14496
  0
VERTEX
  5
5db
  8
Layer_0
  10
31.29224
  20
158.23843
  0
VERTEX
  5
5dc
  8
Layer_0
  10
30.955
  20
157.36661
  0
VERTEX
  5
5dd
  8
Layer_0
  10
30.549725
  20
156.53271
  0
VERTEX
  5
5de
  8
Layer_0
  10
30.079906
  20
155.74005
  0
VERTEX
  5
5df
  8
Layer_0
  10
29.549046
  20
154.99182
  0
VERTEX
  5
5e0
  8
Layer_0
  10
28.960638
  20
154.29131
  0
VERTEX
  5
5e1
  8
Layer_0
  10
28.318176
  20
153.64178
  0
VERTEX
  5
5e2
  8
Layer_0
  10
27.62516
  20
153.04651
  0
VERTEX
  5
5e3
  8
Layer_0
  10
26.885086
  20
152.50871
  0
VERTEX
  5
5e4
  8
Layer_0
  10
26.101448
  20
152.03168
  0
VERTEX
  5
5e5
  8
Layer_0
  10
25.277744
  20
151.61865
  0
VERTEX
  5
5e6
  8
Layer_0
  10
24.417469
  20
151.27292
  0
VERTEX
  5
5e7
  8
Layer_0
  10
23.52412
  20
150.9977
  0
VERTEX
  5
5e8
  8
Layer_0
  10
22.601196
  20
150.79626
  0
VERTEX
  5
5e9
  8
Layer_0
  10
21.652189
  20
150.67191
  0
VERTEX
  5
5ea
  8
Layer_0
  10
21.444115
  20
150.63376
  0
VERTEX
  5
5eb
  8
Layer_0
  10
21.239511
  20
150.58003
  0
VERTEX
  5
5ec
  8
Layer_0
  10
20.664309
  20
150.58003
  0
SEQEND
  0
POLYLINE
  5
5ee
  8
Layer_0
  62
0
  70
1
  66
1
  10
0
  20
0
  30
0
  0
VERTEX
  5
5ee
  8
Layer_0
  10
52.734341
  20
166.41719
  0
VERTEX
  5
5ef
  8
Layer_0
  10
53.846584
  20
166.41719
  0
VERTEX
  5
5f0
  8
Layer_0
  10
53.883858
  20
166.14166
  0
VERTEX
  5
5f1
  8
Layer_0
  10
53.879513
  20
165.88422
  0
VERTEX
  5
5f2
  8
Layer_0
  10
53.831013
  20
165.64001
  0
VERTEX
  5
5f3
  8
Layer_0
  10
53.735825
  20
165.40424
  0
VERTEX
  5
5f4
  8
Layer_0
  10
53.591412
  20
165.17203
  0
VERTEX
  5
5f5
  8
Layer_0
  10
53.395245
  20
164.93857
  0
VERTEX
  5
5f6
  8
Layer_0
  10
53.144787
  20
164.69899
  0
VERTEX
  5
5f7
  8
Layer_0
  10
52.837509
  20
164.4485
  0
VERTEX
  5
5f8
  8
Layer_0
  10
53.0019
  20
164.17723
  0
VERTEX
  5
5f9
  8
Layer_0
  10
53.135384
  20
163.89246
  0
VERTEX
  5
5fa
  8
Layer_0
  10
53.237499
  20
163.59679
  0
VERTEX
  5
5fb
  8
Layer_0
  10
53.307785
  20
163.2928
  0
VERTEX
  5
5fc
  8
Layer_0
  10
53.345791
  20
162.98312
  0
VERTEX
  5
5fd
  8
Layer_0
  10
53.351048
  20
162.67035
  0
VERTEX
  5
5fe
  8
Layer_0
  10
53.323101
  20
162.35709
  0
VERTEX
  5
5ff
  8
Layer_0
  10
53.261494
  20
162.04593
  0
VERTEX
  5
600
  8
Layer_0
  10
53.150734
  20
161.66978
  0
VERTEX
  5
601
  8
Layer_0
  10
52.992859
  20
161.3324
  0
VERTEX
  5
602
  8
Layer_0
  10
52.790298
  20
161.03577
  0
VERTEX
  5
603
  8
Layer_0
  10
52.545494
  20
160.78194
  0
VERTEX
  5
604
  8
Layer_0
  10
52.260868
  20
160.57297
  0
VERTEX
  5
605
  8
Layer_0
  10
51.938866
  20
160.41089
  0
VERTEX
  5
606
  8
Layer_0
  10
51.581917
  20
160.29773
  0
VERTEX
  5
607
  8
Layer_0
  10
51.192459
  20
160.23553
  0
VERTEX
  5
608
  8
Layer_0
  10
50.691277
  20
160.20657
  0
VERTEX
  5
609
  8
Layer_0
  10
50.18903
  20
160.19879
  0
VERTEX
  5
60a
  8
Layer_0
  10
49.930332
  20
160.17056
  0
VERTEX
  5
60b
  8
Layer_0
  10
49.723175
  20
160.07901
  0
VERTEX
  5
60c
  8
Layer_0
  10
49.644268
  20
160.00626
  0
VERTEX
  5
60d
  8
Layer_0
  10
49.584656
  20
159.91379
  0
VERTEX
  5
60e
  8
Layer_0
  10
49.546471
  20
159.80032
  0
VERTEX
  5
60f
  8
Layer_0
  10
49.53186
  20
159.66457
  0
VERTEX
  5
610
  8
Layer_0
  10
49.545116
  20
159.52136
  0
VERTEX
  5
611
  8
Layer_0
  10
49.583336
  20
159.4014
  0
VERTEX
  5
612
  8
Layer_0
  10
49.644173
  20
159.30327
  0
VERTEX
  5
613
  8
Layer_0
  10
49.725304
  20
159.22557
  0
VERTEX
  5
614
  8
Layer_0
  10
49.939087
  20
159.12579
  0
VERTEX
  5
615
  8
Layer_0
  10
50.205994
  20
159.09077
  0
VERTEX
  5
616
  8
Layer_0
  10
51.140167
  20
159.09077
  0
VERTEX
  5
617
  8
Layer_0
  10
52.074341
  20
159.09077
  0
VERTEX
  5
618
  8
Layer_0
  10
52.493217
  20
159.06026
  0
VERTEX
  5
619
  8
Layer_0
  10
52.870041
  20
158.97067
  0
VERTEX
  5
61a
  8
Layer_0
  10
53.201584
  20
158.82492
  0
VERTEX
  5
61b
  8
Layer_0
  10
53.484615
  20
158.62598
  0
VERTEX
  5
61c
  8
Layer_0
  10
53.715912
  20
158.37675
  0
VERTEX
  5
61d
  8
Layer_0
  10
53.892235
  20
158.08018
  0
VERTEX
  5
61e
  8
Layer_0
  10
54.010361
  20
157.73918
  0
VERTEX
  5
61f
  8
Layer_0
  10
54.067059
  20
157.35669
  0
VERTEX
  5
620
  8
Layer_0
  10
54.057014
  20
156.93628
  0
VERTEX
  5
621
  8
Layer_0
  10
53.97641
  20
156.53674
  0
VERTEX
  5
622
  8
Layer_0
  10
53.830582
  20
156.16753
  0
VERTEX
  5
623
  8
Layer_0
  10
53.624878
  20
155.83813
  0
VERTEX
  5
624
  8
Layer_0
  10
53.364662
  20
155.55803
  0
VERTEX
  5
625
  8
Layer_0
  10
53.055267
  20
155.33669
  0
VERTEX
  5
626
  8
Layer_0
  10
52.702049
  20
155.18356
  0
VERTEX
  5
627
  8
Layer_0
  10
52.31036
  20
155.10817
  0
VERTEX
  5
628
  8
Layer_0
  10
51.533386
  20
155.06915
  0
VERTEX
  5
629
  8
Layer_0
  10
50.755753
  20
155.05614
  0
VERTEX
  5
62a
  8
Layer_0
  10
49.978127
  20
155.06915
  0
VERTEX
  5
62b
  8
Layer_0
  10
49.201153
  20
155.10817
  0
VERTEX
  5
62c
  8
Layer_0
  10
48.957504
  20
155.13972
  0
VERTEX
  5
62d
  8
Layer_0
  10
48.733536
  20
155.20634
  0
VERTEX
  5
62e
  8
Layer_0
  10
48.529701
  20
155.30577
  0
VERTEX
  5
62f
  8
Layer_0
  10
48.346474
  20
155.4357
  0
VERTEX
  5
630
  8
Layer_0
  10
48.184311
  20
155.59386
  0
VERTEX
  5
631
  8
Layer_0
  10
48.043682
  20
155.77794
  0
VERTEX
  5
632
  8
Layer_0
  10
47.925041
  20
155.98569
  0
VERTEX
  5
633
  8
Layer_0
  10
47.828861
  20
156.21477
  0
VERTEX
  5
634
  8
Layer_0
  10
47.745514
  20
156.47519
  0
VERTEX
  5
635
  8
Layer_0
  10
47.700474
  20
156.74075
  0
VERTEX
  5
636
  8
Layer_0
  10
47.693031
  20
157.00754
  0
VERTEX
  5
637
  8
Layer_0
  10
47.722485
  20
157.27164
  0
VERTEX
  5
638
  8
Layer_0
  10
47.788109
  20
157.52914
  0
VERTEX
  5
639
  8
Layer_0
  10
47.889194
  20
157.77615
  0
VERTEX
  5
63a
  8
Layer_0
  10
48.025028
  20
158.00876
  0
VERTEX
  5
63b
  8
Layer_0
  10
48.194901
  20
158.22302
  0
VERTEX
  5
63c
  8
Layer_0
  10
48.34304
  20
158.3692
  0
VERTEX
  5
63d
  8
Layer_0
  10
48.500168
  20
158.50568
  0
VERTEX
  5
63e
  8
Layer_0
  10
48.287437
  20
158.90494
  0
VERTEX
  5
63f
  8
Layer_0
  10
48.14608
  20
159.2486
  0
VERTEX
  5
640
  8
Layer_0
  10
48.078815
  20
159.55127
  0
VERTEX
  5
641
  8
Layer_0
  10
48.088379
  20
159.82762
  0
VERTEX
  5
642
  8
Layer_0
  10
48.177505
  20
160.09224
  0
VERTEX
  5
643
  8
Layer_0
  10
48.34893
  20
160.35974
  0
VERTEX
  5
644
  8
Layer_0
  10
48.605377
  20
160.64478
  0
VERTEX
  5
645
  8
Layer_0
  10
48.949593
  20
160.96194
  0
VERTEX
  5
646
  8
Layer_0
  10
48.731728
  20
161.23383
  0
VERTEX
  5
647
  8
Layer_0
  10
48.557053
  20
161.51877
  0
VERTEX
  5
648
  8
Layer_0
  10
48.423717
  20
161.81558
  0
VERTEX
  5
649
  8
Layer_0
  10
48.329868
  20
162.12314
  0
VERTEX
  5
64a
  8
Layer_0
  10
48.273647
  20
162.44031
  0
VERTEX
  5
64b
  8
Layer_0
  10
48.253197
  20
162.76593
  0
VERTEX
  5
64c
  8
Layer_0
  10
48.266666
  20
163.09888
  0
VERTEX
  5
64d
  8
Layer_0
  10
48.312202
  20
163.438
  0
VERTEX
  5
64e
  8
Layer_0
  10
48.37405
  20
163.69772
  0
VERTEX
  5
64f
  8
Layer_0
  10
48.458603
  20
163.94218
  0
VERTEX
  5
650
  8
Layer_0
  10
48.564617
  20
164.17064
  0
VERTEX
  5
651
  8
Layer_0
  10
48.690849
  20
164.38235
  0
VERTEX
  5
652
  8
Layer_0
  10
48.836052
  20
164.57663
  0
VERTEX
  5
653
  8
Layer_0
  10
48.998978
  20
164.7527
  0
VERTEX
  5
654
  8
Layer_0
  10
49.178391
  20
164.90987
  0
VERTEX
  5
655
  8
Layer_0
  10
49.373039
  20
165.04738
  0
VERTEX
  5
656
  8
Layer_0
  10
49.803085
  20
165.26057
  0
VERTEX
  5
657
  8
Layer_0
  10
50.279152
  20
165.38647
  0
VERTEX
  5
658
  8
Layer_0
  10
50.531334
  20
165.41486
  0
VERTEX
  5
659
  8
Layer_0
  10
50.791286
  20
165.41922
  0
VERTEX
  5
65a
  8
Layer_0
  10
51.057774
  20
165.39885
  0
VERTEX
  5
65b
  8
Layer_0
  10
51.329544
  20
165.353
  0
VERTEX
  5
65c
  8
Layer_0
  10
51.604721
  20
165.30258
  0
VERTEX
  5
65d
  8
Layer_0
  10
51.835564
  20
165.28622
  0
VERTEX
  5
65e
  8
Layer_0
  10
52.028343
  20
165.3075
  0
VERTEX
  5
65f
  8
Layer_0
  10
52.189346
  20
165.36995
  0
VERTEX
  5
660
  8
Layer_0
  10
52.324841
  20
165.4772
  0
VERTEX
  5
661
  8
Layer_0
  10
52.441109
  20
165.63281
  0
VERTEX
  5
662
  8
Layer_0
  10
52.544422
  20
165.84036
  0
VERTEX
  5
663
  8
Layer_0
  10
52.641064
  20
166.10344
  0
VERTEX
  5
664
  8
Layer_0
  10
52.683464
  20
166.24495
  0
VERTEX
  5
665
  8
Layer_0
  10
52.734341
  20
166.41719
  0
SEQEND
  0
POLYLINE
  5
667
  8
Layer_0
  62
0
  70
1
  66
1
  10
0
  20
0
  30
0
  0
VERTEX
  5
667
  8
Layer_0
  10
51.942905
  20
162.79639
  0
VERTEX
  5
668
  8
Layer_0
  10
51.92712
  20
163.09717
  0
VERTEX
  5
669
  8
Layer_0
  10
51.879944
  20
163.36325
  0
VERTEX
  5
66a
  8
Layer_0
  10
51.801674
  20
163.59406
  0
VERTEX
  5
66b
  8
Layer_0
  10
51.692577
  20
163.78903
  0
VERTEX
  5
66c
  8
Layer_0
  10
51.55294
  20
163.94763
  0
VERTEX
  5
66d
  8
Layer_0
  10
51.383049
  20
164.06934
  0
VERTEX
  5
66e
  8
Layer_0
  10
51.183182
  20
164.15355
  0
VERTEX
  5
66f
  8
Layer_0
  10
50.953613
  20
164.19977
  0
VERTEX
  5
670
  8
Layer_0
  10
50.712105
  20
164.20781
  0
VERTEX
  5
671
  8
Layer_0
  10
50.491165
  20
164.17673
  0
VERTEX
  5
672
  8
Layer_0
  10
50.292549
  20
164.10791
  0
VERTEX
  5
673
  8
Layer_0
  10
50.118015
  20
164.00278
  0
VERTEX
  5
674
  8
Layer_0
  10
49.969322
  20
163.86273
  0
VERTEX
  5
675
  8
Layer_0
  10
49.848213
  20
163.68921
  0
VERTEX
  5
676
  8
Layer_0
  10
49.756454
  20
163.48357
  0
VERTEX
  5
677
  8
Layer_0
  10
49.695801
  20
163.24722
  0
VERTEX
  5
678
  8
Layer_0
  10
49.654362
  20
162.9007
  0
VERTEX
  5
679
  8
Layer_0
  10
49.655254
  20
162.58095
  0
VERTEX
  5
67a
  8
Layer_0
  10
49.69709
  20
162.29126
  0
VERTEX
  5
67b
  8
Layer_0
  10
49.778473
  20
162.03497
  0
VERTEX
  5
67c
  8
Layer_0
  10
49.898018
  20
161.81538
  0
VERTEX
  5
67d
  8
Layer_0
  10
50.054329
  20
161.63582
  0
VERTEX
  5
67e
  8
Layer_0
  10
50.246014
  20
161.49957
  0
VERTEX
  5
67f
  8
Layer_0
  10
50.471687
  20
161.40996
  0
VERTEX
  5
680
  8
Layer_0
  10
50.782417
  20
161.36531
  0
VERTEX
  5
681
  8
Layer_0
  10
51.065262
  20
161.39087
  0
VERTEX
  5
682
  8
Layer_0
  10
51.31604
  20
161.4827
  0
VERTEX
  5
683
  8
Layer_0
  10
51.530582
  20
161.63678
  0
VERTEX
  5
684
  8
Layer_0
  10
51.704716
  20
161.84918
  0
VERTEX
  5
685
  8
Layer_0
  10
51.834263
  20
162.11588
  0
VERTEX
  5
686
  8
Layer_0
  10
51.915051
  20
162.43295
  0
VERTEX
  5
687
  8
Layer_0
  10
51.942905
  20
162.79639
  0
SEQEND
  0
POLYLINE
  5
689
  8
Layer_0
  62
0
  70
1
  66
1
  10
0
  20
0
  30
0
  0
VERTEX
  5
689
  8
Layer_0
  10
50.880123
  20
156.27977
  0
VERTEX
  5
68a
  8
Layer_0
  10
51.428474
  20
156.27289
  0
VERTEX
  5
68b
  8
Layer_0
  10
51.976822
  20
156.27977
  0
VERTEX
  5
68c
  8
Layer_0
  10
52.122662
  20
156.30295
  0
VERTEX
  5
68d
  8
Layer_0
  10
52.257393
  20
156.35245
  0
VERTEX
  5
68e
  8
Layer_0
  10
52.378357
  20
156.4254
  0
VERTEX
  5
68f
  8
Layer_0
  10
52.482895
  20
156.51895
  0
VERTEX
  5
690
  8
Layer_0
  10
52.568336
  20
156.63019
  0
VERTEX
  5
691
  8
Layer_0
  10
52.632019
  20
156.75629
  0
VERTEX
  5
692
  8
Layer_0
  10
52.67128
  20
156.89436
  0
VERTEX
  5
693
  8
Layer_0
  10
52.68346
  20
157.04153
  0
VERTEX
  5
694
  8
Layer_0
  10
52.67152
  20
157.17889
  0
VERTEX
  5
695
  8
Layer_0
  10
52.633301
  20
157.31
  0
VERTEX
  5
696
  8
Layer_0
  10
52.570297
  20
157.43117
  0
VERTEX
  5
697
  8
Layer_0
  10
52.483986
  20
157.5387
  0
VERTEX
  5
698
  8
Layer_0
  10
52.378239
  20
157.62715
  0
VERTEX
  5
699
  8
Layer_0
  10
52.258362
  20
157.6926
  0
VERTEX
  5
69a
  8
Layer_0
  10
52.128044
  20
157.73346
  0
VERTEX
  5
69b
  8
Layer_0
  10
51.990955
  20
157.74817
  0
VERTEX
  5
69c
  8
Layer_0
  10
50.894611
  20
157.76514
  0
VERTEX
  5
69d
  8
Layer_0
  10
49.796143
  20
157.74817
  0
VERTEX
  5
69e
  8
Layer_0
  10
49.638489
  20
157.72983
  0
VERTEX
  5
69f
  8
Layer_0
  10
49.500771
  20
157.68649
  0
VERTEX
  5
6a0
  8
Layer_0
  10
49.383453
  20
157.6198
  0
VERTEX
  5
6a1
  8
Layer_0
  10
49.28701
  20
157.5314
  0
VERTEX
  5
6a2
  8
Layer_0
  10
49.211899
  20
157.42293
  0
VERTEX
  5
6a3
  8
Layer_0
  10
49.158577
  20
157.29602
  0
VERTEX
  5
6a4
  8
Layer_0
  10
49.127518
  20
157.15231
  0
VERTEX
  5
6a5
  8
Layer_0
  10
49.119183
  20
156.99347
  0
VERTEX
  5
6a6
  8
Layer_0
  10
49.133621
  20
156.83606
  0
VERTEX
  5
6a7
  8
Layer_0
  10
49.170326
  20
156.69621
  0
VERTEX
  5
6a8
  8
Layer_0
  10
49.228889
  20
156.57474
  0
VERTEX
  5
6a9
  8
Layer_0
  10
49.308914
  20
156.4725
  0
VERTEX
  5
6aa
  8
Layer_0
  10
49.410007
  20
156.39032
  0
VERTEX
  5
6ab
  8
Layer_0
  10
49.531773
  20
156.32909
  0
VERTEX
  5
6ac
  8
Layer_0
  10
49.673805
  20
156.2896
  0
VERTEX
  5
6ad
  8
Layer_0
  10
49.835716
  20
156.27271
  0
VERTEX
  5
6ae
  8
Layer_0
  10
50.356682
  20
156.27411
  0
VERTEX
  5
6af
  8
Layer_0
  10
50.88295
  20
156.27977
  0
VERTEX
  5
6b0
  8
Layer_0
  10
50.880123
  20
156.27977
  0
SEQEND
  0
POLYLINE
  5
6b2
  8
Layer_0
  62
0
  70
1
  66
1
  10
0
  20
0
  30
0
  0
VERTEX
  5
6b2
  8
Layer_0
  10
76.095764
  20
160.2963
  0
VERTEX
  5
6b3
  8
Layer_0
  10
76.519753
  20
162.2028
  0
VERTEX
  5
6b4
  8
Layer_0
  10
76.943733
  20
164.11214
  0
VERTEX
  5
6b5
  8
Layer_0
  10
76.955925
  20
164.1828
  0
VERTEX
  5
6b6
  8
Layer_0
  10
76.96917
  20
164.25346
  0
VERTEX
  5
6b7
  8
Layer_0
  10
77.057648
  20
164.61942
  0
VERTEX
  5
6b8
  8
Layer_0
  10
77.149918
  20
164.89795
  0
VERTEX
  5
6b9
  8
Layer_0
  10
77.259705
  20
165.09708
  0
VERTEX
  5
6ba
  8
Layer_0
  10
77.400749
  20
165.22473
  0
VERTEX
  5
6bb
  8
Layer_0
  10
77.586777
  20
165.28894
  0
VERTEX
  5
6bc
  8
Layer_0
  10
77.831512
  20
165.29765
  0
VERTEX
  5
6bd
  8
Layer_0
  10
78.148697
  20
165.25888
  0
VERTEX
  5
6be
  8
Layer_0
  10
78.552048
  20
165.18057
  0
VERTEX
  5
6bf
  8
Layer_0
  10
78.538666
  20
164.99898
  0
VERTEX
  5
6c0
  8
Layer_0
  10
78.512466
  20
164.81877
  0
VERTEX
  5
6c1
  8
Layer_0
  10
77.66185
  20
161.41472
  0
VERTEX
  5
6c2
  8
Layer_0
  10
76.816544
  20
158.00961
  0
VERTEX
  5
6c3
  8
Layer_0
  10
76.748177
  20
157.80624
  0
VERTEX
  5
6c4
  8
Layer_0
  10
76.645889
  20
157.66513
  0
VERTEX
  5
6c5
  8
Layer_0
  10
76.492195
  20
157.59029
  0
VERTEX
  5
6c6
  8
Layer_0
  10
76.269608
  20
157.58563
  0
VERTEX
  5
6c7
  8
Layer_0
  10
75.76683
  20
157.59836
  0
VERTEX
  5
6c8
  8
Layer_0
  10
75.232269
  20
157.58563
  0
VERTEX
  5
6c9
  8
Layer_0
  10
74.780724
  20
160.04916
  0
VERTEX
  5
6ca
  8
Layer_0
  10
74.33342
  20
162.48828
  0
VERTEX
  5
6cb
  8
Layer_0
  10
74.26841
  20
162.48828
  0
VERTEX
  5
6cc
  8
Layer_0
  10
73.376633
  20
157.64217
  0
VERTEX
  5
6cd
  8
Layer_0
  10
73.289566
  20
157.61234
  0
VERTEX
  5
6ce
  8
Layer_0
  10
73.199982
  20
157.59129
  0
VERTEX
  5
6cf
  8
Layer_0
  10
72.976006
  20
157.58139
  0
VERTEX
  5
6d0
  8
Layer_0
  10
72.779541
  20
157.57455
  0
VERTEX
  5
6d1
  8
Layer_0
  10
72.608261
  20
157.57251
  0
VERTEX
  5
6d2
  8
Layer_0
  10
72.459869
  20
157.57693
  0
VERTEX
  5
6d3
  8
Layer_0
  10
72.222473
  20
157.61209
  0
VERTEX
  5
6d4
  8
Layer_0
  10
72.048859
  20
157.69374
  0
VERTEX
  5
6d5
  8
Layer_0
  10
71.920578
  20
157.83554
  0
VERTEX
  5
6d6
  8
Layer_0
  10
71.819122
  20
158.05118
  0
VERTEX
  5
6d7
  8
Layer_0
  10
71.772675
  20
158.19095
  0
VERTEX
  5
6d8
  8
Layer_0
  10
71.726006
  20
158.35432
  0
VERTEX
  5
6d9
  8
Layer_0
  10
71.676804
  20
158.54298
  0
VERTEX
  5
6da
  8
Layer_0
  10
71.622757
  20
158.75865
  0
VERTEX
  5
6db
  8
Layer_0
  10
70.869125
  20
161.76752
  0
VERTEX
  5
6dc
  8
Layer_0
  10
70.117622
  20
164.77921
  0
VERTEX
  5
6dd
  8
Layer_0
  10
70.075226
  20
164.97388
  0
VERTEX
  5
6de
  8
Layer_0
  10
70.024345
  20
165.23428
  0
VERTEX
  5
6df
  8
Layer_0
  10
70.674698
  20
165.24174
  0
VERTEX
  5
6e0
  8
Layer_0
  10
71.324562
  20
165.21591
  0
VERTEX
  5
6e1
  8
Layer_0
  10
71.401054
  20
165.17191
  0
VERTEX
  5
6e2
  8
Layer_0
  10
71.475426
  20
165.0737
  0
VERTEX
  5
6e3
  8
Layer_0
  10
71.537613
  20
164.9498
  0
VERTEX
  5
6e4
  8
Layer_0
  10
71.577538
  20
164.82867
  0
VERTEX
  5
6e5
  8
Layer_0
  10
72.056641
  20
162.75946
  0
VERTEX
  5
6e6
  8
Layer_0
  10
72.527267
  20
160.68919
  0
VERTEX
  5
6e7
  8
Layer_0
  10
72.589157
  20
160.49846
  0
VERTEX
  5
6e8
  8
Layer_0
  10
72.698265
  20
160.33022
  0
VERTEX
  5
6e9
  8
Layer_0
  10
73
  20
162
  0
VERTEX
  5
6ea
  8
Layer_0
  10
73.303146
  20
163.66837
  0
VERTEX
  5
6eb
  8
Layer_0
  10
73.406578
  20
164.15982
  0
VERTEX
  5
6ec
  8
Layer_0
  10
73.47274
  20
164.65767
  0
VERTEX
  5
6ed
  8
Layer_0
  10
73.48941
  20
164.83215
  0
VERTEX
  5
6ee
  8
Layer_0
  10
73.528519
  20
164.97113
  0
VERTEX
  5
6ef
  8
Layer_0
  10
73.589554
  20
165.07813
  0
VERTEX
  5
6f0
  8
Layer_0
  10
73.672012
  20
165.15672
  0
VERTEX
  5
6f1
  8
Layer_0
  10
73.775406
  20
165.21048
  0
VERTEX
  5
6f2
  8
Layer_0
  10
73.899239
  20
165.24295
  0
VERTEX
  5
6f3
  8
Layer_0
  10
74.043015
  20
165.25771
  0
VERTEX
  5
6f4
  8
Layer_0
  10
74.20623
  20
165.2583
  0
VERTEX
  5
6f5
  8
Layer_0
  10
74.504875
  20
165.24805
  0
VERTEX
  5
6f6
  8
Layer_0
  10
74.731705
  20
165.23192
  0
VERTEX
  5
6f7
  8
Layer_0
  10
74.89904
  20
165.19846
  0
VERTEX
  5
6f8
  8
Layer_0
  10
75.019211
  20
165.13623
  0
VERTEX
  5
6f9
  8
Layer_0
  10
75.104538
  20
165.03378
  0
VERTEX
  5
6fa
  8
Layer_0
  10
75.167343
  20
164.8797
  0
VERTEX
  5
6fb
  8
Layer_0
  10
75.219948
  20
164.66251
  0
VERTEX
  5
6fc
  8
Layer_0
  10
75.274673
  20
164.37077
  0
VERTEX
  5
6fd
  8
Layer_0
  10
75.645111
  20
162.32983
  0
VERTEX
  5
6fe
  8
Layer_0
  10
76.01239
  20
160.28781
  0
VERTEX
  5
6ff
  8
Layer_0
  10
76.095764
  20
160.2963
  0
SEQEND
  0
POLYLINE
  5
701
  8
Layer_0
  62
0
  70
1
  66
1
  10
0
  20
0
  30
0
  0
VERTEX
  5
701
  8
Layer_0
  10
39.007202
  20
160.84041
  0
VERTEX
  5
702
  8
Layer_0
  10
39.034313
  20
160.75435
  0
VERTEX
  5
703
  8
Layer_0
  10
39.055252
  20
160.66658
  0
VERTEX
  5
704
  8
Layer_0
  10
39.087227
  20
160.36629
  0
VERTEX
  5
705
  8
Layer_0
  10
39.150917
  20
160.08736
  0
VERTEX
  5
706
  8
Layer_0
  10
39.244091
  20
159.8309
  0
VERTEX
  5
707
  8
Layer_0
  10
39.364517
  20
159.59813
  0
VERTEX
  5
708
  8
Layer_0
  10
39.50996
  20
159.39017
  0
VERTEX
  5
709
  8
Layer_0
  10
39.678185
  20
159.20824
  0
VERTEX
  5
70a
  8
Layer_0
  10
39.866959
  20
159.05347
  0
VERTEX
  5
70b
  8
Layer_0
  10
40.074047
  20
158.92702
  0
VERTEX
  5
70c
  8
Layer_0
  10
40.297218
  20
158.83006
  0
VERTEX
  5
70d
  8
Layer_0
  10
40.534233
  20
158.76376
  0
VERTEX
  5
70e
  8
Layer_0
  10
40.782867
  20
158.72931
  0
VERTEX
  5
70f
  8
Layer_0
  10
41.040882
  20
158.72784
  0
VERTEX
  5
710
  8
Layer_0
  10
41.306042
  20
158.76053
  0
VERTEX
  5
711
  8
Layer_0
  10
41.576111
  20
158.82855
  0
VERTEX
  5
712
  8
Layer_0
  10
41.848862
  20
158.93306
  0
VERTEX
  5
713
  8
Layer_0
  10
42.122059
  20
159.07523
  0
VERTEX
  5
714
  8
Layer_0
  10
42.397324
  20
159.28772
  0
VERTEX
  5
715
  8
Layer_0
  10
42.606033
  20
159.55894
  0
VERTEX
  5
716
  8
Layer_0
  10
42.739525
  20
159.87408
  0
VERTEX
  5
717
  8
Layer_0
  10
42.789131
  20
160.21825
  0
VERTEX
  5
718
  8
Layer_0
  10
42.748833
  20
160.56366
  0
VERTEX
  5
719
  8
Layer_0
  10
42.62389
  20
160.88226
  0
VERTEX
  5
71a
  8
Layer_0
  10
42.422577
  20
161.15903
  0
VERTEX
  5
71b
  8
Layer_0
  10
42.153152
  20
161.37886
  0
VERTEX
  5
71c
  8
Layer_0
  10
41.831234
  20
161.5531
  0
VERTEX
  5
71d
  8
Layer_0
  10
41.491035
  20
161.69791
  0
VERTEX
  5
71e
  8
Layer_0
  10
41.142349
  20
161.82841
  0
VERTEX
  5
71f
  8
Layer_0
  10
40.794994
  20
161.95972
  0
VERTEX
  5
720
  8
Layer_0
  10
40.010803
  20
162.25174
  0
VERTEX
  5
721
  8
Layer_0
  10
39.240391
  20
162.56178
  0
VERTEX
  5
722
  8
Layer_0
  10
38.868176
  20
162.76225
  0
VERTEX
  5
723
  8
Layer_0
  10
38.549522
  20
162.99879
  0
VERTEX
  5
724
  8
Layer_0
  10
38.284195
  20
163.27104
  0
VERTEX
  5
725
  8
Layer_0
  10
38.071968
  20
163.57863
  0
VERTEX
  5
726
  8
Layer_0
  10
37.912605
  20
163.92119
  0
VERTEX
  5
727
  8
Layer_0
  10
37.805878
  20
164.29837
  0
VERTEX
  5
728
  8
Layer_0
  10
37.751549
  20
164.70981
  0
VERTEX
  5
729
  8
Layer_0
  10
37.749386
  20
165.15514
  0
VERTEX
  5
72a
  8
Layer_0
  10
37.795273
  20
165.55502
  0
VERTEX
  5
72b
  8
Layer_0
  10
37.891243
  20
165.92398
  0
VERTEX
  5
72c
  8
Layer_0
  10
38.036766
  20
166.26093
  0
VERTEX
  5
72d
  8
Layer_0
  10
38.231316
  20
166.5647
  0
VERTEX
  5
72e
  8
Layer_0
  10
38.474358
  20
166.83426
  0
VERTEX
  5
72f
  8
Layer_0
  10
38.765358
  20
167.06844
  0
VERTEX
  5
730
  8
Layer_0
  10
39.10379
  20
167.26614
  0
VERTEX
  5
731
  8
Layer_0
  10
39.489128
  20
167.42627
  0
VERTEX
  5
732
  8
Layer_0
  10
39.835098
  20
167.53357
  0
VERTEX
  5
733
  8
Layer_0
  10
40.187004
  20
167.61084
  0
VERTEX
  5
734
  8
Layer_0
  10
40.542931
  20
167.65808
  0
VERTEX
  5
735
  8
Layer_0
  10
40.900955
  20
167.67526
  0
VERTEX
  5
736
  8
Layer_0
  10
41.259163
  20
167.66238
  0
VERTEX
  5
737
  8
Layer_0
  10
41.615631
  20
167.61942
  0
VERTEX
  5
738
  8
Layer_0
  10
41.968441
  20
167.54639
  0
VERTEX
  5
739
  8
Layer_0
  10
42.315678
  20
167.44322
  0
VERTEX
  5
73a
  8
Layer_0
  10
42.758842
  20
167.25427
  0
VERTEX
  5
73b
  8
Layer_0
  10
43.141121
  20
167.00827
  0
VERTEX
  5
73c
  8
Layer_0
  10
43.459938
  20
166.7095
  0
VERTEX
  5
73d
  8
Layer_0
  10
43.7127
  20
166.36224
  0
VERTEX
  5
73e
  8
Layer_0
  10
43.896835
  20
165.97083
  0
VERTEX
  5
73f
  8
Layer_0
  10
44.00975
  20
165.53949
  0
VERTEX
  5
740
  8
Layer_0
  10
44.04887
  20
165.07254
  0
VERTEX
  5
741
  8
Layer_0
  10
44.011608
  20
164.57428
  0
VERTEX
  5
742
  8
Layer_0
  10
42.575722
  20
164.57428
  0
VERTEX
  5
743
  8
Layer_0
  10
42.574051
  20
164.81522
  0
VERTEX
  5
744
  8
Layer_0
  10
42.537563
  20
165.05338
  0
VERTEX
  5
745
  8
Layer_0
  10
42.45343
  20
165.27191
  0
VERTEX
  5
746
  8
Layer_0
  10
42.362667
  20
165.49272
  0
VERTEX
  5
747
  8
Layer_0
  10
42.253361
  20
165.69948
  0
VERTEX
  5
748
  8
Layer_0
  10
42.113579
  20
165.8759
  0
VERTEX
  5
749
  8
Layer_0
  10
41.868855
  20
166.06032
  0
VERTEX
  5
74a
  8
Layer_0
  10
41.570286
  20
166.19029
  0
VERTEX
  5
74b
  8
Layer_0
  10
41.235317
  20
166.26691
  0
VERTEX
  5
74c
  8
Layer_0
  10
40.881382
  20
166.29123
  0
VERTEX
  5
74d
  8
Layer_0
  10
40.525928
  20
166.26434
  0
VERTEX
  5
74e
  8
Layer_0
  10
40.186382
  20
166.18732
  0
VERTEX
  5
74f
  8
Layer_0
  10
39.880196
  20
166.06125
  0
VERTEX
  5
750
  8
Layer_0
  10
39.624802
  20
165.88721
  0
VERTEX
  5
751
  8
Layer_0
  10
39.467899
  20
165.71399
  0
VERTEX
  5
752
  8
Layer_0
  10
39.35191
  20
165.51401
  0
VERTEX
  5
753
  8
Layer_0
  10
39.279999
  20
165.29428
  0
VERTEX
  5
754
  8
Layer_0
  10
39.255329
  20
165.06186
  0
VERTEX
  5
755
  8
Layer_0
  10
39.279999
  20
164.82944
  0
VERTEX
  5
756
  8
Layer_0
  10
39.35191
  20
164.60971
  0
VERTEX
  5
757
  8
Layer_0
  10
39.467899
  20
164.40973
  0
VERTEX
  5
758
  8
Layer_0
  10
39.624802
  20
164.23651
  0
VERTEX
  5
759
  8
Layer_0
  10
39.855389
  20
164.06714
  0
VERTEX
  5
75a
  8
Layer_0
  10
40.097858
  20
163.91608
  0
VERTEX
  5
75b
  8
Layer_0
  10
40.35112
  20
163.78389
  0
VERTEX
  5
75c
  8
Layer_0
  10
40.614098
  20
163.6712
  0
VERTEX
  5
75d
  8
Layer_0
  10
41.533257
  20
163.33414
  0
VERTEX
  5
75e
  8
Layer_0
  10
42.451355
  20
162.99283
  0
VERTEX
  5
75f
  8
Layer_0
  10
42.94186
  20
162.76077
  0
VERTEX
  5
760
  8
Layer_0
  10
43.354523
  20
162.49583
  0
VERTEX
  5
761
  8
Layer_0
  10
43.691002
  20
162.19606
  0
VERTEX
  5
762
  8
Layer_0
  10
43.952957
  20
161.85956
  0
VERTEX
  5
763
  8
Layer_0
  10
44.142036
  20
161.48445
  0
VERTEX
  5
764
  8
Layer_0
  10
44.259903
  20
161.06882
  0
VERTEX
  5
765
  8
Layer_0
  10
44.308208
  20
160.61075
  0
VERTEX
  5
766
  8
Layer_0
  10
44.288609
  20
160.10834
  0
VERTEX
  5
767
  8
Layer_0
  10
44.206688
  20
159.5889
  0
VERTEX
  5
768
  8
Layer_0
  10
44.065971
  20
159.12717
  0
VERTEX
  5
769
  8
Layer_0
  10
43.865036
  20
158.7224
  0
VERTEX
  5
76a
  8
Layer_0
  10
43.602463
  20
158.37389
  0
VERTEX
  5
76b
  8
Layer_0
  10
43.276817
  20
158.08087
  0
VERTEX
  5
76c
  8
Layer_0
  10
42.886681
  20
157.84268
  0
VERTEX
  5
76d
  8
Layer_0
  10
42.430634
  20
157.65851
  0
VERTEX
  5
76e
  8
Layer_0
  10
41.907242
  20
157.52769
  0
VERTEX
  5
76f
  8
Layer_0
  10
41.530739
  20
157.46803
  0
VERTEX
  5
770
  8
Layer_0
  10
41.155273
  20
157.43169
  0
VERTEX
  5
771
  8
Layer_0
  10
40.781494
  20
157.42117
  0
VERTEX
  5
772
  8
Layer_0
  10
40.410053
  20
157.43901
  0
VERTEX
  5
773
  8
Layer_0
  10
40.041588
  20
157.4877
  0
VERTEX
  5
774
  8
Layer_0
  10
39.676758
  20
157.56982
  0
VERTEX
  5
775
  8
Layer_0
  10
39.3162
  20
157.68784
  0
VERTEX
  5
776
  8
Layer_0
  10
38.960564
  20
157.84427
  0
VERTEX
  5
777
  8
Layer_0
  10
38.602303
  20
158.06232
  0
VERTEX
  5
778
  8
Layer_0
  10
38.289112
  20
158.32925
  0
VERTEX
  5
779
  8
Layer_0
  10
38.024471
  20
158.63831
  0
VERTEX
  5
77a
  8
Layer_0
  10
37.811867
  20
158.98276
  0
VERTEX
  5
77b
  8
Layer_0
  10
37.654789
  20
159.3558
  0
VERTEX
  5
77c
  8
Layer_0
  10
37.556717
  20
159.7507
  0
VERTEX
  5
77d
  8
Layer_0
  10
37.521133
  20
160.16066
  0
VERTEX
  5
77e
  8
Layer_0
  10
37.551529
  20
160.57895
  0
VERTEX
  5
77f
  8
Layer_0
  10
37.590576
  20
160.66455
  0
VERTEX
  5
780
  8
Layer_0
  10
37.648842
  20
160.73659
  0
VERTEX
  5
781
  8
Layer_0
  10
37.723106
  20
160.79199
  0
VERTEX
  5
782
  8
Layer_0
  10
37.810158
  20
160.8277
  0
VERTEX
  5
783
  8
Layer_0
  10
38.405502
  20
160.84677
  0
VERTEX
  5
784
  8
Layer_0
  10
39.007202
  20
160.84041
  0
SEQEND
  0
POLYLINE
  5
786
  8
Layer_0
  62
0
  70
1
  66
1
  10
0
  20
0
  30
0
  0
VERTEX
  5
786
  8
Layer_0
  10
20.709534
  20
153.45322
  0
VERTEX
  5
787
  8
Layer_0
  10
20.684834
  20
153.50604
  0
VERTEX
  5
788
  8
Layer_0
  10
20.664309
  20
153.56064
  0
VERTEX
  5
789
  8
Layer_0
  10
20.623138
  20
153.9407
  0
VERTEX
  5
78a
  8
Layer_0
  10
20.606033
  20
154.22853
  0
VERTEX
  5
78b
  8
Layer_0
  10
20.624735
  20
154.43971
  0
VERTEX
  5
78c
  8
Layer_0
  10
20.690985
  20
154.58984
  0
VERTEX
  5
78d
  8
Layer_0
  10
20.816526
  20
154.69452
  0
VERTEX
  5
78e
  8
Layer_0
  10
21.0131
  20
154.76938
  0
VERTEX
  5
78f
  8
Layer_0
  10
21.292452
  20
154.82997
  0
VERTEX
  5
790
  8
Layer_0
  10
21.666321
  20
154.89194
  0
VERTEX
  5
791
  8
Layer_0
  10
22.296242
  20
155.01762
  0
VERTEX
  5
792
  8
Layer_0
  10
22.903275
  20
155.19659
  0
VERTEX
  5
793
  8
Layer_0
  10
23.48506
  20
155.42613
  0
VERTEX
  5
794
  8
Layer_0
  10
24.039242
  20
155.70352
  0
VERTEX
  5
795
  8
Layer_0
  10
24.563463
  20
156.02612
  0
VERTEX
  5
796
  8
Layer_0
  10
25.055367
  20
156.39117
  0
VERTEX
  5
797
  8
Layer_0
  10
25.512596
  20
156.79597
  0
VERTEX
  5
798
  8
Layer_0
  10
25.932793
  20
157.23785
  0
VERTEX
  5
799
  8
Layer_0
  10
26.313602
  20
157.7141
  0
VERTEX
  5
79a
  8
Layer_0
  10
26.652666
  20
158.22202
  0
VERTEX
  5
79b
  8
Layer_0
  10
26.947626
  20
158.75888
  0
VERTEX
  5
79c
  8
Layer_0
  10
27.196127
  20
159.32201
  0
VERTEX
  5
79d
  8
Layer_0
  10
27.395809
  20
159.90869
  0
VERTEX
  5
79e
  8
Layer_0
  10
27.544323
  20
160.51622
  0
VERTEX
  5
79f
  8
Layer_0
  10
27.639301
  20
161.14192
  0
VERTEX
  5
7a0
  8
Layer_0
  10
27.678392
  20
161.78307
  0
VERTEX
  5
7a1
  8
Layer_0
  10
27.691818
  20
162.52634
  0
VERTEX
  5
7a2
  8
Layer_0
  10
27.713722
  20
163.26788
  0
VERTEX
  5
7a3
  8
Layer_0
  10
27.770607
  20
164.00121
  0
VERTEX
  5
7a4
  8
Layer_0
  10
27.888969
  20
164.71985
  0
VERTEX
  5
7a5
  8
Layer_0
  10
28.007246
  20
165.14441
  0
VERTEX
  5
7a6
  8
Layer_0
  10
28.162315
  20
165.55424
  0
VERTEX
  5
7a7
  8
Layer_0
  10
28.351852
  20
165.94771
  0
VERTEX
  5
7a8
  8
Layer_0
  10
28.573524
  20
166.3232
  0
VERTEX
  5
7a9
  8
Layer_0
  10
28.825008
  20
166.67908
  0
VERTEX
  5
7aa
  8
Layer_0
  10
29.103977
  20
167.01373
  0
VERTEX
  5
7ab
  8
Layer_0
  10
29.408102
  20
167.3255
  0
VERTEX
  5
7ac
  8
Layer_0
  10
29.73506
  20
167.61282
  0
VERTEX
  5
7ad
  8
Layer_0
  10
30.08252
  20
167.87402
  0
VERTEX
  5
7ae
  8
Layer_0
  10
30.448156
  20
168.10751
  0
VERTEX
  5
7af
  8
Layer_0
  10
30.829643
  20
168.31165
  0
VERTEX
  5
7b0
  8
Layer_0
  10
31.224651
  20
168.4848
  0
VERTEX
  5
7b1
  8
Layer_0
  10
31.630856
  20
168.62537
  0
VERTEX
  5
7b2
  8
Layer_0
  10
32.045929
  20
168.73172
  0
VERTEX
  5
7b3
  8
Layer_0
  10
32.467545
  20
168.80225
  0
VERTEX
  5
7b4
  8
Layer_0
  10
32.893375
  20
168.83531
  0
VERTEX
  5
7b5
  8
Layer_0
  10
33.061554
  20
168.83018
  0
VERTEX
  5
7b6
  8
Layer_0
  10
33.255173
  20
168.81976
  0
VERTEX
  5
7b7
  8
Layer_0
  10
33.255173
  20
167.49551
  0
VERTEX
  5
7b8
  8
Layer_0
  10
32.832603
  20
167.44022
  0
VERTEX
  5
7b9
  8
Layer_0
  10
32.418518
  20
167.37115
  0
VERTEX
  5
7ba
  8
Layer_0
  10
32.059689
  20
167.28101
  0
VERTEX
  5
7bb
  8
Layer_0
  10
31.715027
  20
167.1615
  0
VERTEX
  5
7bc
  8
Layer_0
  10
31.385773
  20
167.01418
  0
VERTEX
  5
7bd
  8
Layer_0
  10
31.073175
  20
166.84058
  0
VERTEX
  5
7be
  8
Layer_0
  10
30.778481
  20
166.64221
  0
VERTEX
  5
7bf
  8
Layer_0
  10
30.502934
  20
166.42062
  0
VERTEX
  5
7c0
  8
Layer_0
  10
30.247778
  20
166.17737
  0
VERTEX
  5
7c1
  8
Layer_0
  10
30.014265
  20
165.91393
  0
VERTEX
  5
7c2
  8
Layer_0
  10
29.803637
  20
165.63185
  0
VERTEX
  5
7c3
  8
Layer_0
  10
29.617142
  20
165.33267
  0
VERTEX
  5
7c4
  8
Layer_0
  10
29.45602
  20
165.01793
  0
VERTEX
  5
7c5
  8
Layer_0
  10
29.321527
  20
164.68915
  0
VERTEX
  5
7c6
  8
Layer_0
  10
29.214905
  20
164.34784
  0
VERTEX
  5
7c7
  8
Layer_0
  10
29.137394
  20
163.99556
  0
VERTEX
  5
7c8
  8
Layer_0
  10
29.090246
  20
163.63382
  0
VERTEX
  5
7c9
  8
Layer_0
  10
29.074707
  20
163.26418
  0
VERTEX
  5
7ca
  8
Layer_0
  10
29.067486
  20
162.21394
  0
VERTEX
  5
7cb
  8
Layer_0
  10
29.016939
  20
161.17004
  0
VERTEX
  5
7cc
  8
Layer_0
  10
28.96188
  20
160.65131
  0
VERTEX
  5
7cd
  8
Layer_0
  10
28.87974
  20
160.13518
  0
VERTEX
  5
7ce
  8
Layer_0
  10
28.765106
  20
159.62195
  0
VERTEX
  5
7cf
  8
Layer_0
  10
28.612566
  20
159.11197
  0
VERTEX
  5
7d0
  8
Layer_0
  10
28.385584
  20
158.5256
  0
VERTEX
  5
7d1
  8
Layer_0
  10
28.114965
  20
157.96091
  0
VERTEX
  5
7d2
  8
Layer_0
  10
27.803284
  20
157.41983
  0
VERTEX
  5
7d3
  8
Layer_0
  10
27.453106
  20
156.90446
  0
VERTEX
  5
7d4
  8
Layer_0
  10
27.067007
  20
156.41678
  0
VERTEX
  5
7d5
  8
Layer_0
  10
26.647556
  20
155.95882
  0
VERTEX
  5
7d6
  8
Layer_0
  10
26.197327
  20
155.53259
  0
VERTEX
  5
7d7
  8
Layer_0
  10
25.718887
  20
155.14015
  0
VERTEX
  5
7d8
  8
Layer_0
  10
25.214809
  20
154.78349
  0
VERTEX
  5
7d9
  8
Layer_0
  10
24.687664
  20
154.46463
  0
VERTEX
  5
7da
  8
Layer_0
  10
24.140026
  20
154.18562
  0
VERTEX
  5
7db
  8
Layer_0
  10
23.574463
  20
153.94847
  0
VERTEX
  5
7dc
  8
Layer_0
  10
22.993546
  20
153.7552
  0
VERTEX
  5
7dd
  8
Layer_0
  10
22.399849
  20
153.60782
  0
VERTEX
  5
7de
  8
Layer_0
  10
21.79594
  20
153.50839
  0
VERTEX
  5
7df
  8
Layer_0
  10
21.184395
  20
153.45888
  0
VERTEX
  5
7e0
  8
Layer_0
  10
20.948555
  20
153.45181
  0
VERTEX
  5
7e1
  8
Layer_0
  10
20.709534
  20
153.45322
  0
SEQEND
  0
POLYLINE
  5
7e3
  8
Layer_0
  62
0
  70
1
  66
1
  10
0
  20
0
  30
0
  0
VERTEX
  5
7e3
  8
Layer_0
  10
33.255173
  20
171.63924
  0
VERTEX
  5
7e4
  8
Layer_0
  10
33.255173
  20
170.32066
  0
VERTEX
  5
7e5
  8
Layer_0
  10
32.598183
  20
170.23993
  0
VERTEX
  5
7e6
  8
Layer_0
  10
31.94648
  20
170.13693
  0
VERTEX
  5
7e7
  8
Layer_0
  10
31.323765
  20
169.98013
  0
VERTEX
  5
7e8
  8
Layer_0
  10
30.728672
  20
169.77612
  0
VERTEX
  5
7e9
  8
Layer_0
  10
30.162853
  20
169.52702
  0
VERTEX
  5
7ea
  8
Layer_0
  10
29.62796
  20
169.23492
  0
VERTEX
  5
7eb
  8
Layer_0
  10
29.125643
  20
168.90198
  0
VERTEX
  5
7ec
  8
Layer_0
  10
28.657555
  20
168.53027
  0
VERTEX
  5
7ed
  8
Layer_0
  10
28.225346
  20
168.12193
  0
VERTEX
  5
7ee
  8
Layer_0
  10
27.830671
  20
167.67908
  0
VERTEX
  5
7ef
  8
Layer_0
  10
27.475182
  20
167.20381
  0
VERTEX
  5
7f0
  8
Layer_0
  10
27.16053
  20
166.69823
  0
VERTEX
  5
7f1
  8
Layer_0
  10
26.888369
  20
166.16447
  0
VERTEX
  5
7f2
  8
Layer_0
  10
26.660347
  20
165.60464
  0
VERTEX
  5
7f3
  8
Layer_0
  10
26.478119
  20
165.02086
  0
VERTEX
  5
7f4
  8
Layer_0
  10
26.343338
  20
164.41522
  0
VERTEX
  5
7f5
  8
Layer_0
  10
26.257652
  20
163.78986
  0
VERTEX
  5
7f6
  8
Layer_0
  10
26.222717
  20
163.14688
  0
VERTEX
  5
7f7
  8
Layer_0
  10
26.213886
  20
162.43118
  0
VERTEX
  5
7f8
  8
Layer_0
  10
26.190212
  20
161.7131
  0
VERTEX
  5
7f9
  8
Layer_0
  10
26.127321
  20
161.00246
  0
VERTEX
  5
7fa
  8
Layer_0
  10
26.000834
  20
160.30902
  0
VERTEX
  5
7fb
  8
Layer_0
  10
25.879936
  20
159.89622
  0
VERTEX
  5
7fc
  8
Layer_0
  10
25.727137
  20
159.4996
  0
VERTEX
  5
7fd
  8
Layer_0
  10
25.544048
  20
159.12024
  0
VERTEX
  5
7fe
  8
Layer_0
  10
25.332289
  20
158.75926
  0
VERTEX
  5
7ff
  8
Layer_0
  10
25.093475
  20
158.41769
  0
VERTEX
  5
800
  8
Layer_0
  10
24.829226
  20
158.09665
  0
VERTEX
  5
801
  8
Layer_0
  10
24.541157
  20
157.79721
  0
VERTEX
  5
802
  8
Layer_0
  10
24.230885
  20
157.52045
  0
VERTEX
  5
803
  8
Layer_0
  10
23.900024
  20
157.26747
  0
VERTEX
  5
804
  8
Layer_0
  10
23.550198
  20
157.03932
  0
VERTEX
  5
805
  8
Layer_0
  10
23.183016
  20
156.8371
  0
VERTEX
  5
806
  8
Layer_0
  10
22.800098
  20
156.6619
  0
VERTEX
  5
807
  8
Layer_0
  10
22.403065
  20
156.5148
  0
VERTEX
  5
808
  8
Layer_0
  10
21.993526
  20
156.39688
  0
VERTEX
  5
809
  8
Layer_0
  10
21.573101
  20
156.3092
  0
VERTEX
  5
80a
  8
Layer_0
  10
21.14341
  20
156.25291
  0
VERTEX
  5
80b
  8
Layer_0
  10
20.926119
  20
156.24762
  0
VERTEX
  5
80c
  8
Layer_0
  10
20.677029
  20
156.25291
  0
VERTEX
  5
80d
  8
Layer_0
  10
20.677029
  20
157.604
  0
VERTEX
  5
80e
  8
Layer_0
  10
20.984945
  20
157.64111
  0
VERTEX
  5
80f
  8
Layer_0
  10
21.287563
  20
157.68457
  0
VERTEX
  5
810
  8
Layer_0
  10
21.679798
  20
157.7704
  0
VERTEX
  5
811
  8
Layer_0
  10
22.054001
  20
157.88615
  0
VERTEX
  5
812
  8
Layer_0
  10
22.409195
  20
158.03067
  0
VERTEX
  5
813
  8
Layer_0
  10
22.744406
  20
158.20282
  0
VERTEX
  5
814
  8
Layer_0
  10
23.058657
  20
158.40143
  0
VERTEX
  5
815
  8
Layer_0
  10
23.350975
  20
158.62538
  0
VERTEX
  5
816
  8
Layer_0
  10
23.620382
  20
158.8735
  0
VERTEX
  5
817
  8
Layer_0
  10
23.865906
  20
159.14465
  0
VERTEX
  5
818
  8
Layer_0
  10
24.086571
  20
159.43768
  0
VERTEX
  5
819
  8
Layer_0
  10
24.281403
  20
159.75143
  0
VERTEX
  5
81a
  8
Layer_0
  10
24.449421
  20
160.08478
  0
VERTEX
  5
81b
  8
Layer_0
  10
24.589657
  20
160.43655
  0
VERTEX
  5
81c
  8
Layer_0
  10
24.701134
  20
160.8056
  0
VERTEX
  5
81d
  8
Layer_0
  10
24.782875
  20
161.19077
  0
VERTEX
  5
81e
  8
Layer_0
  10
24.833908
  20
161.59093
  0
VERTEX
  5
81f
  8
Layer_0
  10
24.853254
  20
162.00494
  0
VERTEX
  5
820
  8
Layer_0
  10
24.859108
  20
162.92282
  0
VERTEX
  5
821
  8
Layer_0
  10
24.89053
  20
163.83725
  0
VERTEX
  5
822
  8
Layer_0
  10
24.928295
  20
164.29259
  0
VERTEX
  5
823
  8
Layer_0
  10
24.987406
  20
164.7464
  0
VERTEX
  5
824
  8
Layer_0
  10
25.072851
  20
165.19839
  0
VERTEX
  5
825
  8
Layer_0
  10
25.189615
  20
165.64838
  0
VERTEX
  5
826
  8
Layer_0
  10
25.409128
  20
166.28259
  0
VERTEX
  5
827
  8
Layer_0
  10
25.674812
  20
166.89069
  0
VERTEX
  5
828
  8
Layer_0
  10
25.98435
  20
167.47086
  0
VERTEX
  5
829
  8
Layer_0
  10
26.335426
  20
168.02132
  0
VERTEX
  5
82a
  8
Layer_0
  10
26.725727
  20
168.54027
  0
VERTEX
  5
82b
  8
Layer_0
  10
27.152935
  20
169.02591
  0
VERTEX
  5
82c
  8
Layer_0
  10
27.614738
  20
169.47646
  0
VERTEX
  5
82d
  8
Layer_0
  10
28.108818
  20
169.89012
  0
VERTEX
  5
82e
  8
Layer_0
  10
28.632862
  20
170.26511
  0
VERTEX
  5
82f
  8
Layer_0
  10
29.184551
  20
170.59959
  0
VERTEX
  5
830
  8
Layer_0
  10
29.761578
  20
170.89183
  0
VERTEX
  5
831
  8
Layer_0
  10
30.36162
  20
171.13998
  0
VERTEX
  5
832
  8
Layer_0
  10
30.982365
  20
171.34232
  0
VERTEX
  5
833
  8
Layer_0
  10
31.621498
  20
171.49698
  0
VERTEX
  5
834
  8
Layer_0
  10
32.276703
  20
171.6022
  0
VERTEX
  5
835
  8
Layer_0
  10
32.945667
  20
171.6562
  0
VERTEX
  5
836
  8
Layer_0
  10
33.088234
  20
171.65196
  0
VERTEX
  5
837
  8
Layer_0
  10
33.255173
  20
171.63924
  0
SEQEND
  0
POLYLINE
  5
839
  8
Layer_0
  62
0
  70
1
  66
1
  10
0
  20
0
  30
0
  0
VERTEX
  5
839
  8
Layer_0
  10
64.785332
  20
162.25792
  0
VERTEX
  5
83a
  8
Layer_0
  10
64.785332
  20
162.65204
  0
VERTEX
  5
83b
  8
Layer_0
  10
64.785332
  20
163.0112
  0
VERTEX
  5
83c
  8
Layer_0
  10
64.772606
  20
163.28915
  0
VERTEX
  5
83d
  8
Layer_0
  10
64.733086
  20
163.52274
  0
VERTEX
  5
83e
  8
Layer_0
  10
64.664742
  20
163.71463
  0
VERTEX
  5
83f
  8
Layer_0
  10
64.565567
  20
163.86746
  0
VERTEX
  5
840
  8
Layer_0
  10
64.433533
  20
163.98395
  0
VERTEX
  5
841
  8
Layer_0
  10
64.266617
  20
164.06671
  0
VERTEX
  5
842
  8
Layer_0
  10
64.062805
  20
164.11844
  0
VERTEX
  5
843
  8
Layer_0
  10
63.820068
  20
164.14182
  0
VERTEX
  5
844
  8
Layer_0
  10
63.574097
  20
164.13583
  0
VERTEX
  5
845
  8
Layer_0
  10
63.361149
  20
164.09665
  0
VERTEX
  5
846
  8
Layer_0
  10
63.180069
  20
164.0226
  0
VERTEX
  5
847
  8
Layer_0
  10
63.029694
  20
163.91199
  0
VERTEX
  5
848
  8
Layer_0
  10
62.908867
  20
163.76314
  0
VERTEX
  5
849
  8
Layer_0
  10
62.816422
  20
163.5744
  0
VERTEX
  5
84a
  8
Layer_0
  10
62.751209
  20
163.3441
  0
VERTEX
  5
84b
  8
Layer_0
  10
62.712063
  20
163.07056
  0
VERTEX
  5
84c
  8
Layer_0
  10
62.701286
  20
162.96986
  0
VERTEX
  5
84d
  8
Layer_0
  10
62.676731
  20
162.81616
  0
VERTEX
  5
84e
  8
Layer_0
  10
62.110355
  20
162.81087
  0
VERTEX
  5
84f
  8
Layer_0
  10
61.546108
  20
162.83313
  0
VERTEX
  5
850
  8
Layer_0
  10
61.478184
  20
162.86813
  0
VERTEX
  5
851
  8
Layer_0
  10
61.410789
  20
162.95413
  0
VERTEX
  5
852
  8
Layer_0
  10
61.357704
  20
163.06268
  0
VERTEX
  5
853
  8
Layer_0
  10
61.332703
  20
163.16525
  0
VERTEX
  5
854
  8
Layer_0
  10
61.342899
  20
163.58643
  0
VERTEX
  5
855
  8
Layer_0
  10
61.427811
  20
163.97629
  0
VERTEX
  5
856
  8
Layer_0
  10
61.583042
  20
164.32956
  0
VERTEX
  5
857
  8
Layer_0
  10
61.804207
  20
164.64105
  0
VERTEX
  5
858
  8
Layer_0
  10
62.086918
  20
164.9055
  0
VERTEX
  5
859
  8
Layer_0
  10
62.426781
  20
165.11768
  0
VERTEX
  5
85a
  8
Layer_0
  10
62.819405
  20
165.27235
  0
VERTEX
  5
85b
  8
Layer_0
  10
63.26041
  20
165.3643
  0
VERTEX
  5
85c
  8
Layer_0
  10
63.833492
  20
165.39929
  0
VERTEX
  5
85d
  8
Layer_0
  10
64.40657
  20
165.3643
  0
VERTEX
  5
85e
  8
Layer_0
  10
64.796844
  20
165.28465
  0
VERTEX
  5
85f
  8
Layer_0
  10
65.1436
  20
165.15317
  0
VERTEX
  5
860
  8
Layer_0
  10
65.444504
  20
164.97211
  0
VERTEX
  5
861
  8
Layer_0
  10
65.69725
  20
164.74371
  0
VERTEX
  5
862
  8
Layer_0
  10
65.899513
  20
164.47018
  0
VERTEX
  5
863
  8
Layer_0
  10
66.048981
  20
164.15378
  0
VERTEX
  5
864
  8
Layer_0
  10
66.143326
  20
163.79672
  0
VERTEX
  5
865
  8
Layer_0
  10
66.180237
  20
163.40126
  0
VERTEX
  5
866
  8
Layer_0
  10
66.192955
  20
161.51437
  0
VERTEX
  5
867
  8
Layer_0
  10
66.188713
  20
159.6264
  0
VERTEX
  5
868
  8
Layer_0
  10
66.190247
  20
159.34625
  0
VERTEX
  5
869
  8
Layer_0
  10
66.201019
  20
159.13409
  0
VERTEX
  5
86a
  8
Layer_0
  10
66.230225
  20
158.97839
  0
VERTEX
  5
86b
  8
Layer_0
  10
66.287109
  20
158.86765
  0
VERTEX
  5
86c
  8
Layer_0
  10
66.380905
  20
158.79037
  0
VERTEX
  5
86d
  8
Layer_0
  10
66.520813
  20
158.73505
  0
VERTEX
  5
86e
  8
Layer_0
  10
66.716064
  20
158.69014
  0
VERTEX
  5
86f
  8
Layer_0
  10
66.975906
  20
158.64418
  0
VERTEX
  5
870
  8
Layer_0
  10
67.004532
  20
158.60283
  0
VERTEX
  5
871
  8
Layer_0
  10
67.018303
  20
158.56363
  0
VERTEX
  5
872
  8
Layer_0
  10
67.025635
  20
158.31273
  0
VERTEX
  5
873
  8
Layer_0
  10
67.058937
  20
158.05519
  0
VERTEX
  5
874
  8
Layer_0
  10
67.055847
  20
157.93147
  0
VERTEX
  5
875
  8
Layer_0
  10
67.023872
  20
157.81516
  0
VERTEX
  5
876
  8
Layer_0
  10
66.951225
  20
157.70923
  0
VERTEX
  5
877
  8
Layer_0
  10
66.826103
  20
157.61673
  0
VERTEX
  5
878
  8
Layer_0
  10
66.634972
  20
157.53676
  0
VERTEX
  5
879
  8
Layer_0
  10
66.425926
  20
157.49185
  0
VERTEX
  5
87a
  8
Layer_0
  10
66.206474
  20
157.48038
  0
VERTEX
  5
87b
  8
Layer_0
  10
65.984138
  20
157.50067
  0
VERTEX
  5
87c
  8
Layer_0
  10
65.766449
  20
157.5511
  0
VERTEX
  5
87d
  8
Layer_0
  10
65.560905
  20
157.63004
  0
VERTEX
  5
87e
  8
Layer_0
  10
65.375046
  20
157.73586
  0
VERTEX
  5
87f
  8
Layer_0
  10
65.216377
  20
157.86688
  0
VERTEX
  5
880
  8
Layer_0
  10
65.106049
  20
157.99046
  0
VERTEX
  5
881
  8
Layer_0
  10
65.004387
  20
158.12128
  0
VERTEX
  5
882
  8
Layer_0
  10
64.576714
  20
157.93103
  0
VERTEX
  5
883
  8
Layer_0
  10
64.165077
  20
157.73758
  0
VERTEX
  5
884
  8
Layer_0
  10
63.760063
  20
157.57593
  0
VERTEX
  5
885
  8
Layer_0
  10
63.352268
  20
157.48105
  0
VERTEX
  5
886
  8
Layer_0
  10
63.054138
  20
157.4595
  0
VERTEX
  5
887
  8
Layer_0
  10
62.772949
  20
157.46834
  0
VERTEX
  5
888
  8
Layer_0
  10
62.509506
  20
157.50642
  0
VERTEX
  5
889
  8
Layer_0
  10
62.264603
  20
157.5726
  0
VERTEX
  5
88a
  8
Layer_0
  10
62.039055
  20
157.66577
  0
VERTEX
  5
88b
  8
Layer_0
  10
61.833664
  20
157.78479
  0
VERTEX
  5
88c
  8
Layer_0
  10
61.649231
  20
157.92853
  0
VERTEX
  5
88d
  8
Layer_0
  10
61.486572
  20
158.09583
  0
VERTEX
  5
88e
  8
Layer_0
  10
61.346485
  20
158.2856
  0
VERTEX
  5
88f
  8
Layer_0
  10
61.229774
  20
158.4967
  0
VERTEX
  5
890
  8
Layer_0
  10
61.137253
  20
158.728
  0
VERTEX
  5
891
  8
Layer_0
  10
61.069721
  20
158.97836
  0
VERTEX
  5
892
  8
Layer_0
  10
61.027985
  20
159.24667
  0
VERTEX
  5
893
  8
Layer_0
  10
61.012848
  20
159.53178
  0
VERTEX
  5
894
  8
Layer_0
  10
61.025112
  20
159.83257
  0
VERTEX
  5
895
  8
Layer_0
  10
61.065594
  20
160.1479
  0
VERTEX
  5
896
  8
Layer_0
  10
61.168259
  20
160.56705
  0
VERTEX
  5
897
  8
Layer_0
  10
61.324333
  20
160.93335
  0
VERTEX
  5
898
  8
Layer_0
  10
61.536488
  20
161.24881
  0
VERTEX
  5
899
  8
Layer_0
  10
61.807384
  20
161.51541
  0
VERTEX
  5
89a
  8
Layer_0
  10
62.139694
  20
161.7352
  0
VERTEX
  5
89b
  8
Layer_0
  10
62.536079
  20
161.91014
  0
VERTEX
  5
89c
  8
Layer_0
  10
62.999214
  20
162.04227
  0
VERTEX
  5
89d
  8
Layer_0
  10
63.531757
  20
162.13356
  0
VERTEX
  5
89e
  8
Layer_0
  10
64.131516
  20
162.19574
  0
VERTEX
  5
89f
  8
Layer_0
  10
64.785332
  20
162.25792
  0
SEQEND
  0
POLYLINE
  5
8a1
  8
Layer_0
  62
0
  70
1
  66
1
  10
0
  20
0
  30
0
  0
VERTEX
  5
8a1
  8
Layer_0
  10
64.774033
  20
161.00293
  0
VERTEX
  5
8a2
  8
Layer_0
  10
63.949741
  20
160.86902
  0
VERTEX
  5
8a3
  8
Layer_0
  10
63.182682
  20
160.72028
  0
VERTEX
  5
8a4
  8
Layer_0
  10
63.015457
  20
160.66449
  0
VERTEX
  5
8a5
  8
Layer_0
  10
62.872532
  20
160.58641
  0
VERTEX
  5
8a6
  8
Layer_0
  10
62.753025
  20
160.48799
  0
VERTEX
  5
8a7
  8
Layer_0
  10
62.656059
  20
160.37119
  0
VERTEX
  5
8a8
  8
Layer_0
  10
62.526234
  20
160.09026
  0
VERTEX
  5
8a9
  8
Layer_0
  10
62.47604
  20
159.75925
  0
VERTEX
  5
8aa
  8
Layer_0
  10
62.47739
  20
159.4838
  0
VERTEX
  5
8ab
  8
Layer_0
  10
62.520737
  20
159.21867
  0
VERTEX
  5
8ac
  8
Layer_0
  10
62.568634
  20
159.09668
  0
VERTEX
  5
8ad
  8
Layer_0
  10
62.639606
  20
158.98535
  0
VERTEX
  5
8ae
  8
Layer_0
  10
62.737839
  20
158.88733
  0
VERTEX
  5
8af
  8
Layer_0
  10
62.867519
  20
158.8053
  0
VERTEX
  5
8b0
  8
Layer_0
  10
63.174484
  20
158.69992
  0
VERTEX
  5
8b1
  8
Layer_0
  10
63.492573
  20
158.68431
  0
VERTEX
  5
8b2
  8
Layer_0
  10
63.802696
  20
158.75674
  0
VERTEX
  5
8b3
  8
Layer_0
  10
64.085754
  20
158.91553
  0
VERTEX
  5
8b4
  8
Layer_0
  10
64.353043
  20
159.13635
  0
VERTEX
  5
8b5
  8
Layer_0
  10
64.560112
  20
159.40887
  0
VERTEX
  5
8b6
  8
Layer_0
  10
64.699951
  20
159.72125
  0
VERTEX
  5
8b7
  8
Layer_0
  10
64.765549
  20
160.06169
  0
VERTEX
  5
8b8
  8
Layer_0
  10
64.779388
  20
160.26302
  0
VERTEX
  5
8b9
  8
Layer_0
  10
64.780914
  20
160.47879
  0
VERTEX
  5
8ba
  8
Layer_0
  10
64.776878
  20
160.72131
  0
VERTEX
  5
8bb
  8
Layer_0
  10
64.774033
  20
161.00293
  0
SEQEND
  0
POLYLINE
  5
8bd
  8
Layer_0
  62
0
  70
1
  66
1
  10
0
  20
0
  30
0
  0
VERTEX
  5
8bd
  8
Layer_0
  10
89.738106
  20
167.9718
  0
VERTEX
  5
8be
  8
Layer_0
  10
91.106155
  20
167.9718
  0
VERTEX
  5
8bf
  8
Layer_0
  10
91.106155
  20
162.14911
  0
VERTEX
  5
8c0
  8
Layer_0
  10
91.300842
  20
162.36728
  0
VERTEX
  5
8c1
  8
Layer_0
  10
91.429802
  20
162.52504
  0
VERTEX
  5
8c2
  8
Layer_0
  10
92.213989
  20
163.63834
  0
VERTEX
  5
8c3
  8
Layer_0
  10
92.975922
  20
164.76648
  0
VERTEX
  5
8c4
  8
Layer_0
  10
93.158661
  20
165.00287
  0
VERTEX
  5
8c5
  8
Layer_0
  10
93.366165
  20
165.16626
  0
VERTEX
  5
8c6
  8
Layer_0
  10
93.612091
  20
165.25201
  0
VERTEX
  5
8c7
  8
Layer_0
  10
93.910088
  20
165.25548
  0
VERTEX
  5
8c8
  8
Layer_0
  10
94.389191
  20
165.24232
  0
VERTEX
  5
8c9
  8
Layer_0
  10
94.868294
  20
165.25548
  0
VERTEX
  5
8ca
  8
Layer_0
  10
94.635101
  20
164.90817
  0
VERTEX
  5
8cb
  8
Layer_0
  10
94.444313
  20
164.63081
  0
VERTEX
  5
8cc
  8
Layer_0
  10
93.639801
  20
163.50232
  0
VERTEX
  5
8cd
  8
Layer_0
  10
92.824699
  20
162.38229
  0
VERTEX
  5
8ce
  8
Layer_0
  10
92.731361
  20
162.23447
  0
VERTEX
  5
8cf
  8
Layer_0
  10
92.692802
  20
162.06859
  0
VERTEX
  5
8d0
  8
Layer_0
  10
92.709946
  20
161.89915
  0
VERTEX
  5
8d1
  8
Layer_0
  10
92.783722
  20
161.74066
  0
VERTEX
  5
8d2
  8
Layer_0
  10
93.864693
  20
159.70821
  0
VERTEX
  5
8d3
  8
Layer_0
  10
94.974289
  20
157.6026
  0
VERTEX
  5
8d4
  8
Layer_0
  10
94.210419
  20
157.59659
  0
VERTEX
  5
8d5
  8
Layer_0
  10
93.501663
  20
157.61815
  0
VERTEX
  5
8d6
  8
Layer_0
  10
93.42173
  20
157.65604
  0
VERTEX
  5
8d7
  8
Layer_0
  10
93.344437
  20
157.74109
  0
VERTEX
  5
8d8
  8
Layer_0
  10
93.275101
  20
157.84947
  0
VERTEX
  5
8d9
  8
Layer_0
  10
93.219002
  20
157.95734
  0
VERTEX
  5
8da
  8
Layer_0
  10
92.494873
  20
159.38422
  0
VERTEX
  5
8db
  8
Layer_0
  10
91.767578
  20
160.83334
  0
VERTEX
  5
8dc
  8
Layer_0
  10
91.478874
  20
160.59004
  0
VERTEX
  5
8dd
  8
Layer_0
  10
91.259857
  20
160.32422
  0
VERTEX
  5
8de
  8
Layer_0
  10
91.181702
  20
160.17581
  0
VERTEX
  5
8df
  8
Layer_0
  10
91.127228
  20
160.01334
  0
VERTEX
  5
8e0
  8
Layer_0
  10
91.098526
  20
159.83397
  0
VERTEX
  5
8e1
  8
Layer_0
  10
91.097687
  20
159.63489
  0
VERTEX
  5
8e2
  8
Layer_0
  10
91.121887
  20
158.65338
  0
VERTEX
  5
8e3
  8
Layer_0
  10
91.108986
  20
157.63792
  0
VERTEX
  5
8e4
  8
Layer_0
  10
89.740936
  20
157.63792
  0
VERTEX
  5
8e5
  8
Layer_0
  10
89.738106
  20
167.9718
  0
SEQEND
  0
POLYLINE
  5
8e7
  8
Layer_0
  62
0
  70
1
  66
1
  10
0
  20
0
  30
0
  0
VERTEX
  5
8e7
  8
Layer_0
  10
84.61499
  20
161.39017
  0
VERTEX
  5
8e8
  8
Layer_0
  10
84.503098
  20
160.78745
  0
VERTEX
  5
8e9
  8
Layer_0
  10
84.398232
  20
160.19241
  0
VERTEX
  5
8ea
  8
Layer_0
  10
84.277725
  20
159.60904
  0
VERTEX
  5
8eb
  8
Layer_0
  10
84.118927
  20
159.04131
  0
VERTEX
  5
8ec
  8
Layer_0
  10
83.961533
  20
158.66054
  0
VERTEX
  5
8ed
  8
Layer_0
  10
83.762589
  20
158.33368
  0
VERTEX
  5
8ee
  8
Layer_0
  10
83.523331
  20
158.05965
  0
VERTEX
  5
8ef
  8
Layer_0
  10
83.244995
  20
157.83737
  0
VERTEX
  5
8f0
  8
Layer_0
  10
82.928833
  20
157.66579
  0
VERTEX
  5
8f1
  8
Layer_0
  10
82.576096
  20
157.54379
  0
VERTEX
  5
8f2
  8
Layer_0
  10
82.188004
  20
157.47032
  0
VERTEX
  5
8f3
  8
Layer_0
  10
81.765823
  20
157.44431
  0
VERTEX
  5
8f4
  8
Layer_0
  10
81.332314
  20
157.46518
  0
VERTEX
  5
8f5
  8
Layer_0
  10
80.93438
  20
157.53473
  0
VERTEX
  5
8f6
  8
Layer_0
  10
80.572876
  20
157.65381
  0
VERTEX
  5
8f7
  8
Layer_0
  10
80.248672
  20
157.82324
  0
VERTEX
  5
8f8
  8
Layer_0
  10
79.962631
  20
158.04388
  0
VERTEX
  5
8f9
  8
Layer_0
  10
79.715607
  20
158.31659
  0
VERTEX
  5
8fa
  8
Layer_0
  10
79.508461
  20
158.6422
  0
VERTEX
  5
8fb
  8
Layer_0
  10
79.342056
  20
159.02153
  0
VERTEX
  5
8fc
  8
Layer_0
  10
79.157516
  20
159.60623
  0
VERTEX
  5
8fd
  8
Layer_0
  10
79.025696
  20
160.20142
  0
VERTEX
  5
8fe
  8
Layer_0
  10
78.946609
  20
160.80359
  0
VERTEX
  5
8ff
  8
Layer_0
  10
78.920242
  20
161.40924
  0
VERTEX
  5
900
  8
Layer_0
  10
78.946609
  20
162.01492
  0
VERTEX
  5
901
  8
Layer_0
  10
79.025696
  20
162.61708
  0
VERTEX
  5
902
  8
Layer_0
  10
79.157516
  20
163.21228
  0
VERTEX
  5
903
  8
Layer_0
  10
79.342056
  20
163.79698
  0
VERTEX
  5
904
  8
Layer_0
  10
79.505493
  20
164.17551
  0
VERTEX
  5
905
  8
Layer_0
  10
79.708847
  20
164.50168
  0
VERTEX
  5
906
  8
Layer_0
  10
79.950958
  20
164.7762
  0
VERTEX
  5
907
  8
Layer_0
  10
80.230659
  20
164.99968
  0
VERTEX
  5
908
  8
Layer_0
  10
80.546799
  20
165.17284
  0
VERTEX
  5
909
  8
Layer_0
  10
80.898209
  20
165.2963
  0
VERTEX
  5
90a
  8
Layer_0
  10
81.283737
  20
165.37073
  0
VERTEX
  5
90b
  8
Layer_0
  10
81.702232
  20
165.3968
  0
VERTEX
  5
90c
  8
Layer_0
  10
82.137154
  20
165.37395
  0
VERTEX
  5
90d
  8
Layer_0
  10
82.535934
  20
165.30429
  0
VERTEX
  5
90e
  8
Layer_0
  10
82.897415
  20
165.18622
  0
VERTEX
  5
90f
  8
Layer_0
  10
83.220444
  20
165.01807
  0
VERTEX
  5
910
  8
Layer_0
  10
83.50386
  20
164.79825
  0
VERTEX
  5
911
  8
Layer_0
  10
83.74649
  20
164.52512
  0
VERTEX
  5
912
  8
Layer_0
  10
83.947189
  20
164.19708
  0
VERTEX
  5
913
  8
Layer_0
  10
84.104797
  20
163.81253
  0
VERTEX
  5
914
  8
Layer_0
  10
84.271362
  20
163.22298
  0
VERTEX
  5
915
  8
Layer_0
  10
84.395401
  20
162.61832
  0
VERTEX
  5
916
  8
Layer_0
  10
84.501686
  20
162.00517
  0
VERTEX
  5
917
  8
Layer_0
  10
84.61499
  20
161.39017
  0
SEQEND
  0
POLYLINE
  5
919
  8
Layer_0
  62
0
  70
1
  66
1
  10
0
  20
0
  30
0
  0
VERTEX
  5
919
  8
Layer_0
  10
83.132462
  20
161.41278
  0
VERTEX
  5
91a
  8
Layer_0
  10
83.075516
  20
161.85361
  0
VERTEX
  5
91b
  8
Layer_0
  10
83.021347
  20
162.29272
  0
VERTEX
  5
91c
  8
Layer_0
  10
82.957375
  20
162.72787
  0
VERTEX
  5
91d
  8
Layer_0
  10
82.87101
  20
163.15677
  0
VERTEX
  5
91e
  8
Layer_0
  10
82.79953
  20
163.38715
  0
VERTEX
  5
91f
  8
Layer_0
  10
82.70488
  20
163.58661
  0
VERTEX
  5
920
  8
Layer_0
  10
82.588669
  20
163.75536
  0
VERTEX
  5
921
  8
Layer_0
  10
82.452507
  20
163.89362
  0
VERTEX
  5
922
  8
Layer_0
  10
82.297989
  20
164.00162
  0
VERTEX
  5
923
  8
Layer_0
  10
82.126724
  20
164.07953
  0
VERTEX
  5
924
  8
Layer_0
  10
81.940323
  20
164.12759
  0
VERTEX
  5
925
  8
Layer_0
  10
81.740387
  20
164.14606
  0
VERTEX
  5
926
  8
Layer_0
  10
81.539719
  20
164.1338
  0
VERTEX
  5
927
  8
Layer_0
  10
81.351295
  20
164.0899
  0
VERTEX
  5
928
  8
Layer_0
  10
81.177055
  20
164.01477
  0
VERTEX
  5
929
  8
Layer_0
  10
81.018913
  20
163.90881
  0
VERTEX
  5
92a
  8
Layer_0
  10
80.878799
  20
163.77243
  0
VERTEX
  5
92b
  8
Layer_0
  10
80.758606
  20
163.60608
  0
VERTEX
  5
92c
  8
Layer_0
  10
80.660278
  20
163.41013
  0
VERTEX
  5
92d
  8
Layer_0
  10
80.585739
  20
163.18503
  0
VERTEX
  5
92e
  8
Layer_0
  10
80.485641
  20
162.74823
  0
VERTEX
  5
92f
  8
Layer_0
  10
80.414154
  20
162.30728
  0
VERTEX
  5
930
  8
Layer_0
  10
80.371262
  20
161.86356
  0
VERTEX
  5
931
  8
Layer_0
  10
80.356964
  20
161.41844
  0
VERTEX
  5
932
  8
Layer_0
  10
80.371262
  20
160.97333
  0
VERTEX
  5
933
  8
Layer_0
  10
80.414154
  20
160.5296
  0
VERTEX
  5
934
  8
Layer_0
  10
80.485641
  20
160.08865
  0
VERTEX
  5
935
  8
Layer_0
  10
80.585739
  20
159.65184
  0
VERTEX
  5
936
  8
Layer_0
  10
80.66069
  20
159.42577
  0
VERTEX
  5
937
  8
Layer_0
  10
80.7584
  20
159.23074
  0
VERTEX
  5
938
  8
Layer_0
  10
80.877419
  20
159.0665
  0
VERTEX
  5
939
  8
Layer_0
  10
81.016266
  20
158.93283
  0
VERTEX
  5
93a
  8
Layer_0
  10
81.173454
  20
158.82951
  0
VERTEX
  5
93b
  8
Layer_0
  10
81.347519
  20
158.75632
  0
VERTEX
  5
93c
  8
Layer_0
  10
81.536987
  20
158.71298
  0
VERTEX
  5
93d
  8
Layer_0
  10
81.740387
  20
158.6993
  0
VERTEX
  5
93e
  8
Layer_0
  10
81.942932
  20
158.71489
  0
VERTEX
  5
93f
  8
Layer_0
  10
82.130096
  20
158.75989
  0
VERTEX
  5
940
  8
Layer_0
  10
82.300842
  20
158.83484
  0
VERTEX
  5
941
  8
Layer_0
  10
82.454094
  20
158.94026
  0
VERTEX
  5
942
  8
Layer_0
  10
82.588806
  20
159.07668
  0
VERTEX
  5
943
  8
Layer_0
  10
82.703888
  20
159.24464
  0
VERTEX
  5
944
  8
Layer_0
  10
82.798317
  20
159.44467
  0
VERTEX
  5
945
  8
Layer_0
  10
82.87101
  20
159.67729
  0
VERTEX
  5
946
  8
Layer_0
  10
82.958572
  20
160.1013
  0
VERTEX
  5
947
  8
Layer_0
  10
83.022408
  20
160.53391
  0
VERTEX
  5
948
  8
Layer_0
  10
83.075912
  20
160.97209
  0
VERTEX
  5
949
  8
Layer_0
  10
83.132462
  20
161.41278
  0
SEQEND
  0
POLYLINE
  5
94b
  8
Layer_0
  62
0
  70
1
  66
1
  10
0
  20
0
  30
0
  0
VERTEX
  5
94b
  8
Layer_0
  10
56.324059
  20
157.64075
  0
VERTEX
  5
94c
  8
Layer_0
  10
56.081757
  20
157.60822
  0
VERTEX
  5
94d
  8
Layer_0
  10
55.869698
  20
157.58163
  0
VERTEX
  5
94e
  8
Layer_0
  10
55.685867
  20
157.56256
  0
VERTEX
  5
94f
  8
Layer_0
  10
55.528248
  20
157.55257
  0
VERTEX
  5
950
  8
Layer_0
  10
55.283592
  20
157.5661
  0
VERTEX
  5
951
  8
Layer_0
  10
55.119591
  20
157.63477
  0
VERTEX
  5
952
  8
Layer_0
  10
55.020115
  20
157.77115
  0
VERTEX
  5
953
  8
Layer_0
  10
54.969032
  20
157.98776
  0
VERTEX
  5
954
  8
Layer_0
  10
54.956596
  20
158.1301
  0
VERTEX
  5
955
  8
Layer_0
  10
54.950214
  20
158.29721
  0
VERTEX
  5
956
  8
Layer_0
  10
54.947861
  20
158.49066
  0
VERTEX
  5
957
  8
Layer_0
  10
54.947525
  20
158.71202
  0
VERTEX
  5
958
  8
Layer_0
  10
54.948586
  20
161.67513
  0
VERTEX
  5
959
  8
Layer_0
  10
54.956005
  20
164.63506
  0
VERTEX
  5
95a
  8
Layer_0
  10
54.936974
  20
164.81953
  0
VERTEX
  5
95b
  8
Layer_0
  10
54.929863
  20
165.00851
  0
VERTEX
  5
95c
  8
Layer_0
  10
54.954212
  20
165.09285
  0
VERTEX
  5
95d
  8
Layer_0
  10
55.009666
  20
165.16412
  0
VERTEX
  5
95e
  8
Layer_0
  10
55.105598
  20
165.21756
  0
VERTEX
  5
95f
  8
Layer_0
  10
55.251381
  20
165.24841
  0
VERTEX
  5
960
  8
Layer_0
  10
55.470444
  20
165.26608
  0
VERTEX
  5
961
  8
Layer_0
  10
55.644512
  20
165.26962
  0
VERTEX
  5
962
  8
Layer_0
  10
55.780258
  20
165.25487
  0
VERTEX
  5
963
  8
Layer_0
  10
55.88435
  20
165.21768
  0
VERTEX
  5
964
  8
Layer_0
  10
55.963467
  20
165.15384
  0
VERTEX
  5
965
  8
Layer_0
  10
56.024284
  20
165.0592
  0
VERTEX
  5
966
  8
Layer_0
  10
56.073479
  20
164.9296
  0
VERTEX
  5
967
  8
Layer_0
  10
56.117718
  20
164.76083
  0
VERTEX
  5
968
  8
Layer_0
  10
56.149189
  20
164.67087
  0
VERTEX
  5
969
  8
Layer_0
  10
56.185555
  20
164.58276
  0
VERTEX
  5
96a
  8
Layer_0
  10
56.368752
  20
164.74918
  0
VERTEX
  5
96b
  8
Layer_0
  10
56.540283
  20
164.90074
  0
VERTEX
  5
96c
  8
Layer_0
  10
56.798805
  20
165.0929
  0
VERTEX
  5
96d
  8
Layer_0
  10
57.065956
  20
165.23845
  0
VERTEX
  5
96e
  8
Layer_0
  10
57.340691
  20
165.33963
  0
VERTEX
  5
96f
  8
Layer_0
  10
57.621971
  20
165.39874
  0
VERTEX
  5
970
  8
Layer_0
  10
57.908749
  20
165.41803
  0
VERTEX
  5
971
  8
Layer_0
  10
58.199982
  20
165.39978
  0
VERTEX
  5
972
  8
Layer_0
  10
58.494625
  20
165.34625
  0
VERTEX
  5
973
  8
Layer_0
  10
58.791634
  20
165.25972
  0
VERTEX
  5
974
  8
Layer_0
  10
59.041107
  20
165.15128
  0
VERTEX
  5
975
  8
Layer_0
  10
59.255032
  20
165.0123
  0
VERTEX
  5
976
  8
Layer_0
  10
59.434536
  20
164.84564
  0
VERTEX
  5
977
  8
Layer_0
  10
59.580772
  20
164.65413
  0
VERTEX
  5
978
  8
Layer_0
  10
59.694878
  20
164.44061
  0
VERTEX
  5
979
  8
Layer_0
  10
59.777992
  20
164.20798
  0
VERTEX
  5
97a
  8
Layer_0
  10
59.831261
  20
163.95905
  0
VERTEX
  5
97b
  8
Layer_0
  10
59.855831
  20
163.69664
  0
VERTEX
  5
97c
  8
Layer_0
  10
59.90123
  20
161.78871
  0
VERTEX
  5
97d
  8
Layer_0
  10
59.918015
  20
159.8808
  0
VERTEX
  5
97e
  8
Layer_0
  10
59.914307
  20
158.92595
  0
VERTEX
  5
97f
  8
Layer_0
  10
59.918015
  20
157.97005
  0
VERTEX
  5
980
  8
Layer_0
  10
59.902447
  20
157.78793
  0
VERTEX
  5
981
  8
Layer_0
  10
59.839046
  20
157.66425
  0
VERTEX
  5
982
  8
Layer_0
  10
59.718674
  20
157.59702
  0
VERTEX
  5
983
  8
Layer_0
  10
59.532188
  20
157.58423
  0
VERTEX
  5
984
  8
Layer_0
  10
59.058739
  20
157.59113
  0
VERTEX
  5
985
  8
Layer_0
  10
58.530178
  20
157.58423
  0
VERTEX
  5
986
  8
Layer_0
  10
58.530178
  20
158.13965
  0
VERTEX
  5
987
  8
Layer_0
  10
58.530178
  20
160.55191
  0
VERTEX
  5
988
  8
Layer_0
  10
58.530178
  20
162.96315
  0
VERTEX
  5
989
  8
Layer_0
  10
58.521057
  20
163.21922
  0
VERTEX
  5
98a
  8
Layer_0
  10
58.492725
  20
163.43715
  0
VERTEX
  5
98b
  8
Layer_0
  10
58.443726
  20
163.61987
  0
VERTEX
  5
98c
  8
Layer_0
  10
58.372597
  20
163.77031
  0
VERTEX
  5
98d
  8
Layer_0
  10
58.277885
  20
163.89142
  0
VERTEX
  5
98e
  8
Layer_0
  10
58.158131
  20
163.98608
  0
VERTEX
  5
98f
  8
Layer_0
  10
58.011879
  20
164.05728
  0
VERTEX
  5
990
  8
Layer_0
  10
57.837673
  20
164.10789
  0
VERTEX
  5
991
  8
Layer_0
  10
57.639957
  20
164.13394
  0
VERTEX
  5
992
  8
Layer_0
  10
57.446548
  20
164.12444
  0
VERTEX
  5
993
  8
Layer_0
  10
57.260826
  20
164.07985
  0
VERTEX
  5
994
  8
Layer_0
  10
57.086166
  20
164.00067
  0
VERTEX
  5
995
  8
Layer_0
  10
56.925945
  20
163.88737
  0
VERTEX
  5
996
  8
Layer_0
  10
56.783546
  20
163.74045
  0
VERTEX
  5
997
  8
Layer_0
  10
56.662354
  20
163.56035
  0
VERTEX
  5
998
  8
Layer_0
  10
56.565727
  20
163.34756
  0
VERTEX
  5
999
  8
Layer_0
  10
56.467678
  20
163.03012
  0
VERTEX
  5
99a
  8
Layer_0
  10
56.395935
  20
162.70627
  0
VERTEX
  5
99b
  8
Layer_0
  10
56.350792
  20
162.37766
  0
VERTEX
  5
99c
  8
Layer_0
  10
56.332535
  20
162.04593
  0
VERTEX
  5
99d
  8
Layer_0
  10
56.320877
  20
159.85236
  0
VERTEX
  5
99e
  8
Layer_0
  10
56.324059
  20
157.64075
  0
SEQEND
  0
POLYLINE
  5
9a0
  8
Layer_0
  62
0
  70
1
  66
1
  10
0
  20
0
  30
0
  0
VERTEX
  5
9a0
  8
Layer_0
  10
100.06491
  20
162.88542
  0
VERTEX
  5
9a1
  8
Layer_0
  10
98.651642
  20
162.88542
  0
VERTEX
  5
9a2
  8
Layer_0
  10
98.624603
  20
163.14017
  0
VERTEX
  5
9a3
  8
Layer_0
  10
98.592285
  20
163.37582
  0
VERTEX
  5
9a4
  8
Layer_0
  10
98.547859
  20
163.55548
  0
VERTEX
  5
9a5
  8
Layer_0
  10
98.484619
  20
163.71178
  0
VERTEX
  5
9a6
  8
Layer_0
  10
98.402687
  20
163.84464
  0
VERTEX
  5
9a7
  8
Layer_0
  10
98.302208
  20
163.95404
  0
VERTEX
  5
9a8
  8
Layer_0
  10
98.183311
  20
164.03992
  0
VERTEX
  5
9a9
  8
Layer_0
  10
98.046135
  20
164.10222
  0
VERTEX
  5
9aa
  8
Layer_0
  10
97.890808
  20
164.14091
  0
VERTEX
  5
9ab
  8
Layer_0
  10
97.717461
  20
164.15594
  0
VERTEX
  5
9ac
  8
Layer_0
  10
97.420853
  20
164.12408
  0
VERTEX
  5
9ad
  8
Layer_0
  10
97.172997
  20
164.02081
  0
VERTEX
  5
9ae
  8
Layer_0
  10
97.070168
  20
163.9388
  0
VERTEX
  5
9af
  8
Layer_0
  10
96.98291
  20
163.83459
  0
VERTEX
  5
9b0
  8
Layer_0
  10
96.912354
  20
163.70677
  0
VERTEX
  5
9b1
  8
Layer_0
  10
96.859604
  20
163.55389
  0
VERTEX
  5
9b2
  8
Layer_0
  10
96.824066
  20
163.37842
  0
VERTEX
  5
9b3
  8
Layer_0
  10
96.814621
  20
163.21718
  0
VERTEX
  5
9b4
  8
Layer_0
  10
96.832306
  20
163.06946
  0
VERTEX
  5
9b5
  8
Layer_0
  10
96.878159
  20
162.93452
  0
VERTEX
  5
9b6
  8
Layer_0
  10
96.953224
  20
162.81165
  0
VERTEX
  5
9b7
  8
Layer_0
  10
97.058548
  20
162.7001
  0
VERTEX
  5
9b8
  8
Layer_0
  10
97.195168
  20
162.59917
  0
VERTEX
  5
9b9
  8
Layer_0
  10
97.364143
  20
162.50807
  0
VERTEX
  5
9ba
  8
Layer_0
  10
98.070786
  20
162.2171
  0
VERTEX
  5
9bb
  8
Layer_0
  10
98.77742
  20
161.9357
  0
VERTEX
  5
9bc
  8
Layer_0
  10
99.173492
  20
161.73123
  0
VERTEX
  5
9bd
  8
Layer_0
  10
99.50441
  20
161.4897
  0
VERTEX
  5
9be
  8
Layer_0
  10
99.770477
  20
161.21091
  0
VERTEX
  5
9bf
  8
Layer_0
  10
99.971985
  20
160.89465
  0
VERTEX
  5
9c0
  8
Layer_0
  10
100.10923
  20
160.54068
  0
VERTEX
  5
9c1
  8
Layer_0
  10
100.18252
  20
160.1488
  0
VERTEX
  5
9c2
  8
Layer_0
  10
100.19214
  20
159.71881
  0
VERTEX
  5
9c3
  8
Layer_0
  10
100.1384
  20
159.25047
  0
VERTEX
  5
9c4
  8
Layer_0
  10
100.0403
  20
158.86172
  0
VERTEX
  5
9c5
  8
Layer_0
  10
99.891006
  20
158.51614
  0
VERTEX
  5
9c6
  8
Layer_0
  10
99.691803
  20
158.21567
  0
VERTEX
  5
9c7
  8
Layer_0
  10
99.443954
  20
157.96228
  0
VERTEX
  5
9c8
  8
Layer_0
  10
99.148743
  20
157.75789
  0
VERTEX
  5
9c9
  8
Layer_0
  10
98.807434
  20
157.60449
  0
VERTEX
  5
9ca
  8
Layer_0
  10
98.421303
  20
157.50403
  0
VERTEX
  5
9cb
  8
Layer_0
  10
97.991638
  20
157.45844
  0
VERTEX
  5
9cc
  8
Layer_0
  10
97.645813
  20
157.45172
  0
VERTEX
  5
9cd
  8
Layer_0
  10
97.30114
  20
157.47314
  0
VERTEX
  5
9ce
  8
Layer_0
  10
96.959351
  20
157.52255
  0
VERTEX
  5
9cf
  8
Layer_0
  10
96.622177
  20
157.59976
  0
VERTEX
  5
9d0
  8
Layer_0
  10
96.261879
  20
157.75107
  0
VERTEX
  5
9d1
  8
Layer_0
  10
95.947159
  20
157.96753
  0
VERTEX
  5
9d2
  8
Layer_0
  10
95.682526
  20
158.23956
  0
VERTEX
  5
9d3
  8
Layer_0
  10
95.472473
  20
158.55762
  0
VERTEX
  5
9d4
  8
Layer_0
  10
95.321518
  20
158.91209
  0
VERTEX
  5
9d5
  8
Layer_0
  10
95.234161
  20
159.29344
  0
VERTEX
  5
9d6
  8
Layer_0
  10
95.214905
  20
159.69208
  0
VERTEX
  5
9d7
  8
Layer_0
  10
95.268257
  20
160.09843
  0
VERTEX
  5
9d8
  8
Layer_0
  10
96.620758
  20
160.09843
  0
VERTEX
  5
9d9
  8
Layer_0
  10
96.64267
  20
159.88751
  0
VERTEX
  5
9da
  8
Layer_0
  10
96.664566
  20
159.68294
  0
VERTEX
  5
9db
  8
Layer_0
  10
96.700806
  20
159.46823
  0
VERTEX
  5
9dc
  8
Layer_0
  10
96.76239
  20
159.27724
  0
VERTEX
  5
9dd
  8
Layer_0
  10
96.848557
  20
159.11075
  0
VERTEX
  5
9de
  8
Layer_0
  10
96.958527
  20
158.96959
  0
VERTEX
  5
9df
  8
Layer_0
  10
97.09156
  20
158.85452
  0
VERTEX
  5
9e0
  8
Layer_0
  10
97.246887
  20
158.76634
  0
VERTEX
  5
9e1
  8
Layer_0
  10
97.423737
  20
158.70586
  0
VERTEX
  5
9e2
  8
Layer_0
  10
97.621361
  20
158.67386
  0
VERTEX
  5
9e3
  8
Layer_0
  10
97.821922
  20
158.67035
  0
VERTEX
  5
9e4
  8
Layer_0
  10
98.007225
  20
158.69394
  0
VERTEX
  5
9e5
  8
Layer_0
  10
98.175903
  20
158.74339
  0
VERTEX
  5
9e6
  8
Layer_0
  10
98.326584
  20
158.81747
  0
VERTEX
  5
9e7
  8
Layer_0
  10
98.457932
  20
158.91495
  0
VERTEX
  5
9e8
  8
Layer_0
  10
98.568558
  20
159.03458
  0
VERTEX
  5
9e9
  8
Layer_0
  10
98.657135
  20
159.17509
  0
VERTEX
  5
9ea
  8
Layer_0
  10
98.722298
  20
159.33527
  0
VERTEX
  5
9eb
  8
Layer_0
  10
98.765373
  20
159.53754
  0
VERTEX
  5
9ec
  8
Layer_0
  10
98.773811
  20
159.73108
  0
VERTEX
  5
9ed
  8
Layer_0
  10
98.747704
  20
159.9144
  0
VERTEX
  5
9ee
  8
Layer_0
  10
98.687134
  20
160.08607
  0
VERTEX
  5
9ef
  8
Layer_0
  10
98.592178
  20
160.24463
  0
VERTEX
  5
9f0
  8
Layer_0
  10
98.462936
  20
160.38861
  0
VERTEX
  5
9f1
  8
Layer_0
  10
98.299469
  20
160.51654
  0
VERTEX
  5
9f2
  8
Layer_0
  10
98.101868
  20
160.627
  0
VERTEX
  5
9f3
  8
Layer_0
  10
97.39682
  20
160.92345
  0
VERTEX
  5
9f4
  8
Layer_0
  10
96.688591
  20
161.21352
  0
VERTEX
  5
9f5
  8
Layer_0
  10
96.321442
  20
161.40829
  0
VERTEX
  5
9f6
  8
Layer_0
  10
96.015717
  20
161.63577
  0
VERTEX
  5
9f7
  8
Layer_0
  10
95.770981
  20
161.89644
  0
VERTEX
  5
9f8
  8
Layer_0
  10
95.586777
  20
162.1908
  0
VERTEX
  5
9f9
  8
Layer_0
  10
95.462654
  20
162.51933
  0
VERTEX
  5
9fa
  8
Layer_0
  10
95.398163
  20
162.88255
  0
VERTEX
  5
9fb
  8
Layer_0
  10
95.392868
  20
163.28094
  0
VERTEX
  5
9fc
  8
Layer_0
  10
95.446327
  20
163.71501
  0
VERTEX
  5
9fd
  8
Layer_0
  10
95.537079
  20
164.05389
  0
VERTEX
  5
9fe
  8
Layer_0
  10
95.681549
  20
164.36237
  0
VERTEX
  5
9ff
  8
Layer_0
  10
95.87571
  20
164.63702
  0
VERTEX
  5
a00
  8
Layer_0
  10
96.115509
  20
164.87444
  0
VERTEX
  5
a01
  8
Layer_0
  10
96.396919
  20
165.07126
  0
VERTEX
  5
a02
  8
Layer_0
  10
96.715897
  20
165.22406
  0
VERTEX
  5
a03
  8
Layer_0
  10
97.06839
  20
165.32947
  0
VERTEX
  5
a04
  8
Layer_0
  10
97.450356
  20
165.38409
  0
VERTEX
  5
a05
  8
Layer_0
  10
97.923012
  20
165.39304
  0
VERTEX
  5
a06
  8
Layer_0
  10
98.353058
  20
165.34705
  0
VERTEX
  5
a07
  8
Layer_0
  10
98.738823
  20
165.24652
  0
VERTEX
  5
a08
  8
Layer_0
  10
99.078629
  20
165.09189
  0
VERTEX
  5
a09
  8
Layer_0
  10
99.370796
  20
164.88362
  0
VERTEX
  5
a0a
  8
Layer_0
  10
99.613663
  20
164.62212
  0
VERTEX
  5
a0b
  8
Layer_0
  10
99.805557
  20
164.3078
  0
VERTEX
  5
a0c
  8
Layer_0
  10
99.944786
  20
163.94113
  0
VERTEX
  5
a0d
  8
Layer_0
  10
99.995941
  20
163.6935
  0
VERTEX
  5
a0e
  8
Layer_0
  10
100.02339
  20
163.43448
  0
VERTEX
  5
a0f
  8
Layer_0
  10
100.04156
  20
163.16486
  0
VERTEX
  5
a10
  8
Layer_0
  10
100.06491
  20
162.88542
  0
SEQEND
  0
POLYLINE
  5
a12
  8
Layer_0
  62
0
  70
1
  66
1
  10
0
  20
0
  30
0
  0
VERTEX
  5
a12
  8
Layer_0
  10
33.262241
  20
174.50819
  0
VERTEX
  5
a13
  8
Layer_0
  10
33.262241
  20
173.13589
  0
VERTEX
  5
a14
  8
Layer_0
  10
32.27277
  20
173.0163
  0
VERTEX
  5
a15
  8
Layer_0
  10
31.307682
  20
172.87021
  0
VERTEX
  5
a16
  8
Layer_0
  10
30.501837
  20
172.67709
  0
VERTEX
  5
a17
  8
Layer_0
  10
29.723465
  20
172.41658
  0
VERTEX
  5
a18
  8
Layer_0
  10
28.97567
  20
172.09227
  0
VERTEX
  5
a19
  8
Layer_0
  10
28.261543
  20
171.70776
  0
VERTEX
  5
a1a
  8
Layer_0
  10
27.584185
  20
171.26666
  0
VERTEX
  5
a1b
  8
Layer_0
  10
26.94669
  20
170.7726
  0
VERTEX
  5
a1c
  8
Layer_0
  10
26.352156
  20
170.22916
  0
VERTEX
  5
a1d
  8
Layer_0
  10
25.803682
  20
169.63998
  0
VERTEX
  5
a1e
  8
Layer_0
  10
25.304363
  20
169.00865
  0
VERTEX
  5
a1f
  8
Layer_0
  10
24.857296
  20
168.33878
  0
VERTEX
  5
a20
  8
Layer_0
  10
24.46558
  20
167.63397
  0
VERTEX
  5
a21
  8
Layer_0
  10
24.132309
  20
166.89783
  0
VERTEX
  5
a22
  8
Layer_0
  10
23.86058
  20
166.13397
  0
VERTEX
  5
a23
  8
Layer_0
  10
23.653496
  20
165.34599
  0
VERTEX
  5
a24
  8
Layer_0
  10
23.514149
  20
164.53754
  0
VERTEX
  5
a25
  8
Layer_0
  10
23.445635
  20
163.71219
  0
VERTEX
  5
a26
  8
Layer_0
  10
23.434395
  20
163.58018
  0
VERTEX
  5
a27
  8
Layer_0
  10
23.411364
  20
163.47241
  0
VERTEX
  5
a28
  8
Layer_0
  10
23.375082
  20
163.38708
  0
VERTEX
  5
a29
  8
Layer_0
  10
23.324093
  20
163.32246
  0
VERTEX
  5
a2a
  8
Layer_0
  10
23.172165
  20
163.24832
  0
VERTEX
  5
a2b
  8
Layer_0
  10
22.943922
  20
163.23592
  0
VERTEX
  5
a2c
  8
Layer_0
  10
22.621674
  20
163.24265
  0
VERTEX
  5
a2d
  8
Layer_0
  10
22.379848
  20
163.23969
  0
VERTEX
  5
a2e
  8
Layer_0
  10
22.208775
  20
163.24789
  0
VERTEX
  5
a2f
  8
Layer_0
  10
22.098783
  20
163.28821
  0
VERTEX
  5
a30
  8
Layer_0
  10
22.040199
  20
163.38153
  0
VERTEX
  5
a31
  8
Layer_0
  10
22.02335
  20
163.54874
  0
VERTEX
  5
a32
  8
Layer_0
  10
22.027554
  20
163.6666
  0
VERTEX
  5
a33
  8
Layer_0
  10
22.038565
  20
163.81075
  0
VERTEX
  5
a34
  8
Layer_0
  10
22.055174
  20
163.98383
  0
VERTEX
  5
a35
  8
Layer_0
  10
22.076172
  20
164.18846
  0
VERTEX
  5
a36
  8
Layer_0
  10
22.21244
  20
165.15842
  0
VERTEX
  5
a37
  8
Layer_0
  10
22.419382
  20
166.09511
  0
VERTEX
  5
a38
  8
Layer_0
  10
22.694698
  20
166.99603
  0
VERTEX
  5
a39
  8
Layer_0
  10
23.036095
  20
167.85867
  0
VERTEX
  5
a3a
  8
Layer_0
  10
23.441269
  20
168.68056
  0
VERTEX
  5
a3b
  8
Layer_0
  10
23.907925
  20
169.45917
  0
VERTEX
  5
a3c
  8
Layer_0
  10
24.433764
  20
170.19202
  0
VERTEX
  5
a3d
  8
Layer_0
  10
25.016489
  20
170.8766
  0
VERTEX
  5
a3e
  8
Layer_0
  10
25.653803
  20
171.51044
  0
VERTEX
  5
a3f
  8
Layer_0
  10
26.343407
  20
172.091
  0
VERTEX
  5
a40
  8
Layer_0
  10
27.083
  20
172.6158
  0
VERTEX
  5
a41
  8
Layer_0
  10
27.870289
  20
173.08234
  0
VERTEX
  5
a42
  8
Layer_0
  10
28.702972
  20
173.48814
  0
VERTEX
  5
a43
  8
Layer_0
  10
29.578754
  20
173.83067
  0
VERTEX
  5
a44
  8
Layer_0
  10
30.495338
  20
174.10745
  0
VERTEX
  5
a45
  8
Layer_0
  10
31.450422
  20
174.31598
  0
VERTEX
  5
a46
  8
Layer_0
  10
32.330364
  20
174.42587
  0
VERTEX
  5
a47
  8
Layer_0
  10
33.262241
  20
174.50819
  0
SEQEND
  0
POLYLINE
  5
a49
  8
Layer_0
  62
0
  70
1
  66
1
  10
0
  20
0
  30
0
  0
VERTEX
  5
a49
  8
Layer_0
  10
69.223015
  20
157.61108
  0
VERTEX
  5
a4a
  8
Layer_0
  10
67.91291
  20
157.61108
  0
VERTEX
  5
a4b
  8
Layer_0
  10
67.91291
  20
167.96896
  0
VERTEX
  5
a4c
  8
Layer_0
  10
69.225845
  20
167.96896
  0
VERTEX
  5
a4d
  8
Layer_0
  10
69.223015
  20
157.61108
  0
SEQEND
  0
POLYLINE
  5
a4f
  8
Layer_0
  62
0
  70
1
  66
1
  10
0
  20
0
  30
0
  0
VERTEX
  5
a4f
  8
Layer_0
  10
85.698975
  20
157.62097
  0
VERTEX
  5
a50
  8
Layer_0
  10
85.698975
  20
158.18628
  0
VERTEX
  5
a51
  8
Layer_0
  10
85.698975
  20
161.41208
  0
VERTEX
  5
a52
  8
Layer_0
  10
85.698975
  20
164.63788
  0
VERTEX
  5
a53
  8
Layer_0
  10
85.679939
  20
164.82239
  0
VERTEX
  5
a54
  8
Layer_0
  10
85.672829
  20
165.01152
  0
VERTEX
  5
a55
  8
Layer_0
  10
85.697182
  20
165.09602
  0
VERTEX
  5
a56
  8
Layer_0
  10
85.75264
  20
165.16754
  0
VERTEX
  5
a57
  8
Layer_0
  10
85.848564
  20
165.22133
  0
VERTEX
  5
a58
  8
Layer_0
  10
85.994347
  20
165.25266
  0
VERTEX
  5
a59
  8
Layer_0
  10
86.221405
  20
165.27136
  0
VERTEX
  5
a5a
  8
Layer_0
  10
86.400734
  20
165.2756
  0
VERTEX
  5
a5b
  8
Layer_0
  10
86.539627
  20
165.26071
  0
VERTEX
  5
a5c
  8
Layer_0
  10
86.64534
  20
165.22209
  0
VERTEX
  5
a5d
  8
Layer_0
  10
86.725151
  20
165.15503
  0
VERTEX
  5
a5e
  8
Layer_0
  10
86.786339
  20
165.0549
  0
VERTEX
  5
a5f
  8
Layer_0
  10
86.836151
  20
164.91705
  0
VERTEX
  5
a60
  8
Layer_0
  10
86.881889
  20
164.7368
  0
VERTEX
  5
a61
  8
Layer_0
  10
86.908638
  20
164.66942
  0
VERTEX
  5
a62
  8
Layer_0
  10
86.939827
  20
164.60396
  0
VERTEX
  5
a63
  8
Layer_0
  10
87.110832
  20
164.80977
  0
VERTEX
  5
a64
  8
Layer_0
  10
87.273361
  20
165.00392
  0
VERTEX
  5
a65
  8
Layer_0
  10
87.412613
  20
165.14151
  0
VERTEX
  5
a66
  8
Layer_0
  10
87.56057
  20
165.24811
  0
VERTEX
  5
a67
  8
Layer_0
  10
87.716408
  20
165.32562
  0
VERTEX
  5
a68
  8
Layer_0
  10
87.879303
  20
165.37596
  0
VERTEX
  5
a69
  8
Layer_0
  10
88.222946
  20
165.40259
  0
VERTEX
  5
a6a
  8
Layer_0
  10
88.584877
  20
165.34311
  0
VERTEX
  5
a6b
  8
Layer_0
  10
88.669876
  20
165.29619
  0
VERTEX
  5
a6c
  8
Layer_0
  10
88.740288
  20
165.23132
  0
VERTEX
  5
a6d
  8
Layer_0
  10
88.793411
  20
165.1517
  0
VERTEX
  5
a6e
  8
Layer_0
  10
88.826546
  20
165.06046
  0
VERTEX
  5
a6f
  8
Layer_0
  10
88.843323
  20
164.49991
  0
VERTEX
  5
a70
  8
Layer_0
  10
88.837852
  20
163.9595
  0
VERTEX
  5
a71
  8
Layer_0
  10
88.769119
  20
163.9203
  0
VERTEX
  5
a72
  8
Layer_0
  10
88.696526
  20
163.88884
  0
VERTEX
  5
a73
  8
Layer_0
  10
88.277473
  20
163.84216
  0
VERTEX
  5
a74
  8
Layer_0
  10
87.932289
  20
163.76138
  0
VERTEX
  5
a75
  8
Layer_0
  10
87.655212
  20
163.63992
  0
VERTEX
  5
a76
  8
Layer_0
  10
87.440475
  20
163.47122
  0
VERTEX
  5
a77
  8
Layer_0
  10
87.282318
  20
163.24872
  0
VERTEX
  5
a78
  8
Layer_0
  10
87.174957
  20
162.96588
  0
VERTEX
  5
a79
  8
Layer_0
  10
87.112656
  20
162.61613
  0
VERTEX
  5
a7a
  8
Layer_0
  10
87.08963
  20
162.19292
  0
VERTEX
  5
a7b
  8
Layer_0
  10
87.083801
  20
160.18607
  0
VERTEX
  5
a7c
  8
Layer_0
  10
87.08963
  20
158.17921
  0
VERTEX
  5
a7d
  8
Layer_0
  10
87.08963
  20
157.62946
  0
VERTEX
  5
a7e
  8
Layer_0
  10
85.698975
  20
157.62097
  0
SEQEND
  0
POLYLINE
  5
a80
  8
Layer_0
  62
0
  70
1
  66
1
  10
0
  20
0
  30
0
  0
VERTEX
  5
a80
  8
Layer_0
  10
46.910233
  20
165.24277
  0
VERTEX
  5
a81
  8
Layer_0
  10
46.910233
  20
157.61108
  0
VERTEX
  5
a82
  8
Layer_0
  10
45.560555
  20
157.61108
  0
VERTEX
  5
a83
  8
Layer_0
  10
45.542007
  20
157.86777
  0
VERTEX
  5
a84
  8
Layer_0
  10
45.530876
  20
158.12128
  0
VERTEX
  5
a85
  8
Layer_0
  10
45.533703
  20
161.38895
  0
VERTEX
  5
a86
  8
Layer_0
  10
45.519569
  20
164.65767
  0
VERTEX
  5
a87
  8
Layer_0
  10
45.525284
  20
164.81435
  0
VERTEX
  5
a88
  8
Layer_0
  10
45.544365
  20
164.94731
  0
VERTEX
  5
a89
  8
Layer_0
  10
45.579712
  20
165.05655
  0
VERTEX
  5
a8a
  8
Layer_0
  10
45.634224
  20
165.14207
  0
VERTEX
  5
a8b
  8
Layer_0
  10
45.710793
  20
165.20389
  0
VERTEX
  5
a8c
  8
Layer_0
  10
45.812317
  20
165.24197
  0
VERTEX
  5
a8d
  8
Layer_0
  10
45.9417
  20
165.25635
  0
VERTEX
  5
a8e
  8
Layer_0
  10
46.101837
  20
165.24699
  0
VERTEX
  5
a8f
  8
Layer_0
  10
46.505974
  20
165.23303
  0
VERTEX
  5
a90
  8
Layer_0
  10
46.910233
  20
165.24277
  0
SEQEND
  0
POLYLINE
  5
a92
  8
Layer_0
  62
0
  70
1
  66
1
  10
0
  20
0
  30
0
  0
VERTEX
  5
a92
  8
Layer_0
  10
33.267895
  20
166.02147
  0
VERTEX
  5
a93
  8
Layer_0
  10
33.267895
  20
164.69299
  0
VERTEX
  5
a94
  8
Layer_0
  10
33.005142
  20
164.63321
  0
VERTEX
  5
a95
  8
Layer_0
  10
32.765629
  20
164.54843
  0
VERTEX
  5
a96
  8
Layer_0
  10
32.550461
  20
164.43729
  0
VERTEX
  5
a97
  8
Layer_0
  10
32.360748
  20
164.29852
  0
VERTEX
  5
a98
  8
Layer_0
  10
32.197598
  20
164.1308
  0
VERTEX
  5
a99
  8
Layer_0
  10
32.062126
  20
163.93282
  0
VERTEX
  5
a9a
  8
Layer_0
  10
31.955437
  20
163.70326
  0
VERTEX
  5
a9b
  8
Layer_0
  10
31.878643
  20
163.44084
  0
VERTEX
  5
a9c
  8
Layer_0
  10
31.791994
  20
163.32069
  0
VERTEX
  5
a9d
  8
Layer_0
  10
31.659586
  20
163.25429
  0
VERTEX
  5
a9e
  8
Layer_0
  10
31.095865
  20
163.24261
  0
VERTEX
  5
a9f
  8
Layer_0
  10
30.537445
  20
163.2458
  0
VERTEX
  5
aa0
  8
Layer_0
  10
30.530411
  20
163.51912
  0
VERTEX
  5
aa1
  8
Layer_0
  10
30.555763
  20
163.78775
  0
VERTEX
  5
aa2
  8
Layer_0
  10
30.611637
  20
164.04985
  0
VERTEX
  5
aa3
  8
Layer_0
  10
30.696175
  20
164.30356
  0
VERTEX
  5
aa4
  8
Layer_0
  10
30.807507
  20
164.54703
  0
VERTEX
  5
aa5
  8
Layer_0
  10
30.943775
  20
164.77841
  0
VERTEX
  5
aa6
  8
Layer_0
  10
31.103111
  20
164.99586
  0
VERTEX
  5
aa7
  8
Layer_0
  10
31.283657
  20
165.19754
  0
VERTEX
  5
aa8
  8
Layer_0
  10
31.483545
  20
165.38161
  0
VERTEX
  5
aa9
  8
Layer_0
  10
31.700914
  20
165.54619
  0
VERTEX
  5
aaa
  8
Layer_0
  10
31.933903
  20
165.68945
  0
VERTEX
  5
aab
  8
Layer_0
  10
32.180645
  20
165.80957
  0
VERTEX
  5
aac
  8
Layer_0
  10
32.439278
  20
165.90468
  0
VERTEX
  5
aad
  8
Layer_0
  10
32.707939
  20
165.97293
  0
VERTEX
  5
aae
  8
Layer_0
  10
32.984764
  20
166.01247
  0
VERTEX
  5
aaf
  8
Layer_0
  10
33.267895
  20
166.02147
  0
SEQEND
  0
POLYLINE
  5
ab1
  8
Layer_0
  62
0
  70
1
  66
1
  10
0
  20
0
  30
0
  0
VERTEX
  5
ab1
  8
Layer_0
  10
20.65583
  20
159.08795
  0
VERTEX
  5
ab2
  8
Layer_0
  10
20.65583
  20
160.3924
  0
VERTEX
  5
ab3
  8
Layer_0
  10
20.934599
  20
160.45973
  0
VERTEX
  5
ab4
  8
Layer_0
  10
21.186867
  20
160.55638
  0
VERTEX
  5
ab5
  8
Layer_0
  10
21.411049
  20
160.68332
  0
VERTEX
  5
ab6
  8
Layer_0
  10
21.605551
  20
160.84148
  0
VERTEX
  5
ab7
  8
Layer_0
  10
21.768784
  20
161.03183
  0
VERTEX
  5
ab8
  8
Layer_0
  10
21.899158
  20
161.25534
  0
VERTEX
  5
ab9
  8
Layer_0
  10
21.995085
  20
161.51297
  0
VERTEX
  5
aba
  8
Layer_0
  10
22.054972
  20
161.80568
  0
VERTEX
  5
abb
  8
Layer_0
  10
23.345291
  20
161.80568
  0
VERTEX
  5
abc
  8
Layer_0
  10
23.377132
  20
161.57831
  0
VERTEX
  5
abd
  8
Layer_0
  10
23.371399
  20
161.34308
  0
VERTEX
  5
abe
  8
Layer_0
  10
23.330429
  20
161.1033
  0
VERTEX
  5
abf
  8
Layer_0
  10
23.256565
  20
160.86232
  0
VERTEX
  5
ac0
  8
Layer_0
  10
23.152143
  20
160.62346
  0
VERTEX
  5
ac1
  8
Layer_0
  10
23.019505
  20
160.39005
  0
VERTEX
  5
ac2
  8
Layer_0
  10
22.860989
  20
160.16541
  0
VERTEX
  5
ac3
  8
Layer_0
  10
22.678932
  20
159.95288
  0
VERTEX
  5
ac4
  8
Layer_0
  10
22.475677
  20
159.75578
  0
VERTEX
  5
ac5
  8
Layer_0
  10
22.253563
  20
159.57744
  0
VERTEX
  5
ac6
  8
Layer_0
  10
22.014931
  20
159.4212
  0
VERTEX
  5
ac7
  8
Layer_0
  10
21.762115
  20
159.29039
  0
VERTEX
  5
ac8
  8
Layer_0
  10
21.497458
  20
159.18832
  0
VERTEX
  5
ac9
  8
Layer_0
  10
21.223297
  20
159.11835
  0
VERTEX
  5
aca
  8
Layer_0
  10
20.941975
  20
159.08379
  0
VERTEX
  5
acb
  8
Layer_0
  10
20.65583
  20
159.08795
  0
SEQEND
  0
POLYLINE
  5
acd
  8
Layer_0
  62
0
  70
1
  66
1
  10
0
  20
0
  30
0
  0
VERTEX
  5
acd
  8
Layer_0
  10
45.532291
  20
167.97321
  0
VERTEX
  5
ace
  8
Layer_0
  10
46.904583
  20
167.97321
  0
VERTEX
  5
acf
  8
Layer_0
  10
46.904583
  20
166.39316
  0
VERTEX
  5
ad0
  8
Layer_0
  10
46.32143
  20
166.38927
  0
VERTEX
  5
ad1
  8
Layer_0
  10
45.754177
  20
166.40448
  0
VERTEX
  5
ad2
  8
Layer_0
  10
45.679554
  20
166.44188
  0
VERTEX
  5
ad3
  8
Layer_0
  10
45.617588
  20
166.49588
  0
VERTEX
  5
ad4
  8
Layer_0
  10
45.570915
  20
166.56354
  0
VERTEX
  5
ad5
  8
Layer_0
  10
45.542183
  20
166.64191
  0
VERTEX
  5
ad6
  8
Layer_0
  10
45.528759
  20
167.28583
  0
VERTEX
  5
ad7
  8
Layer_0
  10
45.532291
  20
167.97321
  0
SEQEND
  0
POLYLINE
  5
ad9
  8
Layer_1
  62
221
  70
1
  66
1
  10
0
  20
0
  30
0
  0
VERTEX
  5
ad9
  8
Layer_1
  10
51.942905
  20
162.79639
  0
VERTEX
  5
ada
  8
Layer_1
  10
51.91494
  20
162.43295
  0
VERTEX
  5
adb
  8
Layer_1
  10
51.833946
  20
162.11597
  0
VERTEX
  5
adc
  8
Layer_1
  10
51.704262
  20
161.84947
  0
VERTEX
  5
add
  8
Layer_1
  10
51.530228
  20
161.6375
  0
VERTEX
  5
ade
  8
Layer_1
  10
51.316177
  20
161.4841
  0
VERTEX
  5
adf
  8
Layer_1
  10
51.066452
  20
161.39328
  0
VERTEX
  5
ae0
  8
Layer_1
  10
50.785393
  20
161.36909
  0
VERTEX
  5
ae1
  8
Layer_1
  10
50.477341
  20
161.41562
  0
VERTEX
  5
ae2
  8
Layer_1
  10
50.251667
  20
161.50337
  0
VERTEX
  5
ae3
  8
Layer_1
  10
50.059982
  20
161.63828
  0
VERTEX
  5
ae4
  8
Layer_1
  10
49.903671
  20
161.81705
  0
VERTEX
  5
ae5
  8
Layer_1
  10
49.784126
  20
162.03638
  0
VERTEX
  5
ae6
  8
Layer_1
  10
49.702744
  20
162.29294
  0
VERTEX
  5
ae7
  8
Layer_1
  10
49.660908
  20
162.58342
  0
VERTEX
  5
ae8
  8
Layer_1
  10
49.660015
  20
162.90451
  0
VERTEX
  5
ae9
  8
Layer_1
  10
49.701454
  20
163.25287
  0
VERTEX
  5
aea
  8
Layer_1
  10
49.762108
  20
163.49002
  0
VERTEX
  5
aeb
  8
Layer_1
  10
49.853867
  20
163.69604
  0
VERTEX
  5
aec
  8
Layer_1
  10
49.974976
  20
163.86964
  0
VERTEX
  5
aed
  8
Layer_1
  10
50.123669
  20
164.00951
  0
VERTEX
  5
aee
  8
Layer_1
  10
50.298203
  20
164.11432
  0
VERTEX
  5
aef
  8
Layer_1
  10
50.496819
  20
164.18277
  0
VERTEX
  5
af0
  8
Layer_1
  10
50.717758
  20
164.21356
  0
VERTEX
  5
af1
  8
Layer_1
  10
50.959267
  20
164.20541
  0
VERTEX
  5
af2
  8
Layer_1
  10
51.187782
  20
164.15732
  0
VERTEX
  5
af3
  8
Layer_1
  10
51.386631
  20
164.07169
  0
VERTEX
  5
af4
  8
Layer_1
  10
51.555573
  20
163.94901
  0
VERTEX
  5
af5
  8
Layer_1
  10
51.694347
  20
163.78973
  0
VERTEX
  5
af6
  8
Layer_1
  10
51.802719
  20
163.59435
  0
VERTEX
  5
af7
  8
Layer_1
  10
51.880436
  20
163.36334
  0
VERTEX
  5
af8
  8
Layer_1
  10
51.92725
  20
163.0972
  0
VERTEX
  5
af9
  8
Layer_1
  10
51.942905
  20
162.79639
  0
SEQEND
  0
POLYLINE
  5
afb
  8
Layer_1
  62
221
  70
1
  66
1
  10
0
  20
0
  30
0
  0
VERTEX
  5
afb
  8
Layer_1
  10
50.88295
  20
156.27977
  0
VERTEX
  5
afc
  8
Layer_1
  10
50.35527
  20
156.27499
  0
VERTEX
  5
afd
  8
Layer_1
  10
49.832886
  20
156.27977
  0
VERTEX
  5
afe
  8
Layer_1
  10
49.671036
  20
156.29886
  0
VERTEX
  5
aff
  8
Layer_1
  10
49.529144
  20
156.33972
  0
VERTEX
  5
b00
  8
Layer_1
  10
49.407555
  20
156.40164
  0
VERTEX
  5
b01
  8
Layer_1
  10
49.306618
  20
156.48383
  0
VERTEX
  5
b02
  8
Layer_1
  10
49.226681
  20
156.58557
  0
VERTEX
  5
b03
  8
Layer_1
  10
49.168095
  20
156.70609
  0
VERTEX
  5
b04
  8
Layer_1
  10
49.131203
  20
156.84467
  0
VERTEX
  5
b05
  8
Layer_1
  10
49.116356
  20
157.00055
  0
VERTEX
  5
b06
  8
Layer_1
  10
49.124287
  20
157.15817
  0
VERTEX
  5
b07
  8
Layer_1
  10
49.155155
  20
157.3013
  0
VERTEX
  5
b08
  8
Layer_1
  10
49.20845
  20
157.42813
  0
VERTEX
  5
b09
  8
Layer_1
  10
49.283653
  20
157.53688
  0
VERTEX
  5
b0a
  8
Layer_1
  10
49.380257
  20
157.62575
  0
VERTEX
  5
b0b
  8
Layer_1
  10
49.497742
  20
157.69296
  0
VERTEX
  5
b0c
  8
Layer_1
  10
49.635597
  20
157.73672
  0
VERTEX
  5
b0d
  8
Layer_1
  10
49.793312
  20
157.75523
  0
VERTEX
  5
b0e
  8
Layer_1
  10
50.891075
  20
157.77219
  0
VERTEX
  5
b0f
  8
Layer_1
  10
51.988129
  20
157.75523
  0
VERTEX
  5
b10
  8
Layer_1
  10
52.125214
  20
157.74051
  0
VERTEX
  5
b11
  8
Layer_1
  10
52.255535
  20
157.69966
  0
VERTEX
  5
b12
  8
Layer_1
  10
52.375408
  20
157.63422
  0
VERTEX
  5
b13
  8
Layer_1
  10
52.481159
  20
157.54576
  0
VERTEX
  5
b14
  8
Layer_1
  10
52.567467
  20
157.43825
  0
VERTEX
  5
b15
  8
Layer_1
  10
52.630478
  20
157.31708
  0
VERTEX
  5
b16
  8
Layer_1
  10
52.668694
  20
157.18594
  0
VERTEX
  5
b17
  8
Layer_1
  10
52.680634
  20
157.0486
  0
VERTEX
  5
b18
  8
Layer_1
  10
52.668457
  20
156.90143
  0
VERTEX
  5
b19
  8
Layer_1
  10
52.629196
  20
156.76337
  0
VERTEX
  5
b1a
  8
Layer_1
  10
52.565514
  20
156.63727
  0
VERTEX
  5
b1b
  8
Layer_1
  10
52.480068
  20
156.526
  0
VERTEX
  5
b1c
  8
Layer_1
  10
52.375526
  20
156.43248
  0
VERTEX
  5
b1d
  8
Layer_1
  10
52.254562
  20
156.35951
  0
VERTEX
  5
b1e
  8
Layer_1
  10
52.119831
  20
156.31003
  0
VERTEX
  5
b1f
  8
Layer_1
  10
51.973995
  20
156.28683
  0
VERTEX
  5
b20
  8
Layer_1
  10
51.425644
  20
156.27835
  0
VERTEX
  5
b21
  8
Layer_1
  10
50.877296
  20
156.28683
  0
VERTEX
  5
b22
  8
Layer_1
  10
50.88295
  20
156.27977
  0
SEQEND
  0
POLYLINE
  5
b24
  8
Layer_1
  62
221
  70
1
  66
1
  10
0
  20
0
  30
0
  0
VERTEX
  5
b24
  8
Layer_1
  10
64.774033
  20
161.00293
  0
VERTEX
  5
b25
  8
Layer_1
  10
64.777016
  20
160.7205
  0
VERTEX
  5
b26
  8
Layer_1
  10
64.781982
  20
160.47755
  0
VERTEX
  5
b27
  8
Layer_1
  10
64.782974
  20
160.26163
  0
VERTEX
  5
b28
  8
Layer_1
  10
64.774033
  20
160.06029
  0
VERTEX
  5
b29
  8
Layer_1
  10
64.708435
  20
159.71985
  0
VERTEX
  5
b2a
  8
Layer_1
  10
64.568596
  20
159.40744
  0
VERTEX
  5
b2b
  8
Layer_1
  10
64.361526
  20
159.13493
  0
VERTEX
  5
b2c
  8
Layer_1
  10
64.094246
  20
158.91412
  0
VERTEX
  5
b2d
  8
Layer_1
  10
63.811184
  20
158.75534
  0
VERTEX
  5
b2e
  8
Layer_1
  10
63.50106
  20
158.68289
  0
VERTEX
  5
b2f
  8
Layer_1
  10
63.182968
  20
158.6985
  0
VERTEX
  5
b30
  8
Layer_1
  10
62.875999
  20
158.80388
  0
VERTEX
  5
b31
  8
Layer_1
  10
62.747944
  20
158.88591
  0
VERTEX
  5
b32
  8
Layer_1
  10
62.650475
  20
158.98395
  0
VERTEX
  5
b33
  8
Layer_1
  10
62.579605
  20
159.09528
  0
VERTEX
  5
b34
  8
Layer_1
  10
62.531342
  20
159.21727
  0
VERTEX
  5
b35
  8
Layer_1
  10
62.486671
  20
159.48239
  0
VERTEX
  5
b36
  8
Layer_1
  10
62.484528
  20
159.75784
  0
VERTEX
  5
b37
  8
Layer_1
  10
62.532333
  20
160.08945
  0
VERTEX
  5
b38
  8
Layer_1
  10
62.661362
  20
160.37137
  0
VERTEX
  5
b39
  8
Layer_1
  10
62.75853
  20
160.48845
  0
VERTEX
  5
b3a
  8
Layer_1
  10
62.878632
  20
160.58679
  0
VERTEX
  5
b3b
  8
Layer_1
  10
63.022549
  20
160.66431
  0
VERTEX
  5
b3c
  8
Layer_1
  10
63.191162
  20
160.71887
  0
VERTEX
  5
b3d
  8
Layer_1
  10
63.95079
  20
160.8699
  0
VERTEX
  5
b3e
  8
Layer_1
  10
64.774033
  20
161.00293
  0
SEQEND
  0
POLYLINE
  5
b40
  8
Layer_1
  62
221
  70
1
  66
1
  10
0
  20
0
  30
0
  0
VERTEX
  5
b40
  8
Layer_1
  10
83.132462
  20
161.41278
  0
VERTEX
  5
b41
  8
Layer_1
  10
83.075912
  20
160.97198
  0
VERTEX
  5
b42
  8
Layer_1
  10
83.022408
  20
160.53302
  0
VERTEX
  5
b43
  8
Layer_1
  10
82.958572
  20
160.09831
  0
VERTEX
  5
b44
  8
Layer_1
  10
82.87101
  20
159.67021
  0
VERTEX
  5
b45
  8
Layer_1
  10
82.799362
  20
159.43765
  0
VERTEX
  5
b46
  8
Layer_1
  10
82.705872
  20
159.23778
  0
VERTEX
  5
b47
  8
Layer_1
  10
82.591522
  20
159.06999
  0
VERTEX
  5
b48
  8
Layer_1
  10
82.457275
  20
158.93373
  0
VERTEX
  5
b49
  8
Layer_1
  10
82.304062
  20
158.82841
  0
VERTEX
  5
b4a
  8
Layer_1
  10
82.132874
  20
158.75343
  0
VERTEX
  5
b4b
  8
Layer_1
  10
81.944664
  20
158.70822
  0
VERTEX
  5
b4c
  8
Layer_1
  10
81.740387
  20
158.69223
  0
VERTEX
  5
b4d
  8
Layer_1
  10
81.535255
  20
158.70551
  0
VERTEX
  5
b4e
  8
Layer_1
  10
81.344742
  20
158.74863
  0
VERTEX
  5
b4f
  8
Layer_1
  10
81.170227
  20
158.82181
  0
VERTEX
  5
b50
  8
Layer_1
  10
81.013077
  20
158.92523
  0
VERTEX
  5
b51
  8
Layer_1
  10
80.874687
  20
159.05905
  0
VERTEX
  5
b52
  8
Layer_1
  10
80.756409
  20
159.22345
  0
VERTEX
  5
b53
  8
Layer_1
  10
80.659637
  20
159.41864
  0
VERTEX
  5
b54
  8
Layer_1
  10
80.585739
  20
159.64478
  0
VERTEX
  5
b55
  8
Layer_1
  10
80.485641
  20
160.08157
  0
VERTEX
  5
b56
  8
Layer_1
  10
80.414154
  20
160.52252
  0
VERTEX
  5
b57
  8
Layer_1
  10
80.371262
  20
160.96625
  0
VERTEX
  5
b58
  8
Layer_1
  10
80.356964
  20
161.41138
  0
VERTEX
  5
b59
  8
Layer_1
  10
80.371262
  20
161.85649
  0
VERTEX
  5
b5a
  8
Layer_1
  10
80.414154
  20
162.30022
  0
VERTEX
  5
b5b
  8
Layer_1
  10
80.485641
  20
162.74115
  0
VERTEX
  5
b5c
  8
Layer_1
  10
80.585739
  20
163.17796
  0
VERTEX
  5
b5d
  8
Layer_1
  10
80.660622
  20
163.40279
  0
VERTEX
  5
b5e
  8
Layer_1
  10
80.758995
  20
163.59802
  0
VERTEX
  5
b5f
  8
Layer_1
  10
80.879036
  20
163.76352
  0
VERTEX
  5
b60
  8
Layer_1
  10
81.018906
  20
163.89909
  0
VERTEX
  5
b61
  8
Layer_1
  10
81.176804
  20
164.00459
  0
VERTEX
  5
b62
  8
Layer_1
  10
81.350891
  20
164.07986
  0
VERTEX
  5
b63
  8
Layer_1
  10
81.539368
  20
164.12473
  0
VERTEX
  5
b64
  8
Layer_1
  10
81.740387
  20
164.13899
  0
VERTEX
  5
b65
  8
Layer_1
  10
81.940674
  20
164.12279
  0
VERTEX
  5
b66
  8
Layer_1
  10
82.127121
  20
164.07623
  0
VERTEX
  5
b67
  8
Layer_1
  10
82.298233
  20
163.99911
  0
VERTEX
  5
b68
  8
Layer_1
  10
82.452499
  20
163.89131
  0
VERTEX
  5
b69
  8
Layer_1
  10
82.588425
  20
163.75264
  0
VERTEX
  5
b6a
  8
Layer_1
  10
82.704483
  20
163.58292
  0
VERTEX
  5
b6b
  8
Layer_1
  10
82.799179
  20
163.382
  0
VERTEX
  5
b6c
  8
Layer_1
  10
82.87101
  20
163.1497
  0
VERTEX
  5
b6d
  8
Layer_1
  10
82.957375
  20
162.72488
  0
VERTEX
  5
b6e
  8
Layer_1
  10
83.021347
  20
162.29184
  0
VERTEX
  5
b6f
  8
Layer_1
  10
83.075516
  20
161.85352
  0
VERTEX
  5
b70
  8
Layer_1
  10
83.132462
  20
161.41278
  0
SEQEND
  0
POLYLINE
  5
b72
  8
Layer_0
  62
0
  70
1
  66
1
  10
0
  20
0
  30
0
  0
VERTEX
  5
b72
  8
Layer_0
  10
87.330086
  20
69.977623
  0
VERTEX
  5
b73
  8
Layer_0
  10
87.394409
  20
70.155594
  0
VERTEX
  5
b74
  8
Layer_0
  10
87.396492
  20
70.34481
  0
VERTEX
  5
b75
  8
Layer_0
  10
87.373055
  20
71.067467
  0
VERTEX
  5
b76
  8
Layer_0
  10
87.540665
  20
71.084274
  0
VERTEX
  5
b77
  8
Layer_0
  10
87.708992
  20
71.090904
  0
VERTEX
  5
b78
  8
Layer_0
  10
87.77169
  20
71.156494
  0
VERTEX
  5
b79
  8
Layer_0
  10
87.775398
  20
71.247154
  0
VERTEX
  5
b7a
  8
Layer_0
  10
87.76368
  20
71.278404
  0
VERTEX
  5
b7b
  8
Layer_0
  10
87.740242
  20
71.305748
  0
VERTEX
  5
b7c
  8
Layer_0
  10
87.553238
  20
71.33345
  0
VERTEX
  5
b7d
  8
Layer_0
  10
87.365242
  20
71.31356
  0
VERTEX
  5
b7e
  8
Layer_0
  10
87.373077
  20
71.511612
  0
VERTEX
  5
b7f
  8
Layer_0
  10
87.32618
  20
71.704185
  0
VERTEX
  5
b80
  8
Layer_0
  10
87.264511
  20
71.747772
  0
VERTEX
  5
b81
  8
Layer_0
  10
87.189461
  20
71.739342
  0
VERTEX
  5
b82
  8
Layer_0
  10
87.120354
  20
71.669495
  0
VERTEX
  5
b83
  8
Layer_0
  10
87.115242
  20
71.571373
  0
VERTEX
  5
b84
  8
Layer_0
  10
87.120209
  20
71.442429
  0
VERTEX
  5
b85
  8
Layer_0
  10
87.126961
  20
71.31356
  0
VERTEX
  5
b86
  8
Layer_0
  10
86.869148
  20
71.333092
  0
VERTEX
  5
b87
  8
Layer_0
  10
86.802094
  20
71.314217
  0
VERTEX
  5
b88
  8
Layer_0
  10
86.759773
  20
71.258873
  0
VERTEX
  5
b89
  8
Layer_0
  10
86.756836
  20
71.169815
  0
VERTEX
  5
b8a
  8
Layer_0
  10
86.810555
  20
71.098717
  0
VERTEX
  5
b8b
  8
Layer_0
  10
86.96991
  20
71.07486
  0
VERTEX
  5
b8c
  8
Layer_0
  10
87.130867
  20
71.067467
  0
VERTEX
  5
b8d
  8
Layer_0
  10
87.158211
  20
70.348717
  0
VERTEX
  5
b8e
  8
Layer_0
  10
87.145538
  20
70.16703
  0
VERTEX
  5
b8f
  8
Layer_0
  10
87.185555
  20
69.989342
  0
VERTEX
  5
b90
  8
Layer_0
  10
87.255783
  20
69.958435
  0
VERTEX
  5
b91
  8
Layer_0
  10
87.330086
  20
69.977623
  0
SEQEND
  0
POLYLINE
  5
b93
  8
Layer_0
  62
0
  70
1
  66
1
  10
0
  20
0
  30
0
  0
VERTEX
  5
b93
  8
Layer_0
  10
84.724617
  20
69.96981
  0
VERTEX
  5
b94
  8
Layer_0
  10
84.85984
  20
69.988647
  0
VERTEX
  5
b95
  8
Layer_0
  10
84.980431
  20
70.045982
  0
VERTEX
  5
b96
  8
Layer_0
  10
85.078583
  20
70.136513
  0
VERTEX
  5
b97
  8
Layer_0
  10
85.146492
  20
70.254967
  0
VERTEX
  5
b98
  8
Layer_0
  10
85.154663
  20
70.413239
  0
VERTEX
  5
b99
  8
Layer_0
  10
85.107605
  20
70.559769
  0
VERTEX
  5
b9a
  8
Layer_0
  10
85.012619
  20
70.680847
  0
VERTEX
  5
b9b
  8
Layer_0
  10
84.876961
  20
70.762779
  0
VERTEX
  5
b9c
  8
Layer_0
  10
84.671188
  20
70.825836
  0
VERTEX
  5
b9d
  8
Layer_0
  10
84.462898
  20
70.879967
  0
VERTEX
  5
b9e
  8
Layer_0
  10
84.489151
  20
70.948853
  0
VERTEX
  5
b9f
  8
Layer_0
  10
84.533432
  20
71.005936
  0
VERTEX
  5
ba0
  8
Layer_0
  10
84.592239
  20
71.047897
  0
VERTEX
  5
ba1
  8
Layer_0
  10
84.662117
  20
71.071373
  0
VERTEX
  5
ba2
  8
Layer_0
  10
84.803528
  20
71.118202
  0
VERTEX
  5
ba3
  8
Layer_0
  10
84.947273
  20
71.15731
  0
VERTEX
  5
ba4
  8
Layer_0
  10
84.958305
  20
71.066299
  0
VERTEX
  5
ba5
  8
Layer_0
  10
85.01368
  20
70.993248
  0
VERTEX
  5
ba6
  8
Layer_0
  10
85.089798
  20
70.981178
  0
VERTEX
  5
ba7
  8
Layer_0
  10
85.158211
  20
71.016685
  0
VERTEX
  5
ba8
  8
Layer_0
  10
85.190002
  20
71.164734
  0
VERTEX
  5
ba9
  8
Layer_0
  10
85.162117
  20
71.31356
  0
VERTEX
  5
baa
  8
Layer_0
  10
85.144356
  20
71.382874
  0
VERTEX
  5
bab
  8
Layer_0
  10
85.087898
  20
71.426842
  0
VERTEX
  5
bac
  8
Layer_0
  10
84.958511
  20
71.426826
  0
VERTEX
  5
bad
  8
Layer_0
  10
84.837898
  20
71.379967
  0
VERTEX
  5
bae
  8
Layer_0
  10
84.591606
  20
71.306572
  0
VERTEX
  5
baf
  8
Layer_0
  10
84.361336
  20
71.192467
  0
VERTEX
  5
bb0
  8
Layer_0
  10
84.273148
  20
71.094032
  0
VERTEX
  5
bb1
  8
Layer_0
  10
84.228508
  20
70.974152
  0
VERTEX
  5
bb2
  8
Layer_0
  10
84.229782
  20
70.846237
  0
VERTEX
  5
bb3
  8
Layer_0
  10
84.279305
  20
70.723717
  0
VERTEX
  5
bb4
  8
Layer_0
  10
84.469513
  20
70.619789
  0
VERTEX
  5
bb5
  8
Layer_0
  10
84.681648
  20
70.575279
  0
VERTEX
  5
bb6
  8
Layer_0
  10
84.768654
  20
70.554131
  0
VERTEX
  5
bb7
  8
Layer_0
  10
84.840782
  20
70.505386
  0
VERTEX
  5
bb8
  8
Layer_0
  10
84.891937
  20
70.434952
  0
VERTEX
  5
bb9
  8
Layer_0
  10
84.916023
  20
70.348717
  0
VERTEX
  5
bba
  8
Layer_0
  10
84.886299
  20
70.290466
  0
VERTEX
  5
bbb
  8
Layer_0
  10
84.840073
  20
70.246826
  0
VERTEX
  5
bbc
  8
Layer_0
  10
84.782021
  20
70.220947
  0
VERTEX
  5
bbd
  8
Layer_0
  10
84.716805
  20
70.215904
  0
VERTEX
  5
bbe
  8
Layer_0
  10
84.593452
  20
70.208633
  0
VERTEX
  5
bbf
  8
Layer_0
  10
84.47226
  20
70.226395
  0
VERTEX
  5
bc0
  8
Layer_0
  10
84.357117
  20
70.268219
  0
VERTEX
  5
bc1
  8
Layer_0
  10
84.251961
  20
70.333092
  0
VERTEX
  5
bc2
  8
Layer_0
  10
84.16407
  20
70.295982
  0
VERTEX
  5
bc3
  8
Layer_0
  10
84.126961
  20
70.208092
  0
VERTEX
  5
bc4
  8
Layer_0
  10
84.148521
  20
70.139214
  0
VERTEX
  5
bc5
  8
Layer_0
  10
84.189468
  20
70.081787
  0
VERTEX
  5
bc6
  8
Layer_0
  10
84.24604
  20
70.039658
  0
VERTEX
  5
bc7
  8
Layer_0
  10
84.314461
  20
70.016685
  0
VERTEX
  5
bc8
  8
Layer_0
  10
84.516624
  20
69.967758
  0
VERTEX
  5
bc9
  8
Layer_0
  10
84.724617
  20
69.96981
  0
SEQEND
  0
POLYLINE
  5
bcb
  8
Layer_0
  62
0
  70
1
  66
1
  10
0
  20
0
  30
0
  0
VERTEX
  5
bcb
  8
Layer_0
  10
81.82618
  20
69.961998
  0
VERTEX
  5
bcc
  8
Layer_0
  10
81.878128
  20
70.009964
  0
VERTEX
  5
bcd
  8
Layer_0
  10
81.892586
  20
70.079185
  0
VERTEX
  5
bce
  8
Layer_0
  10
81.892586
  20
70.75106
  0
VERTEX
  5
bcf
  8
Layer_0
  10
81.971558
  20
70.889801
  0
VERTEX
  5
bd0
  8
Layer_0
  10
82.084747
  20
70.997894
  0
VERTEX
  5
bd1
  8
Layer_0
  10
82.223923
  20
71.069481
  0
VERTEX
  5
bd2
  8
Layer_0
  10
82.380867
  20
71.098717
  0
VERTEX
  5
bd3
  8
Layer_0
  10
82.381607
  20
70.957909
  0
VERTEX
  5
bd4
  8
Layer_0
  10
82.416023
  20
70.821373
  0
VERTEX
  5
bd5
  8
Layer_0
  10
82.447273
  20
70.797935
  0
VERTEX
  5
bd6
  8
Layer_0
  10
82.520966
  20
70.790237
  0
VERTEX
  5
bd7
  8
Layer_0
  10
82.583992
  20
70.829185
  0
VERTEX
  5
bd8
  8
Layer_0
  10
82.619751
  20
70.953751
  0
VERTEX
  5
bd9
  8
Layer_0
  10
82.618515
  20
71.080475
  0
VERTEX
  5
bda
  8
Layer_0
  10
82.581451
  20
71.201675
  0
VERTEX
  5
bdb
  8
Layer_0
  10
82.509773
  20
71.309654
  0
VERTEX
  5
bdc
  8
Layer_0
  10
82.341278
  20
71.317528
  0
VERTEX
  5
bdd
  8
Layer_0
  10
82.178642
  20
71.283974
  0
VERTEX
  5
bde
  8
Layer_0
  10
82.029221
  20
71.211502
  0
VERTEX
  5
bdf
  8
Layer_0
  10
81.900398
  20
71.102623
  0
VERTEX
  5
be0
  8
Layer_0
  10
81.892784
  20
71.20845
  0
VERTEX
  5
be1
  8
Layer_0
  10
81.830086
  20
71.294029
  0
VERTEX
  5
be2
  8
Layer_0
  10
81.760544
  20
71.30558
  0
VERTEX
  5
be3
  8
Layer_0
  10
81.697273
  20
71.274498
  0
VERTEX
  5
be4
  8
Layer_0
  10
81.668159
  20
71.169037
  0
VERTEX
  5
be5
  8
Layer_0
  10
81.666023
  20
71.059654
  0
VERTEX
  5
be6
  8
Layer_0
  10
81.666023
  20
70.079185
  0
VERTEX
  5
be7
  8
Layer_0
  10
81.668427
  20
70.029984
  0
VERTEX
  5
be8
  8
Layer_0
  10
81.689461
  20
69.985435
  0
VERTEX
  5
be9
  8
Layer_0
  10
81.754715
  20
69.955566
  0
VERTEX
  5
bea
  8
Layer_0
  10
81.82618
  20
69.961998
  0
SEQEND
  0
POLYLINE
  5
bec
  8
Layer_0
  62
0
  70
1
  66
1
  10
0
  20
0
  30
0
  0
VERTEX
  5
bec
  8
Layer_0
  10
83.623055
  20
70.00106
  0
VERTEX
  5
bed
  8
Layer_0
  10
83.73774
  20
70.025818
  0
VERTEX
  5
bee
  8
Layer_0
  10
83.843399
  20
70.073868
  0
VERTEX
  5
bef
  8
Layer_0
  10
83.936554
  20
70.143127
  0
VERTEX
  5
bf0
  8
Layer_0
  10
84.01368
  20
70.231529
  0
VERTEX
  5
bf1
  8
Layer_0
  10
84.02623
  20
70.304947
  0
VERTEX
  5
bf2
  8
Layer_0
  10
83.994148
  20
70.372154
  0
VERTEX
  5
bf3
  8
Layer_0
  10
83.958992
  20
70.399498
  0
VERTEX
  5
bf4
  8
Layer_0
  10
83.916023
  20
70.40731
  0
VERTEX
  5
bf5
  8
Layer_0
  10
83.833557
  20
70.350243
  0
VERTEX
  5
bf6
  8
Layer_0
  10
83.759773
  20
70.28231
  0
VERTEX
  5
bf7
  8
Layer_0
  10
83.570274
  20
70.20681
  0
VERTEX
  5
bf8
  8
Layer_0
  10
83.372406
  20
70.204811
  0
VERTEX
  5
bf9
  8
Layer_0
  10
83.186584
  20
70.272812
  0
VERTEX
  5
bfa
  8
Layer_0
  10
83.033211
  20
70.40731
  0
VERTEX
  5
bfb
  8
Layer_0
  10
83.40316
  20
70.573517
  0
VERTEX
  5
bfc
  8
Layer_0
  10
83.759773
  20
70.766685
  0
VERTEX
  5
bfd
  8
Layer_0
  10
83.831825
  20
70.821526
  0
VERTEX
  5
bfe
  8
Layer_0
  10
83.879471
  20
70.895653
  0
VERTEX
  5
bff
  8
Layer_0
  10
83.89949
  20
70.981468
  0
VERTEX
  5
c00
  8
Layer_0
  10
83.88868
  20
71.071373
  0
VERTEX
  5
c01
  8
Layer_0
  10
83.843964
  20
71.160126
  0
VERTEX
  5
c02
  8
Layer_0
  10
83.776901
  20
71.230728
  0
VERTEX
  5
c03
  8
Layer_0
  10
83.69249
  20
71.279274
  0
VERTEX
  5
c04
  8
Layer_0
  10
83.595711
  20
71.301842
  0
VERTEX
  5
c05
  8
Layer_0
  10
83.382416
  20
71.322754
  0
VERTEX
  5
c06
  8
Layer_0
  10
83.181519
  20
71.268448
  0
VERTEX
  5
c07
  8
Layer_0
  10
83.011948
  20
71.14782
  0
VERTEX
  5
c08
  8
Layer_0
  10
82.892586
  20
70.96981
  0
VERTEX
  5
c09
  8
Layer_0
  10
82.823532
  20
70.781235
  0
VERTEX
  5
c0a
  8
Layer_0
  10
82.80394
  20
70.584488
  0
VERTEX
  5
c0b
  8
Layer_0
  10
82.833542
  20
70.388992
  0
VERTEX
  5
c0c
  8
Layer_0
  10
82.912117
  20
70.204185
  0
VERTEX
  5
c0d
  8
Layer_0
  10
83.062897
  20
70.079346
  0
VERTEX
  5
c0e
  8
Layer_0
  10
83.238785
  20
70.001831
  0
VERTEX
  5
c0f
  8
Layer_0
  10
83.42907
  20
69.974724
  0
VERTEX
  5
c10
  8
Layer_0
  10
83.623055
  20
70.00106
  0
SEQEND
  0
POLYLINE
  5
c12
  8
Layer_0
  62
0
  70
1
  66
1
  10
0
  20
0
  30
0
  0
VERTEX
  5
c12
  8
Layer_0
  10
86.220711
  20
70.00106
  0
VERTEX
  5
c13
  8
Layer_0
  10
86.335396
  20
70.025818
  0
VERTEX
  5
c14
  8
Layer_0
  10
86.441055
  20
70.073868
  0
VERTEX
  5
c15
  8
Layer_0
  10
86.53421
  20
70.143127
  0
VERTEX
  5
c16
  8
Layer_0
  10
86.611336
  20
70.231529
  0
VERTEX
  5
c17
  8
Layer_0
  10
86.623886
  20
70.304947
  0
VERTEX
  5
c18
  8
Layer_0
  10
86.591805
  20
70.372154
  0
VERTEX
  5
c19
  8
Layer_0
  10
86.556427
  20
70.397919
  0
VERTEX
  5
c1a
  8
Layer_0
  10
86.51368
  20
70.40731
  0
VERTEX
  5
c1b
  8
Layer_0
  10
86.431213
  20
70.350243
  0
VERTEX
  5
c1c
  8
Layer_0
  10
86.35743
  20
70.28231
  0
VERTEX
  5
c1d
  8
Layer_0
  10
86.167923
  20
70.206573
  0
VERTEX
  5
c1e
  8
Layer_0
  10
85.970009
  20
70.204498
  0
VERTEX
  5
c1f
  8
Layer_0
  10
85.784164
  20
70.272583
  0
VERTEX
  5
c20
  8
Layer_0
  10
85.630867
  20
70.40731
  0
VERTEX
  5
c21
  8
Layer_0
  10
86.000816
  20
70.573517
  0
VERTEX
  5
c22
  8
Layer_0
  10
86.35743
  20
70.766685
  0
VERTEX
  5
c23
  8
Layer_0
  10
86.42778
  20
70.822693
  0
VERTEX
  5
c24
  8
Layer_0
  10
86.474648
  20
70.896706
  0
VERTEX
  5
c25
  8
Layer_0
  10
86.495132
  20
70.98188
  0
VERTEX
  5
c26
  8
Layer_0
  10
86.486336
  20
71.071373
  0
VERTEX
  5
c27
  8
Layer_0
  10
86.440788
  20
71.16066
  0
VERTEX
  5
c28
  8
Layer_0
  10
86.372719
  20
71.231468
  0
VERTEX
  5
c29
  8
Layer_0
  10
86.287247
  20
71.279846
  0
VERTEX
  5
c2a
  8
Layer_0
  10
86.189461
  20
71.301842
  0
VERTEX
  5
c2b
  8
Layer_0
  10
85.976913
  20
71.32299
  0
VERTEX
  5
c2c
  8
Layer_0
  10
85.776779
  20
71.268654
  0
VERTEX
  5
c2d
  8
Layer_0
  10
85.608185
  20
71.147903
  0
VERTEX
  5
c2e
  8
Layer_0
  10
85.490242
  20
70.96981
  0
VERTEX
  5
c2f
  8
Layer_0
  10
85.421188
  20
70.781235
  0
VERTEX
  5
c30
  8
Layer_0
  10
85.401596
  20
70.584488
  0
VERTEX
  5
c31
  8
Layer_0
  10
85.431198
  20
70.388992
  0
VERTEX
  5
c32
  8
Layer_0
  10
85.509773
  20
70.204185
  0
VERTEX
  5
c33
  8
Layer_0
  10
85.66021
  20
70.078575
  0
VERTEX
  5
c34
  8
Layer_0
  10
85.836136
  20
70.000763
  0
VERTEX
  5
c35
  8
Layer_0
  10
86.026619
  20
69.973885
  0
VERTEX
  5
c36
  8
Layer_0
  10
86.220711
  20
70.00106
  0
SEQEND
  0
POLYLINE
  5
c38
  8
Layer_0
  62
0
  70
1
  66
1
  10
0
  20
0
  30
0
  0
VERTEX
  5
c38
  8
Layer_0
  10
83.041023
  20
70.743248
  0
VERTEX
  5
c39
  8
Layer_0
  10
83.080482
  20
70.877159
  0
VERTEX
  5
c3a
  8
Layer_0
  10
83.160843
  20
70.986862
  0
VERTEX
  5
c3b
  8
Layer_0
  10
83.273087
  20
71.063614
  0
VERTEX
  5
c3c
  8
Layer_0
  10
83.408211
  20
71.098717
  0
VERTEX
  5
c3d
  8
Layer_0
  10
83.565445
  20
71.076614
  0
VERTEX
  5
c3e
  8
Layer_0
  10
83.705086
  20
71.00106
  0
VERTEX
  5
c3f
  8
Layer_0
  10
83.370415
  20
70.796692
  0
VERTEX
  5
c40
  8
Layer_0
  10
83.01368
  20
70.633873
  0
VERTEX
  5
c41
  8
Layer_0
  10
83.041023
  20
70.743248
  0
SEQEND
  0
POLYLINE
  5
c43
  8
Layer_0
  62
0
  70
1
  66
1
  10
0
  20
0
  30
0
  0
VERTEX
  5
c43
  8
Layer_0
  10
85.634773
  20
70.743248
  0
VERTEX
  5
c44
  8
Layer_0
  10
85.675903
  20
70.877167
  0
VERTEX
  5
c45
  8
Layer_0
  10
85.75737
  20
70.986702
  0
VERTEX
  5
c46
  8
Layer_0
  10
85.870316
  20
71.063385
  0
VERTEX
  5
c47
  8
Layer_0
  10
86.005867
  20
71.098717
  0
VERTEX
  5
c48
  8
Layer_0
  10
86.162781
  20
71.075638
  0
VERTEX
  5
c49
  8
Layer_0
  10
86.302742
  20
71.00106
  0
VERTEX
  5
c4a
  8
Layer_0
  10
85.966286
  20
70.796249
  0
VERTEX
  5
c4b
  8
Layer_0
  10
85.60743
  20
70.633873
  0
VERTEX
  5
c4c
  8
Layer_0
  10
85.634773
  20
70.743248
  0
SEQEND
  0
POLYLINE
  5
c4e
  8
Layer_0
  62
0
  70
1
  66
1
  10
0
  20
0
  30
0
  0
VERTEX
  5
c4e
  8
Layer_0
  10
92.956512
  20
69.966141
  0
VERTEX
  5
c4f
  8
Layer_0
  10
93.019814
  20
70.031448
  0
VERTEX
  5
c50
  8
Layer_0
  10
93.019012
  20
70.122391
  0
VERTEX
  5
c51
  8
Layer_0
  10
92.97551
  20
70.174942
  0
VERTEX
  5
c52
  8
Layer_0
  10
92.909637
  20
70.192703
  0
VERTEX
  5
c53
  8
Layer_0
  10
92.780731
  20
70.192703
  0
VERTEX
  5
c54
  8
Layer_0
  10
92.76532
  20
70.738693
  0
VERTEX
  5
c55
  8
Layer_0
  10
92.815887
  20
71.282547
  0
VERTEX
  5
c56
  8
Layer_0
  10
92.811447
  20
71.550171
  0
VERTEX
  5
c57
  8
Layer_0
  10
92.819794
  20
71.817703
  0
VERTEX
  5
c58
  8
Layer_0
  10
92.804169
  20
71.845047
  0
VERTEX
  5
c59
  8
Layer_0
  10
92.776825
  20
71.864578
  0
VERTEX
  5
c5a
  8
Layer_0
  10
92.643364
  20
71.843285
  0
VERTEX
  5
c5b
  8
Layer_0
  10
92.534637
  20
71.763016
  0
VERTEX
  5
c5c
  8
Layer_0
  10
92.398209
  20
71.653969
  0
VERTEX
  5
c5d
  8
Layer_0
  10
92.269012
  20
71.536453
  0
VERTEX
  5
c5e
  8
Layer_0
  10
92.241669
  20
71.470047
  0
VERTEX
  5
c5f
  8
Layer_0
  10
92.279205
  20
71.38649
  0
VERTEX
  5
c60
  8
Layer_0
  10
92.362762
  20
71.348953
  0
VERTEX
  5
c61
  8
Layer_0
  10
92.473679
  20
71.404495
  0
VERTEX
  5
c62
  8
Layer_0
  10
92.5737
  20
71.477859
  0
VERTEX
  5
c63
  8
Layer_0
  10
92.549492
  20
71.048103
  0
VERTEX
  5
c64
  8
Layer_0
  10
92.522919
  20
70.618484
  0
VERTEX
  5
c65
  8
Layer_0
  10
92.524963
  20
70.401474
  0
VERTEX
  5
c66
  8
Layer_0
  10
92.538544
  20
70.184891
  0
VERTEX
  5
c67
  8
Layer_0
  10
92.461617
  20
70.197762
  0
VERTEX
  5
c68
  8
Layer_0
  10
92.385117
  20
70.190369
  0
VERTEX
  5
c69
  8
Layer_0
  10
92.313072
  20
70.163643
  0
VERTEX
  5
c6a
  8
Layer_0
  10
92.249481
  20
70.118484
  0
VERTEX
  5
c6b
  8
Layer_0
  10
92.237823
  20
70.061371
  0
VERTEX
  5
c6c
  8
Layer_0
  10
92.253387
  20
70.005203
  0
VERTEX
  5
c6d
  8
Layer_0
  10
92.33255
  20
69.964478
  0
VERTEX
  5
c6e
  8
Layer_0
  10
92.421356
  20
69.958328
  0
VERTEX
  5
c6f
  8
Layer_0
  10
92.909637
  20
69.958328
  0
VERTEX
  5
c70
  8
Layer_0
  10
92.956512
  20
69.966141
  0
SEQEND
  0
POLYLINE
  5
c72
  8
Layer_0
  62
0
  70
1
  66
1
  10
0
  20
0
  30
0
  0
VERTEX
  5
c72
  8
Layer_0
  10
97.616669
  20
69.845047
  0
VERTEX
  5
c73
  8
Layer_0
  10
97.772415
  20
69.873779
  0
VERTEX
  5
c74
  8
Layer_0
  10
97.915771
  20
69.930107
  0
VERTEX
  5
c75
  8
Layer_0
  10
98.044022
  20
70.010986
  0
VERTEX
  5
c76
  8
Layer_0
  10
98.154404
  20
70.113388
  0
VERTEX
  5
c77
  8
Layer_0
  10
98.244202
  20
70.234238
  0
VERTEX
  5
c78
  8
Layer_0
  10
98.310692
  20
70.370499
  0
VERTEX
  5
c79
  8
Layer_0
  10
98.35112
  20
70.519135
  0
VERTEX
  5
c7a
  8
Layer_0
  10
98.362762
  20
70.677078
  0
VERTEX
  5
c7b
  8
Layer_0
  10
98.328018
  20
70.899002
  0
VERTEX
  5
c7c
  8
Layer_0
  10
98.243813
  20
71.103951
  0
VERTEX
  5
c7d
  8
Layer_0
  10
98.114594
  20
71.283943
  0
VERTEX
  5
c7e
  8
Layer_0
  10
97.944794
  20
71.430984
  0
VERTEX
  5
c7f
  8
Layer_0
  10
97.65274
  20
71.600189
  0
VERTEX
  5
c80
  8
Layer_0
  10
97.347137
  20
71.743484
  0
VERTEX
  5
c81
  8
Layer_0
  10
97.211182
  20
71.812012
  0
VERTEX
  5
c82
  8
Layer_0
  10
97.069794
  20
71.868484
  0
VERTEX
  5
c83
  8
Layer_0
  10
96.964722
  20
71.812111
  0
VERTEX
  5
c84
  8
Layer_0
  10
96.913544
  20
71.704422
  0
VERTEX
  5
c85
  8
Layer_0
  10
96.919899
  20
70.866508
  0
VERTEX
  5
c86
  8
Layer_0
  10
96.909637
  20
70.028641
  0
VERTEX
  5
c87
  8
Layer_0
  10
96.964615
  20
69.968185
  0
VERTEX
  5
c88
  8
Layer_0
  10
97.044403
  20
69.950516
  0
VERTEX
  5
c89
  8
Layer_0
  10
97.179276
  20
69.888138
  0
VERTEX
  5
c8a
  8
Layer_0
  10
97.321625
  20
69.849396
  0
VERTEX
  5
c8b
  8
Layer_0
  10
97.46843
  20
69.834846
  0
VERTEX
  5
c8c
  8
Layer_0
  10
97.616669
  20
69.845047
  0
SEQEND
  0
POLYLINE
  5
c8e
  8
Layer_0
  62
0
  70
1
  66
1
  10
0
  20
0
  30
0
  0
VERTEX
  5
c8e
  8
Layer_0
  10
93.640106
  20
69.958328
  0
VERTEX
  5
c8f
  8
Layer_0
  10
94.048019
  20
69.991867
  0
VERTEX
  5
c90
  8
Layer_0
  10
94.456512
  20
69.966141
  0
VERTEX
  5
c91
  8
Layer_0
  10
94.516937
  20
70.028076
  0
VERTEX
  5
c92
  8
Layer_0
  10
94.519012
  20
70.114578
  0
VERTEX
  5
c93
  8
Layer_0
  10
94.447235
  20
70.177689
  0
VERTEX
  5
c94
  8
Layer_0
  10
94.36277
  20
70.218674
  0
VERTEX
  5
c95
  8
Layer_0
  10
94.270493
  20
70.235931
  0
VERTEX
  5
c96
  8
Layer_0
  10
94.175262
  20
70.227859
  0
VERTEX
  5
c97
  8
Layer_0
  10
93.895416
  20
70.21907
  0
VERTEX
  5
c98
  8
Layer_0
  10
93.616669
  20
70.192703
  0
VERTEX
  5
c99
  8
Layer_0
  10
93.644882
  20
70.346504
  0
VERTEX
  5
c9a
  8
Layer_0
  10
93.712128
  20
70.484528
  0
VERTEX
  5
c9b
  8
Layer_0
  10
93.813675
  20
70.599693
  0
VERTEX
  5
c9c
  8
Layer_0
  10
93.944794
  20
70.684891
  0
VERTEX
  5
c9d
  8
Layer_0
  10
94.209084
  20
70.859566
  0
VERTEX
  5
c9e
  8
Layer_0
  10
94.425262
  20
71.091141
  0
VERTEX
  5
c9f
  8
Layer_0
  10
94.490807
  20
71.232002
  0
VERTEX
  5
ca0
  8
Layer_0
  10
94.50985
  20
71.382698
  0
VERTEX
  5
ca1
  8
Layer_0
  10
94.482697
  20
71.53215
  0
VERTEX
  5
ca2
  8
Layer_0
  10
94.409637
  20
71.669266
  0
VERTEX
  5
ca3
  8
Layer_0
  10
94.210785
  20
71.799149
  0
VERTEX
  5
ca4
  8
Layer_0
  10
93.98542
  20
71.843903
  0
VERTEX
  5
ca5
  8
Layer_0
  10
93.759277
  20
71.803284
  0
VERTEX
  5
ca6
  8
Layer_0
  10
93.558075
  20
71.677078
  0
VERTEX
  5
ca7
  8
Layer_0
  10
93.465195
  20
71.606323
  0
VERTEX
  5
ca8
  8
Layer_0
  10
93.390106
  20
71.516922
  0
VERTEX
  5
ca9
  8
Layer_0
  10
93.377464
  20
71.449066
  0
VERTEX
  5
caa
  8
Layer_0
  10
93.409637
  20
71.388016
  0
VERTEX
  5
cab
  8
Layer_0
  10
93.502251
  20
71.364044
  0
VERTEX
  5
cac
  8
Layer_0
  10
93.589325
  20
71.403641
  0
VERTEX
  5
cad
  8
Layer_0
  10
93.718719
  20
71.511124
  0
VERTEX
  5
cae
  8
Layer_0
  10
93.866669
  20
71.591141
  0
VERTEX
  5
caf
  8
Layer_0
  10
93.966187
  20
71.605759
  0
VERTEX
  5
cb0
  8
Layer_0
  10
94.063843
  20
71.591919
  0
VERTEX
  5
cb1
  8
Layer_0
  10
94.153732
  20
71.551315
  0
VERTEX
  5
cb2
  8
Layer_0
  10
94.22995
  20
71.485672
  0
VERTEX
  5
cb3
  8
Layer_0
  10
94.238571
  20
71.339882
  0
VERTEX
  5
cb4
  8
Layer_0
  10
94.198647
  20
71.203545
  0
VERTEX
  5
cb5
  8
Layer_0
  10
94.115776
  20
71.08815
  0
VERTEX
  5
cb6
  8
Layer_0
  10
93.995575
  20
71.005203
  0
VERTEX
  5
cb7
  8
Layer_0
  10
93.708832
  20
70.807747
  0
VERTEX
  5
cb8
  8
Layer_0
  10
93.464325
  20
70.559891
  0
VERTEX
  5
cb9
  8
Layer_0
  10
93.406433
  20
70.430115
  0
VERTEX
  5
cba
  8
Layer_0
  10
93.377037
  20
70.292664
  0
VERTEX
  5
cbb
  8
Layer_0
  10
93.37664
  20
70.152115
  0
VERTEX
  5
cbc
  8
Layer_0
  10
93.405731
  20
70.013016
  0
VERTEX
  5
cbd
  8
Layer_0
  10
93.517792
  20
69.963715
  0
VERTEX
  5
cbe
  8
Layer_0
  10
93.640106
  20
69.958328
  0
SEQEND
  0
POLYLINE
  5
cc0
  8
Layer_0
  62
0
  70
1
  66
1
  10
0
  20
0
  30
0
  0
VERTEX
  5
cc0
  8
Layer_0
  10
99.362762
  20
69.946609
  0
VERTEX
  5
cc1
  8
Layer_0
  10
99.511139
  20
69.994026
  0
VERTEX
  5
cc2
  8
Layer_0
  10
99.649437
  20
70.063538
  0
VERTEX
  5
cc3
  8
Layer_0
  10
99.775253
  20
70.153687
  0
VERTEX
  5
cc4
  8
Layer_0
  10
99.8862
  20
70.263016
  0
VERTEX
  5
cc5
  8
Layer_0
  10
99.896446
  20
70.33699
  0
VERTEX
  5
cc6
  8
Layer_0
  10
99.862762
  20
70.403641
  0
VERTEX
  5
cc7
  8
Layer_0
  10
99.801071
  20
70.440231
  0
VERTEX
  5
cc8
  8
Layer_0
  10
99.72995
  20
70.430984
  0
VERTEX
  5
cc9
  8
Layer_0
  10
99.612968
  20
70.338043
  0
VERTEX
  5
cca
  8
Layer_0
  10
99.483788
  20
70.264626
  0
VERTEX
  5
ccb
  8
Layer_0
  10
99.344879
  20
70.211884
  0
VERTEX
  5
ccc
  8
Layer_0
  10
99.1987
  20
70.180984
  0
VERTEX
  5
ccd
  8
Layer_0
  10
99.055191
  20
70.217552
  0
VERTEX
  5
cce
  8
Layer_0
  10
98.940567
  20
70.303131
  0
VERTEX
  5
ccf
  8
Layer_0
  10
98.866142
  20
70.425293
  0
VERTEX
  5
cd0
  8
Layer_0
  10
98.843231
  20
70.571609
  0
VERTEX
  5
cd1
  8
Layer_0
  10
98.901871
  20
70.857872
  0
VERTEX
  5
cd2
  8
Layer_0
  10
99.025528
  20
71.117943
  0
VERTEX
  5
cd3
  8
Layer_0
  10
99.207443
  20
71.341171
  0
VERTEX
  5
cd4
  8
Layer_0
  10
99.440887
  20
71.516922
  0
VERTEX
  5
cd5
  8
Layer_0
  10
99.504288
  20
71.540039
  0
VERTEX
  5
cd6
  8
Layer_0
  10
99.570221
  20
71.542847
  0
VERTEX
  5
cd7
  8
Layer_0
  10
99.633987
  20
71.525856
  0
VERTEX
  5
cd8
  8
Layer_0
  10
99.690887
  20
71.489578
  0
VERTEX
  5
cd9
  8
Layer_0
  10
99.740601
  20
71.385658
  0
VERTEX
  5
cda
  8
Layer_0
  10
99.843231
  20
71.333328
  0
VERTEX
  5
cdb
  8
Layer_0
  10
99.931519
  20
71.377121
  0
VERTEX
  5
cdc
  8
Layer_0
  10
99.964325
  20
71.470047
  0
VERTEX
  5
cdd
  8
Layer_0
  10
99.963821
  20
71.639252
  0
VERTEX
  5
cde
  8
Layer_0
  10
99.905731
  20
71.798172
  0
VERTEX
  5
cdf
  8
Layer_0
  10
99.841202
  20
71.825264
  0
VERTEX
  5
ce0
  8
Layer_0
  10
99.772919
  20
71.809891
  0
VERTEX
  5
ce1
  8
Layer_0
  10
99.726044
  20
71.763016
  0
VERTEX
  5
ce2
  8
Layer_0
  10
99.553482
  20
71.786919
  0
VERTEX
  5
ce3
  8
Layer_0
  10
99.384094
  20
71.763123
  0
VERTEX
  5
ce4
  8
Layer_0
  10
99.227478
  20
71.694351
  0
VERTEX
  5
ce5
  8
Layer_0
  10
99.093231
  20
71.583328
  0
VERTEX
  5
ce6
  8
Layer_0
  10
98.934097
  20
71.40815
  0
VERTEX
  5
ce7
  8
Layer_0
  10
98.801163
  20
71.21373
  0
VERTEX
  5
ce8
  8
Layer_0
  10
98.696091
  20
71.00293
  0
VERTEX
  5
ce9
  8
Layer_0
  10
98.620575
  20
70.778641
  0
VERTEX
  5
cea
  8
Layer_0
  10
98.593353
  20
70.54158
  0
VERTEX
  5
ceb
  8
Layer_0
  10
98.647232
  20
70.315918
  0
VERTEX
  5
cec
  8
Layer_0
  10
98.77372
  20
70.121407
  0
VERTEX
  5
ced
  8
Layer_0
  10
98.964325
  20
69.977859
  0
VERTEX
  5
cee
  8
Layer_0
  10
99.161201
  20
69.932404
  0
VERTEX
  5
cef
  8
Layer_0
  10
99.362762
  20
69.946609
  0
SEQEND
  0
POLYLINE
  5
cf1
  8
Layer_0
  62
0
  70
1
  66
1
  10
0
  20
0
  30
0
  0
VERTEX
  5
cf1
  8
Layer_0
  10
97.300262
  20
70.102859
  0
VERTEX
  5
cf2
  8
Layer_0
  10
97.221115
  20
70.135818
  0
VERTEX
  5
cf3
  8
Layer_0
  10
97.145966
  20
70.177078
  0
VERTEX
  5
cf4
  8
Layer_0
  10
97.168335
  20
70.862465
  0
VERTEX
  5
cf5
  8
Layer_0
  10
97.159637
  20
71.548172
  0
VERTEX
  5
cf6
  8
Layer_0
  10
97.550423
  20
71.373116
  0
VERTEX
  5
cf7
  8
Layer_0
  10
97.905731
  20
71.134109
  0
VERTEX
  5
cf8
  8
Layer_0
  10
98.03643
  20
70.97435
  0
VERTEX
  5
cf9
  8
Layer_0
  10
98.10556
  20
70.785477
  0
VERTEX
  5
cfa
  8
Layer_0
  10
98.109924
  20
70.584396
  0
VERTEX
  5
cfb
  8
Layer_0
  10
98.046356
  20
70.388016
  0
VERTEX
  5
cfc
  8
Layer_0
  10
97.938629
  20
70.24398
  0
VERTEX
  5
cfd
  8
Layer_0
  10
97.795609
  20
70.141357
  0
VERTEX
  5
cfe
  8
Layer_0
  10
97.62854
  20
70.085892
  0
VERTEX
  5
cff
  8
Layer_0
  10
97.4487
  20
70.083328
  0
VERTEX
  5
d00
  8
Layer_0
  10
97.300262
  20
70.102859
  0
SEQEND
  0
POLYLINE
  5
d02
  8
Layer_0
  62
0
  70
1
  66
1
  10
0
  20
0
  30
0
  0
VERTEX
  5
d02
  8
Layer_0
  10
95.253387
  20
69.938797
  0
VERTEX
  5
d03
  8
Layer_0
  10
95.333466
  20
69.910812
  0
VERTEX
  5
d04
  8
Layer_0
  10
95.413544
  20
69.938797
  0
VERTEX
  5
d05
  8
Layer_0
  10
95.434914
  20
69.979317
  0
VERTEX
  5
d06
  8
Layer_0
  10
95.440887
  20
70.024734
  0
VERTEX
  5
d07
  8
Layer_0
  10
95.671829
  20
70.545822
  0
VERTEX
  5
d08
  8
Layer_0
  10
95.882294
  20
71.075516
  0
VERTEX
  5
d09
  8
Layer_0
  10
95.893387
  20
71.147789
  0
VERTEX
  5
d0a
  8
Layer_0
  10
95.858856
  20
71.212234
  0
VERTEX
  5
d0b
  8
Layer_0
  10
95.785355
  20
71.246063
  0
VERTEX
  5
d0c
  8
Layer_0
  10
95.706512
  20
71.227859
  0
VERTEX
  5
d0d
  8
Layer_0
  10
95.559021
  20
70.899513
  0
VERTEX
  5
d0e
  8
Layer_0
  10
95.429169
  20
70.563797
  0
VERTEX
  5
d0f
  8
Layer_0
  10
95.37925
  20
70.442337
  0
VERTEX
  5
d10
  8
Layer_0
  10
95.327606
  20
70.321609
  0
VERTEX
  5
d11
  8
Layer_0
  10
95.015106
  20
71.177078
  0
VERTEX
  5
d12
  8
Layer_0
  10
94.975212
  20
71.233475
  0
VERTEX
  5
d13
  8
Layer_0
  10
94.909637
  20
71.255203
  0
VERTEX
  5
d14
  8
Layer_0
  10
94.838745
  20
71.234604
  0
VERTEX
  5
d15
  8
Layer_0
  10
94.79245
  20
71.177078
  0
VERTEX
  5
d16
  8
Layer_0
  10
94.78273
  20
71.125847
  0
VERTEX
  5
d17
  8
Layer_0
  10
94.796356
  20
71.075516
  0
VERTEX
  5
d18
  8
Layer_0
  10
95.001999
  20
70.547188
  0
VERTEX
  5
d19
  8
Layer_0
  10
95.202606
  20
70.016922
  0
VERTEX
  5
d1a
  8
Layer_0
  10
95.222984
  20
69.974602
  0
VERTEX
  5
d1b
  8
Layer_0
  10
95.253387
  20
69.938797
  0
SEQEND
  0
ENDSEC
  0
EOF
